<svg xmlns="http://www.w3.org/2000/svg" width="23.87" height="23.87" viewBox="0 0 23.87 23.87">
  <title>marker</title>
  <g id="圖層_2" data-name="圖層 2">
    <g id="圖層_1-2" data-name="圖層 1">
      <g>
        <circle cx="11.93" cy="11.93" r="11.43" fill="none" stroke="#0080ef" stroke-miterlimit="10"/>
        <g>
          <path d="M11.93,18.78c-.42-2.06-1.66-3.65-2.72-5.35a12.33,12.33,0,0,1-1.48-3,4.22,4.22,0,0,1,3.39-5.3,4.29,4.29,0,0,1,5.11,3.5A3.92,3.92,0,0,1,16,11a16.09,16.09,0,0,1-.94,1.8C13.86,14.74,12.39,16.49,11.93,18.78Z" fill="none" stroke="#0080ef" stroke-miterlimit="10" fill-rule="evenodd"/>
          <path d="M11.93,10.94a1.44,1.44,0,0,1-1.5-1.49,1.5,1.5,0,1,1,3,0A1.46,1.46,0,0,1,11.93,10.94Z" fill="none" stroke="#0080ef" stroke-miterlimit="10" fill-rule="evenodd"/>
        </g>
      </g>
    </g>
  </g>
</svg>
