<svg xmlns="http://www.w3.org/2000/svg" width="11.13" height="11.13" viewBox="0 0 11.13 11.13">
  <title>mobile-btn-deco</title>
  <g id="圖層_2" data-name="圖層 2">
    <g id="圖層_1-2" data-name="圖層 1">
      <path class="cls-1" d="M9,5.67a.15.15,0,0,1,0-.21l2-2a.15.15,0,0,0,0-.21l-.92-.92a.15.15,0,0,0-.21,0L9,3.21a.15.15,0,0,1-.21,0l-.92-.92a.15.15,0,0,1,0-.21l.92-.92a.15.15,0,0,0,0-.21L7.92,0a.15.15,0,0,0-.21,0L6.79,1l-.21.21-.92.92a.15.15,0,0,1-.21,0l-.92-.92L4.33,1,3.42,0a.15.15,0,0,0-.21,0L2.29,1a.15.15,0,0,0,0,.21l.92.92a.15.15,0,0,1,0,.21l-.92.92a.15.15,0,0,1-.21,0l-.92-.92a.15.15,0,0,0-.21,0L0,3.21a.15.15,0,0,0,0,.21l2,2a.15.15,0,0,1,0,.21l-.92.92L1,6.8,0,7.71a.15.15,0,0,0,0,.21L1,8.84a.15.15,0,0,0,.21,0l.92-.91a.15.15,0,0,1,.21,0l.92.92a.15.15,0,0,1,0,.21L2.29,10a.15.15,0,0,0,0,.21l.92.92a.15.15,0,0,0,.21,0l.92-.92L4.54,10l.64-.63.21-.21L5.46,9a.15.15,0,0,1,.21,0l2,2a.15.15,0,0,0,.21,0l.92-.92a.15.15,0,0,0,0-.21L7.92,9a.15.15,0,0,1,0-.21l.92-.91a.15.15,0,0,1,.21,0l.92.92a.15.15,0,0,0,.21,0l.92-.91a.15.15,0,0,0,0-.21l-.92-.92L10,6.59Zm-1.33.92a.15.15,0,0,1,0,.21l-.92.92a.15.15,0,0,1-.21,0L5.67,6.8a.15.15,0,0,0-.21,0l-.92.92a.15.15,0,0,1-.21,0L3.42,6.8a.15.15,0,0,1,0-.21l.92-.92a.15.15,0,0,0,0-.21l-.92-.92a.15.15,0,0,1,0-.21l.92-.91a.15.15,0,0,1,.21,0l.92.92a.15.15,0,0,0,.21,0l.92-.91a.15.15,0,0,1,.21,0l.92.92a.15.15,0,0,1,0,.21l-.92.92a.15.15,0,0,0,0,.21Z"/>
    </g>
  </g>
</svg>
