<svg xmlns="http://www.w3.org/2000/svg" xmlns:xlink="http://www.w3.org/1999/xlink" width="15.48" height="17.59" viewBox="0 0 15.48 17.59">
  <defs>
    <clipPath id="clip-path">
      <path d="M12.91,11.6l-.05-.08a9.17,9.17,0,0,0-1.07-1.07C11.16,9.82,9.7,8.67,9.7,8.67A3.63,3.63,0,0,1,8.44,6.12V0H3.08V8.42h0a2.7,2.7,0,0,0,.52,1.5,5.82,5.82,0,0,0,.89.86c.31.28.62.57.92.87l2.65,2.64a5.71,5.71,0,0,0,1.36,1.18,2.7,2.7,0,0,0,3.77-1.56,2.68,2.68,0,0,0-.29-2.32Z" fill="none"/>
    </clipPath>
  </defs>
  <title>mobile-topmenu-sock</title>
  <g id="圖層_2" data-name="圖層 2">
    <g id="圖層_1-2" data-name="圖層 1">
      <path d="M12.91,11.6l-.05-.08a9.17,9.17,0,0,0-1.07-1.07C11.16,9.82,9.7,8.67,9.7,8.67A3.63,3.63,0,0,1,8.44,6.12V0H3.08V8.42h0a2.7,2.7,0,0,0,.52,1.5,5.82,5.82,0,0,0,.89.86c.31.28.62.57.92.87l2.65,2.64a5.71,5.71,0,0,0,1.36,1.18,2.7,2.7,0,0,0,3.77-1.56,2.68,2.68,0,0,0-.29-2.32Z" fill="#fff"/>
      <g clip-path="url(#clip-path)">
        <circle cx="2.54" cy="8.75" r="2.54" fill="#dcdddd"/>
        <circle cx="12.94" cy="15.04" r="2.54" fill="#dcdddd"/>
      </g>
    </g>
  </g>
</svg>
