<svg xmlns="http://www.w3.org/2000/svg" width="23.87" height="23.87" viewBox="0 0 23.87 23.87">
  <title>phone</title>
  <g id="圖層_2" data-name="圖層 2">
    <g id="圖層_1-2" data-name="圖層 1">
      <g>
        <path d="M10.31,8.09a1,1,0,0,1-.22.91,5.31,5.31,0,0,1-.5.51.69.69,0,0,0-.22,1,4.22,4.22,0,0,0,.55,1c.78.9,1.58,1.79,2.41,2.65a3.94,3.94,0,0,0,1,.64.55.55,0,0,0,.71-.13c.07-.07.14-.12.21-.19a1.34,1.34,0,0,1,2-.08,6,6,0,0,1,1,.93,1.13,1.13,0,0,1-.06,1.66,5.2,5.2,0,0,1-.93.83,1.57,1.57,0,0,1-.82.22A4.7,4.7,0,0,1,13,17.23a14.31,14.31,0,0,1-6.52-7.8A5.4,5.4,0,0,1,6.31,8a1.41,1.41,0,0,1,.57-1.29c.3-.22.57-.49.88-.69a1,1,0,0,1,1.17,0A3.84,3.84,0,0,1,10.31,8.09Z" fill="none" stroke="#0080ef" stroke-miterlimit="10" fill-rule="evenodd"/>
        <circle cx="11.93" cy="11.93" r="11.43" fill="none" stroke="#0080ef" stroke-miterlimit="10"/>
      </g>
    </g>
  </g>
</svg>
