<svg xmlns="http://www.w3.org/2000/svg" width="20.4" height="20.4" viewBox="0 0 20.4 20.4">
  <title>worldwide-deco</title>
  <g id="圖層_2" data-name="圖層 2">
    <g id="圖層_1-2" data-name="圖層 1">
      <g>
        <polygon points="11.64 7.33 10.2 8.76 8.76 7.33 7.33 8.76 8.76 10.2 7.33 11.64 8.76 13.07 10.2 11.64 11.64 13.07 13.07 11.64 11.64 10.2 13.07 8.76 11.64 7.33" fill="#00bcea"/>
        <path d="M10.2,0A10.2,10.2,0,1,0,20.4,10.2,10.2,10.2,0,0,0,10.2,0Zm5.75,11.64,1.44,1.44-1.44,1.44-1.44-1.44-1.44,1.44,1.44,1.44-1.44,1.44L10.2,14.51l-.36.36L8.76,15.95,7.33,17.38,5.89,15.95l1.44-1.44L5.89,13.07,4.46,14.51,3,13.07l1.44-1.44L5.89,10.2,3,7.33,4.46,5.89,5.89,7.33,7.33,5.89,5.89,4.45,7.33,3,8.76,4.45,10.2,5.89l1.44-1.44L13.07,3l1.44,1.44L13.07,5.89l1.44,1.44,1.44-1.44,1.44,1.44L14.51,10.2Z" fill="#00bcea"/>
      </g>
    </g>
  </g>
</svg>
