<svg xmlns="http://www.w3.org/2000/svg" width="22.1" height="22.1" viewBox="0 0 22.1 22.1">
  <title>yarn-btn-deco</title>
  <g id="圖層_2" data-name="圖層 2">
    <g id="圖層_1-2" data-name="圖層 1">
      <g>
        <polygon points="12.61 7.94 11.05 9.49 9.49 7.94 7.94 9.49 9.49 11.05 7.94 12.61 9.49 14.16 11.05 12.61 12.61 14.16 14.16 12.61 12.61 11.05 14.16 9.49 12.61 7.94" fill="#fff"/>
        <path d="M11.05,0A11,11,0,1,0,22.1,11,11.05,11.05,0,0,0,11.05,0Zm6.23,12.61,1.55,1.56-1.55,1.56-1.56-1.56-1.56,1.56,1.56,1.56-1.56,1.56-3.11-3.11-.39.39L9.49,17.27,7.94,18.83,6.38,17.27l1.55-1.56L6.38,14.16,4.83,15.72,3.27,14.16l1.56-1.56L6.38,11,3.27,7.94,4.83,6.38,6.38,7.94,7.94,6.38,6.38,4.83,7.94,3.27,9.49,4.83l1.56,1.56,1.56-1.56,1.56-1.56,1.56,1.56L14.16,6.38l1.56,1.56,1.56-1.56,1.55,1.56L15.72,11Z" fill="#fff"/>
      </g>
    </g>
  </g>
</svg>
