<?xml version="1.0" encoding="utf-8"?>
<!-- Generator: Adobe Illustrator 17.0.0, SVG Export Plug-In . SVG Version: 6.00 Build 0)  -->
<!DOCTYPE svg PUBLIC "-//W3C//DTD SVG 1.1//EN" "http://www.w3.org/Graphics/SVG/1.1/DTD/svg11.dtd">
<svg version="1.1" id="圖層_1" xmlns="http://www.w3.org/2000/svg" xmlns:xlink="http://www.w3.org/1999/xlink" x="0px" y="0px"
	 width="327.647px" height="355.882px" viewBox="0 0 327.647 355.882" enable-background="new 0 0 327.647 355.882"
	 xml:space="preserve">
<g>
	<g>
		<path fill="#24B1DA" d="M58.303,23.363c0,1.626-0.213,3.095-0.638,4.407s-1.028,2.431-1.81,3.355
			c-0.781,0.924-1.729,1.639-2.845,2.144c-1.116,0.505-2.359,0.757-3.729,0.757c-1.361,0-2.596-0.252-3.707-0.757
			c-1.109-0.505-2.063-1.22-2.86-2.144c-0.798-0.925-1.413-2.043-1.849-3.355c-0.437-1.313-0.654-2.781-0.654-4.407v-2.486
			c0-1.626,0.218-3.098,0.654-4.415c0.436-1.318,1.046-2.441,1.832-3.371c0.787-0.93,1.735-1.647,2.846-2.152
			c1.11-0.504,2.346-0.757,3.706-0.757c1.37,0,2.614,0.253,3.729,0.757c1.115,0.505,2.069,1.223,2.861,2.152
			c0.791,0.93,1.4,2.053,1.825,3.371c0.425,1.317,0.638,2.789,0.638,4.415V23.363z M56.342,20.845c0-1.371-0.159-2.608-0.479-3.714
			c-0.318-1.104-0.781-2.042-1.387-2.814c-0.605-0.769-1.35-1.365-2.23-1.785c-0.883-0.42-1.881-0.629-2.997-0.629
			c-1.095,0-2.08,0.209-2.957,0.629c-0.876,0.42-1.62,1.016-2.231,1.785c-0.611,0.772-1.078,1.709-1.402,2.814
			c-0.324,1.105-0.486,2.343-0.486,3.714v2.519c0,1.382,0.164,2.625,0.494,3.729c0.329,1.105,0.803,2.046,1.418,2.822
			c0.617,0.775,1.363,1.37,2.24,1.785c0.877,0.414,1.861,0.621,2.957,0.621c1.125,0,2.127-0.207,3.004-0.621
			c0.877-0.415,1.615-1.01,2.216-1.785c0.601-0.776,1.058-1.717,1.37-2.822c0.314-1.104,0.471-2.348,0.471-3.729V20.845z"/>
		<path fill="#24B1DA" d="M79.23,10.5v15.732c0,1.308-0.215,2.446-0.646,3.419c-0.431,0.973-1.015,1.783-1.753,2.431
			c-0.738,0.648-1.605,1.135-2.599,1.458c-0.993,0.324-2.054,0.486-3.18,0.486c-1.158,0-2.234-0.162-3.228-0.486
			c-0.994-0.323-1.857-0.81-2.59-1.458c-0.734-0.648-1.308-1.458-1.723-2.431c-0.414-0.973-0.621-2.111-0.621-3.419V10.5h1.945
			v15.732c0,1.021,0.153,1.913,0.462,2.678c0.308,0.765,0.738,1.403,1.291,1.913c0.552,0.51,1.208,0.895,1.968,1.155
			c0.76,0.261,1.592,0.391,2.495,0.391c0.903,0,1.735-0.13,2.495-0.391c0.759-0.261,1.412-0.646,1.96-1.155
			c0.548-0.51,0.975-1.149,1.283-1.913c0.308-0.765,0.462-1.657,0.462-2.678V10.5H79.23z"/>
		<path fill="#24B1DA" d="M93.369,24.049h-6.742v9.659H84.65V10.5h7.539c1.211,0,2.303,0.149,3.275,0.446
			c0.973,0.298,1.801,0.736,2.486,1.315c0.686,0.579,1.212,1.294,1.578,2.144c0.367,0.851,0.551,1.828,0.551,2.934
			c0,0.765-0.117,1.484-0.352,2.159c-0.233,0.675-0.563,1.283-0.988,1.825c-0.425,0.542-0.932,1.01-1.521,1.402
			c-0.59,0.394-1.241,0.696-1.953,0.908l5.803,9.867v0.207h-2.089L93.369,24.049z M86.627,22.375h6.009
			c0.903,0,1.698-0.138,2.383-0.415c0.686-0.275,1.257-0.644,1.714-1.107c0.457-0.462,0.799-0.998,1.027-1.609
			c0.228-0.611,0.344-1.246,0.344-1.904c0-0.798-0.128-1.516-0.383-2.152c-0.256-0.638-0.635-1.18-1.14-1.626
			c-0.505-0.446-1.124-0.789-1.856-1.028c-0.734-0.238-1.578-0.358-2.535-0.358h-5.563V22.375z"/>
		<path fill="#24B1DA" d="M48.148,66.547l0.128,0.494l0.143-0.494l7.301-20.339h2.151l-8.64,23.208h-1.881l-8.639-23.208h2.136
			L48.148,66.547z"/>
		<path fill="#24B1DA" d="M63.674,69.416h-1.961V46.208h1.961V69.416z"/>
		<path fill="#24B1DA" d="M83.104,63.71c0-0.638-0.104-1.203-0.311-1.697c-0.207-0.494-0.558-0.946-1.052-1.355
			c-0.494-0.408-1.146-0.783-1.952-1.123c-0.809-0.34-1.817-0.681-3.029-1.021c-1.168-0.329-2.221-0.688-3.156-1.076
			c-0.935-0.388-1.729-0.842-2.383-1.362c-0.652-0.521-1.158-1.121-1.514-1.802c-0.356-0.68-0.534-1.477-0.534-2.391
			c0-0.893,0.191-1.706,0.573-2.438c0.383-0.733,0.92-1.363,1.611-1.889c0.689-0.526,1.514-0.936,2.47-1.229
			c0.956-0.291,2.003-0.438,3.14-0.438c1.223,0,2.325,0.181,3.309,0.541c0.982,0.362,1.818,0.855,2.51,1.482
			c0.691,0.628,1.223,1.361,1.594,2.2c0.372,0.84,0.559,1.743,0.559,2.71h-1.977c0-0.754-0.133-1.453-0.398-2.096
			c-0.266-0.644-0.654-1.198-1.164-1.666c-0.51-0.468-1.137-0.834-1.881-1.1c-0.744-0.266-1.594-0.398-2.551-0.398
			c-0.955,0-1.798,0.113-2.525,0.342c-0.729,0.229-1.334,0.537-1.817,0.925c-0.483,0.388-0.851,0.843-1.101,1.362
			c-0.249,0.521-0.374,1.074-0.374,1.658c0,0.553,0.104,1.063,0.312,1.53c0.207,0.468,0.555,0.901,1.043,1.3
			c0.489,0.398,1.133,0.77,1.93,1.115s1.779,0.672,2.948,0.98c1.222,0.34,2.312,0.712,3.268,1.115
			c0.956,0.404,1.764,0.879,2.423,1.427c0.658,0.548,1.158,1.177,1.498,1.889c0.34,0.712,0.51,1.536,0.51,2.471
			c0,0.946-0.199,1.794-0.598,2.542c-0.398,0.75-0.951,1.385-1.657,1.905c-0.707,0.521-1.549,0.919-2.526,1.195
			c-0.979,0.276-2.041,0.415-3.188,0.415c-0.691,0-1.385-0.059-2.08-0.176c-0.697-0.117-1.366-0.295-2.009-0.534
			c-0.644-0.239-1.243-0.544-1.802-0.917c-0.558-0.371-1.041-0.814-1.45-1.33c-0.409-0.516-0.733-1.105-0.972-1.77
			c-0.24-0.664-0.359-1.405-0.359-2.224H70.4c0,0.978,0.201,1.804,0.605,2.479c0.404,0.675,0.925,1.22,1.563,1.634
			c0.637,0.414,1.354,0.715,2.151,0.9c0.798,0.187,1.595,0.279,2.392,0.279c0.902,0,1.724-0.104,2.462-0.311
			c0.739-0.207,1.371-0.502,1.898-0.885c0.525-0.383,0.93-0.842,1.211-1.379C82.963,64.966,83.104,64.368,83.104,63.71z"/>
		<path fill="#24B1DA" d="M91.695,69.416h-1.961V46.208h1.961V69.416z"/>
		<path fill="#24B1DA" d="M115.143,59.071c0,1.626-0.213,3.096-0.638,4.407c-0.425,1.313-1.028,2.431-1.81,3.355
			c-0.781,0.925-1.729,1.64-2.845,2.144c-1.116,0.505-2.359,0.758-3.729,0.758c-1.361,0-2.596-0.253-3.707-0.758
			c-1.109-0.504-2.063-1.219-2.86-2.144c-0.798-0.925-1.413-2.043-1.849-3.355c-0.437-1.312-0.654-2.781-0.654-4.407v-2.486
			c0-1.626,0.218-3.098,0.654-4.416c0.436-1.316,1.046-2.44,1.832-3.371c0.787-0.93,1.735-1.647,2.846-2.151
			c1.11-0.505,2.346-0.757,3.706-0.757c1.37,0,2.614,0.252,3.729,0.757c1.115,0.505,2.069,1.222,2.861,2.151
			c0.791,0.931,1.4,2.055,1.825,3.371c0.425,1.318,0.638,2.79,0.638,4.416V59.071z M113.182,56.553c0-1.37-0.159-2.608-0.479-3.714
			c-0.318-1.105-0.781-2.043-1.387-2.813c-0.605-0.771-1.35-1.366-2.23-1.785c-0.883-0.42-1.881-0.631-2.997-0.631
			c-1.095,0-2.08,0.211-2.957,0.631c-0.876,0.419-1.62,1.014-2.231,1.785c-0.611,0.77-1.078,1.707-1.402,2.813
			c-0.324,1.106-0.486,2.344-0.486,3.714v2.519c0,1.381,0.164,2.625,0.494,3.73c0.329,1.104,0.803,2.045,1.418,2.82
			c0.617,0.776,1.363,1.371,2.24,1.785c0.877,0.415,1.861,0.622,2.957,0.622c1.125,0,2.127-0.207,3.004-0.622
			c0.877-0.414,1.615-1.009,2.216-1.785c0.601-0.775,1.058-1.716,1.37-2.82c0.314-1.105,0.471-2.35,0.471-3.73V56.553z"/>
		<path fill="#24B1DA" d="M137.362,69.416h-1.961l-13.341-19.86v19.86h-1.977V46.208h1.977l13.357,19.877V46.208h1.944V69.416z"/>
		<path fill="#24B1DA" d="M151.197,69.416V46.208h6.488c1.444,0,2.775,0.25,3.992,0.75c1.217,0.499,2.264,1.211,3.141,2.135
			c0.876,0.925,1.559,2.035,2.047,3.332c0.489,1.297,0.734,2.741,0.734,4.336v2.119c0,1.594-0.245,3.039-0.734,4.336
			c-0.488,1.297-1.174,2.404-2.056,3.323c-0.882,0.919-1.939,1.628-3.172,2.128s-2.593,0.749-4.081,0.749H151.197z M153.158,47.882
			v19.877h4.398c1.244,0,2.365-0.216,3.363-0.646c1-0.43,1.85-1.035,2.551-1.816c0.701-0.781,1.24-1.717,1.618-2.806
			c0.377-1.089,0.565-2.292,0.565-3.61v-2.168c0-1.338-0.191-2.553-0.574-3.642c-0.382-1.089-0.922-2.017-1.617-2.782
			c-0.696-0.765-1.533-1.357-2.51-1.777c-0.979-0.419-2.067-0.629-3.268-0.629H153.158z"/>
		<path fill="#24B1DA" d="M174.963,69.416h-1.961V46.208h1.961V69.416z"/>
		<path fill="#24B1DA" d="M194.074,62.913h-10.535l-2.392,6.503h-2.056l8.782-23.208h1.864l8.783,23.208h-2.04L194.074,62.913z
			 M184.145,61.239h9.309l-4.654-12.641L184.145,61.239z"/>
		<path fill="#24B1DA" d="M218.51,66.659c-0.202,0.286-0.508,0.61-0.917,0.972c-0.409,0.361-0.941,0.696-1.594,1.004
			c-0.653,0.309-1.44,0.569-2.358,0.781c-0.92,0.212-1.985,0.319-3.197,0.319c-1.37,0-2.624-0.248-3.762-0.742
			c-1.137-0.494-2.117-1.2-2.939-2.119c-0.824-0.92-1.465-2.033-1.922-3.34s-0.686-2.773-0.686-4.398v-2.822
			c0-1.594,0.208-3.033,0.622-4.319c0.415-1.286,1.013-2.38,1.794-3.283c0.78-0.903,1.724-1.6,2.828-2.089
			c1.105-0.488,2.354-0.732,3.746-0.732c1.286,0,2.423,0.173,3.411,0.518c0.988,0.346,1.827,0.826,2.519,1.443
			c0.691,0.615,1.238,1.341,1.642,2.176c0.403,0.834,0.669,1.739,0.798,2.717h-1.961c-0.117-0.69-0.318-1.35-0.605-1.977
			c-0.287-0.627-0.686-1.176-1.195-1.649c-0.511-0.473-1.141-0.851-1.89-1.132c-0.749-0.281-1.649-0.422-2.702-0.422
			c-1.137,0-2.141,0.209-3.012,0.629c-0.871,0.42-1.607,1.01-2.208,1.77c-0.601,0.76-1.055,1.676-1.362,2.75
			c-0.309,1.073-0.463,2.264-0.463,3.57v2.854c0,1.359,0.176,2.59,0.526,3.689c0.351,1.1,0.847,2.037,1.49,2.813
			c0.644,0.776,1.416,1.377,2.319,1.802c0.902,0.425,1.907,0.638,3.012,0.638c0.893,0,1.68-0.066,2.359-0.199
			c0.68-0.133,1.27-0.301,1.77-0.502c0.5-0.202,0.911-0.42,1.235-0.654c0.324-0.232,0.571-0.456,0.741-0.669v-5.993h-6.232v-1.658
			h8.193V66.659z"/>
		<path fill="#24B1DA" d="M232.744,59.757h-6.743v9.659h-1.976V46.208h7.539c1.211,0,2.303,0.148,3.275,0.446
			c0.973,0.298,1.801,0.736,2.486,1.315c0.686,0.579,1.211,1.293,1.578,2.144c0.366,0.851,0.55,1.828,0.55,2.933
			c0,0.766-0.117,1.485-0.351,2.16c-0.234,0.675-0.564,1.283-0.988,1.825c-0.426,0.542-0.933,1.009-1.522,1.402
			c-0.59,0.394-1.241,0.696-1.952,0.909l5.802,9.866v0.207h-2.089L232.744,59.757z M226.001,58.083h6.009
			c0.904,0,1.698-0.138,2.383-0.414c0.686-0.276,1.258-0.646,1.715-1.107c0.456-0.463,0.799-1,1.027-1.61
			c0.229-0.611,0.343-1.246,0.343-1.905c0-0.797-0.128-1.514-0.382-2.151c-0.256-0.638-0.636-1.18-1.141-1.626
			c-0.504-0.446-1.123-0.789-1.856-1.027c-0.733-0.24-1.578-0.359-2.534-0.359h-5.563V58.083z"/>
		<path fill="#24B1DA" d="M257.322,62.913h-10.536l-2.392,6.503h-2.056l8.782-23.208h1.865l8.783,23.208h-2.041L257.322,62.913z
			 M247.392,61.239h9.31l-4.655-12.641L247.392,61.239z"/>
		<path fill="#24B1DA" d="M267.778,46.208l8.56,20.482l8.592-20.482h2.613v23.208h-1.96V59.278l0.159-10.328l-8.639,20.466h-1.515
			l-8.607-20.387l0.159,10.249v10.138h-1.961V46.208H267.778z"/>
	</g>
</g>
<path fill="#24B1DA" d="M14.396,346.204l-0.075-1.563c0.513-0.025,52.001-2.801,114.258-30.527
	c36.55-16.277,69.608-37.844,98.255-64.101c35.806-32.819,64.785-73.105,86.135-119.733l1.423,0.65
	c-21.443,46.836-50.556,87.298-86.53,120.263c-28.78,26.374-61.988,48.033-98.704,64.377
	C66.642,343.398,14.911,346.178,14.396,346.204z"/>
<g>
	<circle fill="#24B1DA" cx="115.771" cy="319.092" r="8.604"/>
	<path fill="#FFFFFF" d="M115.771,327.956c-4.888,0-8.863-3.977-8.863-8.864c0-4.888,3.976-8.864,8.863-8.864
		s8.864,3.977,8.864,8.864C124.635,323.979,120.658,327.956,115.771,327.956z M115.771,310.75c-4.601,0-8.342,3.741-8.342,8.342
		c0,4.601,3.741,8.343,8.342,8.343s8.342-3.742,8.342-8.343C124.112,314.491,120.371,310.75,115.771,310.75z"/>
</g>
<g>
	<circle fill="#24B1DA" cx="202.845" cy="271.123" r="8.604"/>
	<path fill="#FFFFFF" d="M202.845,279.987c-4.888,0-8.863-3.977-8.863-8.864s3.976-8.864,8.863-8.864
		c4.888,0,8.863,3.977,8.863,8.864S207.732,279.987,202.845,279.987z M202.845,262.78c-4.6,0-8.343,3.743-8.343,8.343
		c0,4.601,3.743,8.343,8.343,8.343c4.6,0,8.343-3.742,8.343-8.343C211.188,266.523,207.444,262.78,202.845,262.78z"/>
</g>
<g>
	<circle fill="#24B1DA" cx="276.884" cy="193.434" r="8.604"/>
	<path fill="#FFFFFF" d="M276.884,202.298c-4.888,0-8.864-3.976-8.864-8.863c0-4.889,3.977-8.864,8.864-8.864
		c4.888,0,8.863,3.976,8.863,8.864C285.747,198.322,281.772,202.298,276.884,202.298z M276.884,185.092
		c-4.601,0-8.342,3.742-8.342,8.343c0,4.6,3.741,8.342,8.342,8.342c4.6,0,8.342-3.742,8.342-8.342
		C285.226,188.834,281.483,185.092,276.884,185.092z"/>
</g>
<g>
	<g>
		<path fill="#040000" d="M102.165,293.04H98.62v-0.603h1.541c-0.109-0.387-0.273-0.762-0.492-1.125l0.563-0.217
			c0.238,0.395,0.438,0.842,0.598,1.342h1.336V293.04z M101.913,294.792h-3.029v-0.627h3.029V294.792z M101.913,296.497h-3.029
			v-0.603h3.029V296.497z M101.72,301.366h-0.615v-0.65h-1.535v0.938h-0.598v-4.02h2.748V301.366z M101.104,300.13v-1.881h-1.535
			v1.881H101.104z M109.026,299.35c-0.078,0.734-0.201,1.306-0.369,1.714c-0.168,0.408-0.41,0.612-0.727,0.612
			c-0.566,0-0.998-0.691-1.295-2.074c-0.473,0.617-1.06,1.213-1.764,1.787l-0.416-0.48c0.895-0.719,1.57-1.418,2.027-2.098
			c-0.219-1.582-0.363-3.283-0.434-5.104h-2.654v1.512h1.934c0.012,1.145,0.011,2.06-0.003,2.745
			c-0.014,0.686-0.044,1.105-0.091,1.26c-0.047,0.154-0.146,0.28-0.299,0.378c-0.152,0.098-0.402,0.147-0.75,0.147
			c-0.129,0-0.26-0.01-0.393-0.029l-0.146-0.609c0.117,0.008,0.361,0.012,0.732,0.012c0.195,0,0.306-0.158,0.331-0.475
			s0.032-1.262,0.021-2.836h-1.336c-0.008,2.527-0.246,4.455-0.715,5.783l-0.592-0.275c0.473-1.43,0.709-3.23,0.709-5.402v-2.807
			h3.24c-0.016-0.328-0.023-0.947-0.023-1.857h0.598l0.035,1.857h2.379v0.598h-2.35c0.027,1.438,0.139,2.838,0.334,4.201
			c0.496-0.945,0.893-1.977,1.19-3.094l0.563,0.322c-0.406,1.367-0.951,2.623-1.635,3.768c0.094,0.582,0.207,1.049,0.34,1.4
			c0.133,0.352,0.22,0.552,0.261,0.601c0.041,0.049,0.095,0.073,0.161,0.073c0.07,0,0.126-0.024,0.167-0.073
			c0.041-0.049,0.105-0.278,0.193-0.689c0.088-0.41,0.151-0.799,0.19-1.166L109.026,299.35z M108.704,292.571l-0.557,0.334
			c-0.172-0.383-0.424-0.779-0.756-1.189l0.457-0.311C108.212,291.78,108.497,292.169,108.704,292.571z"/>
		<path fill="#040000" d="M113.632,291.44c-0.113,0.363-0.281,0.81-0.504,1.342l-0.334,0.773v8.209h-0.609v-7.02
			c-0.516,0.813-0.965,1.436-1.348,1.869l-0.322-0.574c1.105-1.336,1.949-2.941,2.531-4.816L113.632,291.44z M121.015,293.233
			h-7.395v-0.615h3.363c-0.063-0.281-0.242-0.674-0.539-1.178l0.586-0.229c0.254,0.438,0.453,0.906,0.598,1.406h3.387V293.233z
			 M120.452,294.985h-6.363v-0.592h6.363V294.985z M120.452,296.796h-6.363v-0.592h6.363V296.796z M120.259,301.776h-0.598v-0.568
			h-4.816v0.568h-0.621v-3.756h6.035V301.776z M119.661,300.599v-1.98h-4.816v1.98H119.661z"/>
	</g>
</g>
<g>
	<g>
		<path fill="#040000" d="M250.565,175.819c-0.75,0.977-1.861,1.836-3.334,2.578h2.76v2.461h-2.402l-0.158,1.318h2.561
			c0,0.961-0.037,1.637-0.111,2.027c-0.074,0.391-0.181,0.666-0.319,0.826c-0.139,0.16-0.293,0.265-0.463,0.313
			c-0.17,0.049-0.648,0.073-1.433,0.073c-0.316,0-0.633-0.008-0.949-0.023l-0.146-0.621l2.016,0.035
			c0.297,0.012,0.503-0.126,0.618-0.413c0.115-0.287,0.169-0.829,0.161-1.626h-2.602l0.252-2.496h2.373v-1.271h-2.303v-0.539
			c-0.395,0.188-0.774,0.346-1.137,0.475l-0.363-0.539c0.648-0.188,1.316-0.482,2.004-0.885c-0.262-0.262-0.629-0.521-1.102-0.779
			l0.334-0.457c0.527,0.305,0.963,0.611,1.307,0.92c0.734-0.473,1.279-0.932,1.635-1.377h-3.012v-0.598h3.814V175.819z
			 M255.956,185.012l-0.422,0.469c-0.68-0.551-1.396-1.065-2.15-1.541c-0.824,0.668-1.699,1.182-2.625,1.541l-0.434-0.469
			c0.746-0.242,1.598-0.711,2.555-1.406l-1.969-1.178l0.352-0.428h-0.527v-0.615h4.377c-0.281,0.832-0.709,1.553-1.283,2.162
			C254.446,183.895,255.155,184.384,255.956,185.012z M255.628,180.8h-1.307c-0.18,0-0.335-0.059-0.466-0.176
			c-0.131-0.117-0.196-0.275-0.196-0.475v-1.148h-1.488c-0.059,0.883-0.43,1.566-1.113,2.051l-0.516-0.422
			c0.715-0.469,1.07-1.213,1.066-2.232h2.654v1.588c0,0.141,0.088,0.211,0.264,0.211h1.102V180.8z M256.038,178.362l-0.287,0.539
			c-2.063-0.715-3.596-1.975-4.6-3.779l0.568-0.24c0.242,0.422,0.51,0.803,0.803,1.143c0.371-0.313,0.711-0.652,1.02-1.02
			l0.551,0.252c-0.324,0.418-0.713,0.822-1.166,1.213c0.32,0.336,0.59,0.57,0.809,0.703c0.492-0.359,0.92-0.73,1.283-1.113
			l0.492,0.322c-0.414,0.453-0.83,0.834-1.248,1.143C254.802,177.856,255.394,178.136,256.038,178.362z M254.216,182.001h-2.871
			c0.754,0.418,1.418,0.816,1.992,1.195C253.665,182.887,253.958,182.489,254.216,182.001z"/>
		<path fill="#040000" d="M267.739,181.567h-6.34v3.082c0.762-0.125,1.535-0.32,2.32-0.586l0.035,0.563
			c-0.949,0.324-1.949,0.596-3,0.814l-0.193-0.598c0.145-0.113,0.217-0.229,0.217-0.346v-2.93h-1.6
			c-0.285,1.723-0.717,3.031-1.295,3.926l-0.492-0.434c0.875-1.426,1.313-3.357,1.313-5.795v-4.043h8.396v2.59h-7.775v1.26h2.244
			v-0.826h0.65v0.826h2.578v-0.826h0.65v0.826h1.787v0.586h-1.787v1.324h2.291V181.567z M261.569,180.981v-1.324h-2.256
			c0,0.426-0.027,0.867-0.082,1.324H261.569z M266.439,177.196v-1.377h-7.113v1.377H266.439z M264.798,180.981v-1.324h-2.578v1.324
			H264.798z M268.349,184.889l-0.299,0.592c-1.609-0.418-2.753-0.92-3.431-1.506c-0.678-0.586-1.163-1.182-1.456-1.787l0.615-0.164
			c0.371,0.609,0.783,1.102,1.236,1.477c0.574-0.363,1.102-0.836,1.582-1.418l0.504,0.387c-0.449,0.543-0.957,1.01-1.523,1.4
			C266.276,184.3,267.2,184.639,268.349,184.889z"/>
	</g>
</g>
<g>
	<g>
		<path fill="#040000" d="M176.175,250.491c-0.055,1.023-0.367,1.943-0.938,2.76l-0.457-0.434c0.344-0.52,0.584-1.096,0.721-1.729
			h-1.119v5.268c0,0.156-0.063,0.319-0.19,0.489c-0.127,0.17-0.45,0.255-0.97,0.255c-0.199,0-0.383-0.012-0.551-0.035l-0.352-0.645
			c0.508,0.039,0.904,0.059,1.189,0.059c0.059,0,0.121-0.029,0.188-0.088c0.066-0.059,0.1-0.117,0.1-0.176v-4.33
			c-0.582,1.469-1.189,2.615-1.822,3.439l-0.41-0.48c0.703-0.914,1.34-2.166,1.91-3.756h-1.863v-0.598h2.654
			c-0.5-0.574-1.115-1.113-1.846-1.617l0.439-0.398c0.285,0.195,0.646,0.475,1.084,0.838c0.555-0.633,0.994-1.236,1.318-1.811
			h-3.229v-0.598h3.914v0.598c-0.395,0.726-0.908,1.463-1.541,2.209l0.41,0.457l-0.369,0.322H176.175z M181.331,253.239
			c-0.023,0.816-0.088,1.553-0.193,2.209c-0.105,0.656-0.212,1.053-0.319,1.189c-0.107,0.137-0.242,0.255-0.404,0.354
			c-0.162,0.1-0.677,0.136-1.544,0.108l-0.287-0.645c0.246,0.02,0.514,0.029,0.803,0.029c0.438,0,0.698-0.021,0.782-0.064
			c0.084-0.043,0.149-0.106,0.196-0.19c0.047-0.084,0.102-0.349,0.164-0.794c0.063-0.445,0.119-0.979,0.17-1.6h-2.004
			c-0.336,1.543-1.328,2.645-2.977,3.305l-0.457-0.492c0.66-0.203,1.258-0.567,1.793-1.093c0.535-0.525,0.877-1.099,1.025-1.72
			h-1.904v-0.598h2.051c0.059-0.316,0.094-0.717,0.105-1.201l0.604,0.023c0,0.293-0.033,0.686-0.1,1.178H181.331z M182.04,251.786
			l-0.346,0.539c-0.922-0.273-1.783-0.701-2.584-1.283c-0.75,0.555-1.518,0.975-2.303,1.26l-0.422-0.516
			c0.754-0.227,1.498-0.605,2.232-1.137c-0.492-0.492-0.852-0.938-1.078-1.336l0.527-0.299c0.273,0.473,0.613,0.889,1.02,1.248
			c0.547-0.469,0.971-1.113,1.271-1.934h-2.566c-0.512,0.648-0.981,1.141-1.406,1.477l-0.463-0.428
			c0.891-0.703,1.643-1.645,2.256-2.824l0.598,0.229c-0.145,0.297-0.332,0.613-0.563,0.949h3.645v0.598h-0.85
			c-0.313,0.93-0.785,1.699-1.418,2.309C180.329,251.157,181.145,251.54,182.04,251.786z"/>
		<path fill="#040000" d="M194.064,250.057h-1.91l-0.105,1.213h-6.697l0.111-1.213h-1.84V249.6h1.898l0.129-1.16h6.674l-0.117,1.16
			h1.857V250.057z M192.54,255.495h-4.857l0.264,0.375c-1.309,0.695-2.602,1.119-3.879,1.271l-0.357-0.557
			c1.324-0.141,2.58-0.504,3.767-1.09h-2.314v-3.609h7.377V255.495z M193.618,248.932h-0.609v-1.131h-8.326v1.084h-0.615v-1.6h4.441
			c-0.098-0.203-0.201-0.375-0.311-0.516l0.574-0.205c0.101,0.148,0.242,0.389,0.422,0.721h4.424V248.932z M191.931,252.928v-0.551
			h-6.193v0.551H191.931z M191.931,253.971v-0.563h-6.193v0.563H191.931z M191.931,255.014v-0.563h-6.193v0.563H191.931z
			 M188.485,250.057h-2.402l-0.07,0.721h2.414L188.485,250.057z M188.602,248.921h-2.408l-0.076,0.68h2.426L188.602,248.921z
			 M191.532,250.057h-2.426l-0.059,0.721h2.426L191.532,250.057z M191.667,248.921h-2.438l-0.059,0.68h2.432L191.667,248.921z
			 M193.905,256.608l-0.234,0.521c-1.039-0.387-2.367-0.684-3.984-0.891l0.252-0.48
			C191.564,255.966,192.886,256.249,193.905,256.608z"/>
	</g>
</g>
<g>
	<g>
		<path fill="#040000" d="M91.241,283.638h-0.721v-8.531h0.721V283.638z"/>
		<path fill="#040000" d="M94.06,277.298l0.023,1.084c0.109-0.18,0.235-0.344,0.378-0.492c0.143-0.148,0.302-0.275,0.478-0.381
			c0.176-0.105,0.365-0.186,0.568-0.243c0.203-0.057,0.418-0.085,0.645-0.085c0.316,0,0.6,0.043,0.85,0.129
			c0.25,0.086,0.462,0.223,0.636,0.41c0.174,0.188,0.307,0.429,0.398,0.724c0.092,0.295,0.138,0.651,0.138,1.069v4.125h-0.697
			v-4.131c0-0.328-0.035-0.602-0.105-0.82c-0.07-0.219-0.17-0.395-0.299-0.527c-0.129-0.133-0.286-0.228-0.472-0.284
			c-0.186-0.057-0.392-0.085-0.618-0.085c-0.25,0-0.477,0.042-0.68,0.126c-0.203,0.084-0.383,0.196-0.539,0.337
			c-0.156,0.141-0.291,0.302-0.404,0.483c-0.113,0.182-0.203,0.368-0.27,0.56v4.342h-0.697v-6.34H94.06z"/>
		<path fill="#040000" d="M101.073,275.675v1.623h1.313v0.574h-1.313v4.225c0,0.223,0.023,0.401,0.067,0.536
			c0.045,0.135,0.105,0.24,0.182,0.316c0.076,0.076,0.164,0.127,0.264,0.152c0.1,0.025,0.204,0.038,0.313,0.038
			c0.105,0,0.207-0.007,0.305-0.021c0.098-0.014,0.186-0.026,0.264-0.038l0.029,0.574c-0.086,0.031-0.198,0.056-0.337,0.073
			c-0.139,0.018-0.276,0.026-0.413,0.026c-0.199,0-0.384-0.026-0.554-0.079c-0.17-0.053-0.315-0.143-0.437-0.272
			c-0.121-0.129-0.216-0.3-0.284-0.513c-0.068-0.213-0.103-0.478-0.103-0.794v-4.225h-1.166v-0.574h1.166v-1.623H101.073z"/>
		<path fill="#040000" d="M106.294,283.755c-0.414,0-0.795-0.077-1.143-0.231c-0.348-0.154-0.647-0.369-0.899-0.645
			c-0.252-0.275-0.448-0.602-0.589-0.981s-0.211-0.795-0.211-1.248v-0.252c0-0.488,0.073-0.931,0.22-1.327
			c0.146-0.396,0.345-0.734,0.595-1.014c0.25-0.279,0.538-0.495,0.864-0.647c0.326-0.152,0.671-0.228,1.034-0.228
			c0.402,0,0.76,0.072,1.072,0.217s0.575,0.346,0.788,0.603c0.213,0.258,0.374,0.565,0.483,0.92
			c0.109,0.355,0.164,0.744,0.164,1.166v0.428h-4.523v0.135c0,0.348,0.053,0.675,0.158,0.982c0.105,0.307,0.254,0.573,0.445,0.8
			c0.191,0.227,0.42,0.405,0.686,0.536c0.266,0.131,0.561,0.196,0.885,0.196c0.375,0,0.706-0.068,0.993-0.205
			c0.287-0.137,0.548-0.355,0.782-0.656l0.439,0.334c-0.105,0.152-0.228,0.297-0.366,0.434c-0.139,0.137-0.3,0.256-0.483,0.357
			c-0.184,0.102-0.391,0.182-0.621,0.24S106.579,283.755,106.294,283.755z M106.165,277.778c-0.266,0-0.512,0.051-0.738,0.152
			c-0.227,0.102-0.427,0.246-0.601,0.434c-0.174,0.188-0.316,0.413-0.428,0.677c-0.111,0.264-0.187,0.556-0.226,0.876h3.803v-0.076
			c-0.008-0.266-0.051-0.522-0.129-0.771c-0.078-0.248-0.192-0.468-0.343-0.659c-0.15-0.191-0.337-0.345-0.56-0.46
			C106.722,277.836,106.462,277.778,106.165,277.778z"/>
		<path fill="#040000" d="M109.757,280.409c0-0.492,0.056-0.936,0.167-1.333c0.111-0.396,0.272-0.735,0.483-1.017
			c0.211-0.281,0.468-0.498,0.77-0.65c0.303-0.152,0.646-0.228,1.028-0.228c0.453,0,0.842,0.091,1.166,0.272
			c0.324,0.182,0.592,0.435,0.803,0.759l0.035-0.914h0.656v6.229c0,0.41-0.061,0.778-0.182,1.104s-0.292,0.603-0.513,0.829
			c-0.221,0.227-0.487,0.4-0.8,0.521s-0.662,0.182-1.049,0.182c-0.199,0-0.402-0.022-0.609-0.067
			c-0.207-0.045-0.407-0.112-0.601-0.202c-0.193-0.09-0.376-0.202-0.548-0.337c-0.172-0.135-0.322-0.294-0.451-0.478l0.392-0.422
			c0.258,0.316,0.531,0.548,0.82,0.694c0.289,0.146,0.605,0.22,0.949,0.22c0.301,0,0.567-0.046,0.8-0.138s0.429-0.225,0.589-0.398
			c0.16-0.174,0.282-0.385,0.366-0.633c0.084-0.248,0.126-0.53,0.126-0.847v-0.738c-0.211,0.293-0.479,0.522-0.803,0.689
			c-0.324,0.166-0.711,0.249-1.16,0.249c-0.379,0-0.719-0.079-1.02-0.237c-0.301-0.158-0.557-0.379-0.768-0.662
			c-0.211-0.283-0.372-0.622-0.483-1.017c-0.111-0.395-0.167-0.83-0.167-1.307V280.409z M110.466,280.532
			c0,0.371,0.037,0.716,0.111,1.034c0.074,0.318,0.188,0.595,0.34,0.829c0.152,0.234,0.345,0.418,0.577,0.551
			c0.232,0.133,0.509,0.199,0.829,0.199c0.242,0,0.46-0.029,0.653-0.088c0.193-0.059,0.364-0.14,0.513-0.243
			c0.148-0.103,0.277-0.226,0.387-0.366c0.109-0.141,0.203-0.295,0.281-0.463v-2.947c-0.066-0.164-0.151-0.321-0.255-0.472
			c-0.104-0.15-0.229-0.283-0.375-0.398c-0.146-0.115-0.317-0.207-0.513-0.275c-0.195-0.068-0.422-0.103-0.68-0.103
			c-0.324,0-0.604,0.067-0.838,0.202c-0.234,0.135-0.428,0.319-0.58,0.554c-0.152,0.234-0.266,0.512-0.34,0.832
			c-0.074,0.32-0.111,0.664-0.111,1.031V280.532z"/>
		<path fill="#040000" d="M119.624,277.895c-0.148-0.027-0.307-0.041-0.475-0.041c-0.238,0-0.453,0.035-0.645,0.105
			c-0.191,0.07-0.36,0.169-0.507,0.296c-0.146,0.127-0.27,0.277-0.369,0.451c-0.1,0.174-0.179,0.366-0.237,0.577v4.354h-0.697v-6.34
			h0.686l0.012,1.008c0.172-0.348,0.405-0.622,0.7-0.823c0.295-0.201,0.657-0.302,1.087-0.302c0.086,0,0.174,0.008,0.264,0.023
			c0.09,0.016,0.156,0.033,0.199,0.053L119.624,277.895z"/>
		<path fill="#040000" d="M120.69,275.464c0-0.133,0.043-0.245,0.129-0.337c0.086-0.092,0.203-0.138,0.352-0.138
			s0.267,0.046,0.354,0.138s0.132,0.204,0.132,0.337c0,0.133-0.044,0.244-0.132,0.334c-0.088,0.09-0.206,0.135-0.354,0.135
			s-0.266-0.045-0.352-0.135C120.733,275.708,120.69,275.596,120.69,275.464z M121.517,283.638h-0.703v-6.34h0.703V283.638z"/>
		<path fill="#040000" d="M124.511,275.675v1.623h1.313v0.574h-1.313v4.225c0,0.223,0.023,0.401,0.067,0.536
			c0.045,0.135,0.105,0.24,0.182,0.316c0.076,0.076,0.164,0.127,0.264,0.152c0.1,0.025,0.204,0.038,0.313,0.038
			c0.105,0,0.207-0.007,0.305-0.021c0.098-0.014,0.186-0.026,0.264-0.038l0.029,0.574c-0.086,0.031-0.198,0.056-0.337,0.073
			c-0.139,0.018-0.276,0.026-0.413,0.026c-0.199,0-0.384-0.026-0.554-0.079c-0.17-0.053-0.315-0.143-0.437-0.272
			c-0.121-0.129-0.216-0.3-0.284-0.513c-0.068-0.213-0.103-0.478-0.103-0.794v-4.225h-1.166v-0.574h1.166v-1.623H124.511z"/>
		<path fill="#040000" d="M129.286,282.63l1.852-5.332h0.756l-2.684,7.354c-0.055,0.145-0.124,0.307-0.208,0.486
			c-0.084,0.18-0.193,0.348-0.328,0.504c-0.135,0.156-0.303,0.288-0.504,0.396c-0.201,0.108-0.446,0.161-0.735,0.161
			c-0.039,0-0.084-0.003-0.135-0.009c-0.051-0.006-0.102-0.013-0.152-0.021c-0.051-0.008-0.099-0.017-0.144-0.026
			s-0.081-0.018-0.108-0.026l-0.006-0.58c0.047,0.008,0.11,0.016,0.19,0.023c0.08,0.008,0.138,0.012,0.173,0.012
			c0.188,0,0.354-0.024,0.498-0.073c0.145-0.049,0.271-0.121,0.378-0.217c0.107-0.096,0.202-0.216,0.284-0.36
			c0.082-0.145,0.156-0.311,0.223-0.498l0.305-0.838l-2.391-6.287h0.768L129.286,282.63z"/>
	</g>
</g>
<g>
	<g>
		<path fill="#040000" d="M159.712,234.907c0,0.477-0.054,0.912-0.161,1.307c-0.107,0.395-0.265,0.733-0.472,1.017
			s-0.46,0.504-0.759,0.662c-0.299,0.158-0.64,0.237-1.022,0.237c-0.453,0-0.845-0.081-1.175-0.243
			c-0.33-0.162-0.603-0.386-0.817-0.671v3.234h-0.697v-8.777h0.65l0.035,0.896c0.215-0.316,0.486-0.564,0.814-0.744
			s0.719-0.27,1.172-0.27c0.387,0,0.731,0.076,1.034,0.229c0.303,0.152,0.558,0.369,0.765,0.65c0.207,0.281,0.364,0.62,0.472,1.017
			c0.107,0.396,0.161,0.841,0.161,1.333V234.907z M159.009,234.784c0-0.367-0.038-0.711-0.114-1.031
			c-0.076-0.32-0.191-0.598-0.346-0.832c-0.154-0.234-0.351-0.419-0.589-0.554c-0.238-0.135-0.518-0.202-0.838-0.202
			c-0.254,0-0.479,0.033-0.674,0.1c-0.195,0.066-0.366,0.155-0.513,0.267c-0.146,0.111-0.271,0.24-0.375,0.387
			c-0.104,0.146-0.188,0.3-0.255,0.46v3.041c0.074,0.16,0.167,0.309,0.278,0.445s0.242,0.255,0.393,0.354
			c0.15,0.1,0.321,0.178,0.513,0.234c0.191,0.057,0.406,0.085,0.645,0.085c0.32,0,0.598-0.067,0.832-0.202
			c0.234-0.135,0.429-0.32,0.583-0.557c0.154-0.236,0.27-0.515,0.346-0.835c0.076-0.32,0.114-0.666,0.114-1.037V234.784z"/>
		<path fill="#040000" d="M164.194,232.27c-0.148-0.027-0.307-0.041-0.475-0.041c-0.238,0-0.453,0.035-0.645,0.106
			c-0.191,0.07-0.36,0.169-0.507,0.296c-0.146,0.127-0.27,0.277-0.369,0.451c-0.1,0.174-0.179,0.366-0.237,0.577v4.354h-0.697v-6.34
			h0.686l0.012,1.008c0.172-0.348,0.405-0.622,0.7-0.823c0.295-0.201,0.657-0.302,1.087-0.302c0.086,0,0.174,0.008,0.264,0.023
			c0.09,0.016,0.156,0.033,0.199,0.053L164.194,232.27z"/>
		<path fill="#040000" d="M169.069,238.012c-0.039-0.109-0.069-0.243-0.091-0.401c-0.021-0.158-0.036-0.319-0.044-0.483
			c-0.105,0.137-0.23,0.266-0.375,0.387c-0.145,0.121-0.307,0.227-0.486,0.316c-0.18,0.09-0.377,0.162-0.592,0.217
			c-0.215,0.055-0.447,0.082-0.697,0.082c-0.309,0-0.589-0.045-0.841-0.135c-0.252-0.09-0.467-0.216-0.645-0.378
			c-0.178-0.162-0.315-0.353-0.413-0.571c-0.098-0.219-0.146-0.457-0.146-0.715c0-0.309,0.066-0.587,0.199-0.835
			c0.133-0.248,0.324-0.459,0.574-0.633s0.554-0.307,0.911-0.398c0.357-0.092,0.759-0.138,1.204-0.138h1.301v-0.721
			c0-0.453-0.14-0.81-0.419-1.069c-0.279-0.26-0.687-0.39-1.222-0.39c-0.246,0-0.473,0.033-0.68,0.1s-0.386,0.158-0.536,0.275
			c-0.15,0.117-0.268,0.253-0.352,0.407s-0.126,0.319-0.126,0.495l-0.703-0.006c0-0.238,0.059-0.469,0.176-0.691
			c0.117-0.223,0.282-0.421,0.495-0.595c0.213-0.174,0.469-0.313,0.768-0.419c0.299-0.105,0.63-0.158,0.993-0.158
			c0.336,0,0.646,0.043,0.929,0.129c0.283,0.086,0.526,0.215,0.729,0.387c0.203,0.172,0.361,0.387,0.475,0.645
			c0.113,0.258,0.17,0.559,0.17,0.902v3.07c0,0.109,0.004,0.223,0.012,0.34c0.008,0.117,0.021,0.23,0.038,0.34
			c0.018,0.109,0.038,0.214,0.062,0.314c0.023,0.1,0.051,0.186,0.082,0.261v0.07H169.069z M166.866,237.509
			c0.254,0,0.489-0.032,0.706-0.097c0.217-0.064,0.413-0.153,0.589-0.267c0.176-0.113,0.328-0.245,0.457-0.395
			c0.129-0.15,0.232-0.313,0.311-0.489v-1.395h-1.201c-0.359,0-0.681,0.032-0.964,0.097c-0.283,0.064-0.523,0.157-0.718,0.278
			c-0.195,0.121-0.345,0.269-0.448,0.442c-0.104,0.174-0.155,0.37-0.155,0.589c0,0.172,0.033,0.333,0.1,0.483
			c0.066,0.15,0.161,0.281,0.284,0.393c0.123,0.111,0.272,0.199,0.448,0.264C166.45,237.476,166.648,237.509,166.866,237.509z"/>
		<path fill="#040000" d="M171.214,234.784c0-0.492,0.056-0.936,0.167-1.333c0.111-0.396,0.272-0.735,0.483-1.017
			c0.211-0.281,0.468-0.498,0.77-0.65c0.303-0.152,0.646-0.229,1.028-0.229c0.453,0,0.842,0.091,1.166,0.273
			c0.324,0.182,0.592,0.434,0.803,0.759l0.035-0.914h0.656v6.229c0,0.41-0.061,0.778-0.182,1.105
			c-0.121,0.326-0.292,0.602-0.513,0.829c-0.221,0.227-0.487,0.4-0.8,0.521c-0.313,0.121-0.662,0.182-1.049,0.182
			c-0.199,0-0.402-0.022-0.609-0.067c-0.207-0.045-0.407-0.112-0.601-0.202c-0.193-0.09-0.376-0.202-0.548-0.337
			c-0.172-0.135-0.322-0.294-0.451-0.478l0.393-0.422c0.258,0.316,0.531,0.548,0.82,0.694c0.289,0.146,0.605,0.22,0.949,0.22
			c0.301,0,0.567-0.046,0.8-0.138c0.232-0.092,0.429-0.225,0.589-0.398c0.16-0.174,0.282-0.385,0.366-0.633
			c0.084-0.248,0.126-0.53,0.126-0.847v-0.738c-0.211,0.293-0.479,0.523-0.803,0.689c-0.324,0.166-0.711,0.249-1.16,0.249
			c-0.379,0-0.719-0.079-1.02-0.237c-0.301-0.158-0.557-0.379-0.768-0.662c-0.211-0.283-0.372-0.622-0.483-1.017
			c-0.111-0.395-0.167-0.83-0.167-1.307V234.784z M171.923,234.907c0,0.371,0.037,0.716,0.111,1.034
			c0.074,0.318,0.188,0.595,0.34,0.829c0.152,0.234,0.345,0.418,0.577,0.551c0.232,0.133,0.509,0.199,0.829,0.199
			c0.242,0,0.46-0.029,0.653-0.088c0.193-0.059,0.364-0.14,0.513-0.243c0.148-0.104,0.277-0.226,0.387-0.366
			c0.109-0.141,0.203-0.295,0.281-0.463v-2.947c-0.066-0.164-0.151-0.321-0.255-0.472c-0.104-0.15-0.229-0.283-0.375-0.398
			s-0.317-0.207-0.513-0.275c-0.195-0.068-0.422-0.102-0.68-0.102c-0.324,0-0.604,0.067-0.838,0.202s-0.428,0.319-0.58,0.554
			c-0.152,0.234-0.266,0.512-0.34,0.832c-0.074,0.32-0.111,0.664-0.111,1.031V234.907z"/>
		<path fill="#040000" d="M178.79,231.673l0.024,1.031c0.105-0.172,0.227-0.329,0.366-0.472c0.139-0.143,0.294-0.264,0.466-0.363
			c0.172-0.1,0.359-0.177,0.563-0.232c0.203-0.055,0.422-0.082,0.656-0.082c0.465,0,0.863,0.098,1.195,0.293
			c0.332,0.195,0.568,0.508,0.709,0.938c0.102-0.176,0.224-0.339,0.366-0.489c0.143-0.15,0.305-0.28,0.486-0.39
			c0.182-0.109,0.382-0.195,0.601-0.258c0.219-0.063,0.455-0.094,0.709-0.094c0.328,0,0.621,0.044,0.879,0.132
			s0.476,0.227,0.653,0.416c0.178,0.189,0.313,0.431,0.407,0.724c0.094,0.293,0.141,0.645,0.141,1.055v4.131h-0.703v-4.137
			c0-0.336-0.037-0.614-0.111-0.835c-0.074-0.221-0.18-0.396-0.316-0.527c-0.137-0.131-0.3-0.222-0.489-0.273
			c-0.189-0.051-0.397-0.076-0.624-0.076c-0.297,0.004-0.557,0.058-0.779,0.161s-0.411,0.234-0.565,0.393
			c-0.154,0.158-0.274,0.335-0.36,0.53c-0.086,0.195-0.137,0.385-0.152,0.568v4.195h-0.703v-4.189c0-0.316-0.037-0.58-0.111-0.791
			c-0.074-0.211-0.18-0.381-0.316-0.51c-0.137-0.129-0.3-0.221-0.489-0.275c-0.189-0.055-0.399-0.082-0.63-0.082
			c-0.266,0-0.5,0.042-0.703,0.126c-0.203,0.084-0.38,0.196-0.53,0.337c-0.15,0.141-0.274,0.301-0.372,0.48
			c-0.098,0.18-0.176,0.365-0.234,0.557v4.348h-0.703v-6.34H178.79z"/>
		<path fill="#040000" d="M192.788,238.012c-0.039-0.109-0.069-0.243-0.091-0.401c-0.021-0.158-0.036-0.319-0.044-0.483
			c-0.105,0.137-0.23,0.266-0.375,0.387c-0.145,0.121-0.307,0.227-0.486,0.316c-0.18,0.09-0.377,0.162-0.592,0.217
			s-0.447,0.082-0.697,0.082c-0.309,0-0.589-0.045-0.841-0.135c-0.252-0.09-0.467-0.216-0.645-0.378
			c-0.178-0.162-0.315-0.353-0.413-0.571c-0.098-0.219-0.147-0.457-0.147-0.715c0-0.309,0.066-0.587,0.199-0.835
			c0.133-0.248,0.324-0.459,0.574-0.633s0.554-0.307,0.911-0.398c0.357-0.092,0.759-0.138,1.204-0.138h1.301v-0.721
			c0-0.453-0.14-0.81-0.419-1.069c-0.279-0.26-0.686-0.39-1.222-0.39c-0.246,0-0.473,0.033-0.68,0.1
			c-0.207,0.066-0.386,0.158-0.536,0.275c-0.15,0.117-0.268,0.253-0.352,0.407c-0.084,0.154-0.126,0.319-0.126,0.495l-0.703-0.006
			c0-0.238,0.059-0.469,0.176-0.691c0.117-0.223,0.282-0.421,0.495-0.595c0.213-0.174,0.469-0.313,0.768-0.419
			c0.299-0.105,0.63-0.158,0.993-0.158c0.336,0,0.645,0.043,0.929,0.129c0.283,0.086,0.526,0.215,0.729,0.387
			c0.203,0.172,0.361,0.387,0.475,0.645c0.113,0.258,0.17,0.559,0.17,0.902v3.07c0,0.109,0.004,0.223,0.012,0.34
			c0.008,0.117,0.021,0.23,0.038,0.34c0.018,0.109,0.038,0.214,0.062,0.314c0.023,0.1,0.051,0.186,0.082,0.261v0.07H192.788z
			 M190.585,237.509c0.254,0,0.489-0.032,0.706-0.097c0.217-0.064,0.413-0.153,0.589-0.267c0.176-0.113,0.328-0.245,0.457-0.395
			s0.232-0.313,0.311-0.489v-1.395h-1.201c-0.359,0-0.681,0.032-0.964,0.097c-0.283,0.064-0.522,0.157-0.718,0.278
			c-0.195,0.121-0.345,0.269-0.448,0.442c-0.104,0.174-0.155,0.37-0.155,0.589c0,0.172,0.033,0.333,0.1,0.483
			c0.066,0.15,0.161,0.281,0.284,0.393c0.123,0.111,0.272,0.199,0.448,0.264C190.169,237.476,190.366,237.509,190.585,237.509z"/>
		<path fill="#040000" d="M196.304,230.05v1.623h1.313v0.574h-1.313v4.225c0,0.223,0.023,0.401,0.067,0.536
			c0.045,0.135,0.105,0.24,0.182,0.316c0.076,0.076,0.164,0.127,0.264,0.152c0.1,0.025,0.204,0.038,0.313,0.038
			c0.105,0,0.207-0.007,0.305-0.02c0.098-0.014,0.186-0.026,0.264-0.038l0.029,0.574c-0.086,0.031-0.198,0.056-0.337,0.073
			c-0.139,0.018-0.276,0.026-0.413,0.026c-0.199,0-0.384-0.026-0.554-0.079c-0.17-0.053-0.315-0.143-0.436-0.272
			c-0.121-0.129-0.216-0.3-0.284-0.513c-0.068-0.213-0.102-0.478-0.102-0.794v-4.225h-1.166v-0.574h1.166v-1.623H196.304z"/>
		<path fill="#040000" d="M199.028,229.839c0-0.133,0.043-0.245,0.129-0.337c0.086-0.092,0.203-0.138,0.352-0.138
			c0.148,0,0.267,0.046,0.354,0.138c0.088,0.092,0.132,0.204,0.132,0.337s-0.044,0.244-0.132,0.334
			c-0.088,0.09-0.206,0.135-0.354,0.135c-0.148,0-0.266-0.045-0.352-0.135C199.071,230.083,199.028,229.971,199.028,229.839z
			 M199.855,238.012h-0.703v-6.34h0.703V238.012z"/>
		<path fill="#040000" d="M204.102,237.538c0.223,0,0.437-0.032,0.642-0.097c0.205-0.064,0.388-0.159,0.548-0.284
			c0.16-0.125,0.292-0.279,0.395-0.463c0.104-0.184,0.163-0.396,0.179-0.639h0.674c-0.016,0.301-0.091,0.578-0.225,0.832
			c-0.135,0.254-0.313,0.473-0.533,0.656c-0.221,0.184-0.476,0.327-0.765,0.431c-0.289,0.104-0.594,0.155-0.914,0.155
			c-0.445,0-0.836-0.081-1.172-0.243c-0.336-0.162-0.618-0.386-0.847-0.671c-0.229-0.285-0.4-0.62-0.516-1.005
			c-0.115-0.385-0.173-0.8-0.173-1.245v-0.246c0-0.445,0.058-0.86,0.173-1.245c0.115-0.385,0.286-0.719,0.513-1.002
			c0.227-0.283,0.509-0.507,0.847-0.671c0.338-0.164,0.728-0.246,1.169-0.246c0.34,0,0.655,0.053,0.946,0.158
			s0.545,0.256,0.762,0.451s0.39,0.433,0.518,0.712c0.129,0.279,0.201,0.591,0.217,0.935h-0.674
			c-0.016-0.258-0.071-0.488-0.167-0.691c-0.096-0.203-0.223-0.377-0.381-0.521c-0.158-0.145-0.342-0.255-0.551-0.331
			c-0.209-0.076-0.433-0.114-0.671-0.114c-0.363,0-0.671,0.07-0.923,0.211c-0.252,0.141-0.458,0.33-0.618,0.568
			c-0.16,0.238-0.276,0.512-0.349,0.82c-0.072,0.309-0.108,0.631-0.108,0.967v0.246c0,0.34,0.036,0.665,0.108,0.976
			c0.072,0.311,0.188,0.584,0.346,0.82c0.158,0.236,0.365,0.425,0.621,0.565C203.43,237.468,203.739,237.538,204.102,237.538z"/>
	</g>
</g>
<g>
	<path fill="#040000" d="M235.538,164.874c0-0.492,0.056-0.937,0.167-1.333c0.111-0.396,0.272-0.735,0.483-1.017
		c0.211-0.281,0.468-0.498,0.77-0.65c0.303-0.152,0.646-0.229,1.028-0.229c0.453,0,0.842,0.091,1.166,0.273
		c0.324,0.182,0.592,0.435,0.803,0.759l0.035-0.914h0.656v6.229c0,0.41-0.061,0.778-0.182,1.105
		c-0.121,0.326-0.292,0.603-0.513,0.829c-0.221,0.227-0.487,0.4-0.8,0.521c-0.313,0.121-0.662,0.182-1.049,0.182
		c-0.199,0-0.402-0.023-0.609-0.067c-0.207-0.045-0.407-0.112-0.601-0.202c-0.193-0.09-0.376-0.202-0.548-0.337
		c-0.172-0.135-0.322-0.294-0.451-0.477l0.393-0.422c0.258,0.316,0.531,0.548,0.82,0.694c0.289,0.146,0.605,0.22,0.949,0.22
		c0.301,0,0.567-0.046,0.8-0.138c0.232-0.092,0.429-0.225,0.589-0.398c0.16-0.174,0.282-0.385,0.366-0.633
		c0.084-0.248,0.126-0.53,0.126-0.847v-0.738c-0.211,0.293-0.479,0.522-0.803,0.688c-0.324,0.166-0.711,0.249-1.16,0.249
		c-0.379,0-0.719-0.079-1.02-0.237c-0.301-0.158-0.557-0.379-0.768-0.662c-0.211-0.283-0.372-0.622-0.483-1.017
		c-0.111-0.395-0.167-0.83-0.167-1.307V164.874z M236.247,164.997c0,0.371,0.037,0.716,0.111,1.034
		c0.074,0.318,0.188,0.595,0.34,0.829c0.152,0.234,0.345,0.418,0.577,0.551c0.232,0.133,0.509,0.199,0.829,0.199
		c0.242,0,0.46-0.029,0.653-0.088c0.193-0.059,0.364-0.14,0.513-0.243c0.148-0.104,0.277-0.226,0.387-0.366
		c0.109-0.141,0.203-0.295,0.281-0.463v-2.947c-0.066-0.164-0.151-0.321-0.255-0.472c-0.104-0.15-0.229-0.283-0.375-0.398
		c-0.146-0.115-0.317-0.207-0.513-0.275c-0.195-0.068-0.422-0.103-0.68-0.103c-0.324,0-0.604,0.067-0.838,0.202
		c-0.234,0.135-0.428,0.319-0.58,0.554c-0.152,0.234-0.266,0.512-0.34,0.832s-0.111,0.664-0.111,1.031V164.997z"/>
	<path fill="#040000" d="M245.405,162.36c-0.148-0.027-0.307-0.041-0.475-0.041c-0.238,0-0.453,0.035-0.645,0.105
		c-0.191,0.07-0.36,0.169-0.507,0.296c-0.146,0.127-0.27,0.277-0.369,0.451c-0.1,0.174-0.179,0.366-0.237,0.577v4.354h-0.697v-6.34
		h0.686l0.012,1.008c0.172-0.348,0.405-0.622,0.7-0.823c0.295-0.201,0.657-0.302,1.087-0.302c0.086,0,0.174,0.008,0.264,0.024
		c0.09,0.016,0.156,0.033,0.199,0.053L245.405,162.36z"/>
	<path fill="#040000" d="M246.009,164.839c0-0.461,0.067-0.887,0.202-1.277c0.135-0.391,0.325-0.728,0.571-1.011
		c0.246-0.283,0.543-0.505,0.891-0.665c0.348-0.16,0.734-0.24,1.16-0.24c0.434,0,0.825,0.08,1.175,0.24
		c0.35,0.16,0.648,0.382,0.894,0.665c0.246,0.283,0.436,0.62,0.568,1.011c0.133,0.391,0.199,0.816,0.199,1.277v0.193
		c0,0.461-0.066,0.887-0.199,1.277s-0.322,0.727-0.568,1.011c-0.246,0.283-0.543,0.504-0.891,0.662
		c-0.348,0.158-0.736,0.237-1.166,0.237s-0.818-0.079-1.166-0.237c-0.348-0.158-0.645-0.379-0.893-0.662
		c-0.248-0.283-0.439-0.62-0.574-1.011c-0.135-0.391-0.202-0.816-0.202-1.277V164.839z M246.712,165.032
		c0,0.348,0.047,0.679,0.141,0.993c0.094,0.314,0.23,0.59,0.41,0.826c0.18,0.236,0.402,0.425,0.668,0.565
		c0.266,0.141,0.57,0.211,0.914,0.211c0.344,0,0.648-0.07,0.911-0.211c0.264-0.141,0.485-0.329,0.665-0.565
		c0.18-0.236,0.316-0.512,0.41-0.826c0.094-0.314,0.141-0.646,0.141-0.993v-0.193c0-0.34-0.047-0.667-0.141-0.981
		c-0.094-0.314-0.23-0.591-0.41-0.829c-0.18-0.238-0.403-0.429-0.671-0.571c-0.268-0.143-0.573-0.214-0.917-0.214
		c-0.34,0-0.642,0.071-0.905,0.214c-0.264,0.143-0.485,0.333-0.665,0.571c-0.18,0.238-0.316,0.515-0.41,0.829
		c-0.094,0.314-0.141,0.642-0.141,0.981V165.032z"/>
	<path fill="#040000" d="M254.634,166.643l0.105,0.545l0.141-0.574l1.523-4.852h0.598l1.506,4.811l0.164,0.668l0.135-0.615
		l1.301-4.863h0.727l-1.846,6.34h-0.598l-1.629-5.027l-0.076-0.346l-0.076,0.352l-1.6,5.021h-0.598l-1.84-6.34h0.721
		L254.634,166.643z"/>
	<path fill="#040000" d="M262.122,159.928c0-0.133,0.043-0.245,0.129-0.337c0.086-0.092,0.203-0.138,0.352-0.138
		c0.148,0,0.267,0.046,0.354,0.138s0.132,0.204,0.132,0.337c0,0.133-0.044,0.244-0.132,0.334c-0.088,0.09-0.206,0.135-0.354,0.135
		c-0.148,0-0.266-0.045-0.352-0.135C262.165,160.173,262.122,160.061,262.122,159.928z M262.948,168.102h-0.703v-6.34h0.703V168.102
		z"/>
	<path fill="#040000" d="M265.521,161.762l0.023,1.084c0.109-0.18,0.235-0.344,0.378-0.492c0.143-0.148,0.302-0.275,0.478-0.381
		c0.176-0.105,0.365-0.187,0.568-0.243c0.203-0.057,0.418-0.085,0.645-0.085c0.316,0,0.6,0.043,0.85,0.129
		c0.25,0.086,0.462,0.223,0.636,0.41c0.174,0.188,0.307,0.429,0.398,0.724c0.092,0.295,0.138,0.651,0.138,1.069v4.125h-0.697v-4.131
		c0-0.328-0.035-0.602-0.105-0.82c-0.07-0.219-0.17-0.395-0.299-0.527c-0.129-0.133-0.286-0.228-0.472-0.284
		c-0.185-0.057-0.392-0.085-0.618-0.085c-0.25,0-0.477,0.042-0.68,0.126s-0.383,0.196-0.539,0.337
		c-0.156,0.141-0.291,0.302-0.404,0.483c-0.113,0.182-0.203,0.368-0.27,0.56v4.342h-0.697v-6.34H265.521z"/>
	<path fill="#040000" d="M271.163,164.874c0-0.492,0.056-0.937,0.167-1.333c0.111-0.396,0.272-0.735,0.483-1.017
		c0.211-0.281,0.468-0.498,0.771-0.65c0.303-0.152,0.645-0.229,1.028-0.229c0.453,0,0.842,0.091,1.166,0.273
		c0.324,0.182,0.592,0.435,0.803,0.759l0.035-0.914h0.656v6.229c0,0.41-0.061,0.778-0.182,1.105
		c-0.121,0.326-0.292,0.603-0.513,0.829c-0.221,0.227-0.487,0.4-0.8,0.521c-0.313,0.121-0.662,0.182-1.049,0.182
		c-0.199,0-0.402-0.023-0.609-0.067c-0.207-0.045-0.407-0.112-0.601-0.202c-0.193-0.09-0.376-0.202-0.548-0.337
		c-0.172-0.135-0.322-0.294-0.451-0.477l0.393-0.422c0.258,0.316,0.531,0.548,0.82,0.694s0.605,0.22,0.949,0.22
		c0.301,0,0.567-0.046,0.8-0.138c0.232-0.092,0.429-0.225,0.589-0.398c0.16-0.174,0.282-0.385,0.366-0.633
		c0.084-0.248,0.126-0.53,0.126-0.847v-0.738c-0.211,0.293-0.479,0.522-0.803,0.688c-0.324,0.166-0.711,0.249-1.16,0.249
		c-0.379,0-0.719-0.079-1.02-0.237c-0.301-0.158-0.557-0.379-0.768-0.662c-0.211-0.283-0.372-0.622-0.483-1.017
		c-0.111-0.395-0.167-0.83-0.167-1.307V164.874z M271.872,164.997c0,0.371,0.037,0.716,0.111,1.034
		c0.074,0.318,0.188,0.595,0.34,0.829c0.152,0.234,0.345,0.418,0.577,0.551c0.232,0.133,0.509,0.199,0.829,0.199
		c0.242,0,0.46-0.029,0.653-0.088c0.193-0.059,0.364-0.14,0.513-0.243s0.277-0.226,0.387-0.366c0.109-0.141,0.203-0.295,0.281-0.463
		v-2.947c-0.066-0.164-0.151-0.321-0.255-0.472c-0.103-0.15-0.228-0.283-0.375-0.398c-0.146-0.115-0.317-0.207-0.513-0.275
		c-0.195-0.068-0.422-0.103-0.68-0.103c-0.324,0-0.604,0.067-0.838,0.202c-0.234,0.135-0.428,0.319-0.58,0.554
		c-0.152,0.234-0.266,0.512-0.34,0.832s-0.111,0.664-0.111,1.031V164.997z"/>
</g>
</svg>
