<?xml version="1.0" encoding="utf-8"?>
<!-- Generator: Adobe Illustrator 17.0.0, SVG Export Plug-In . SVG Version: 6.00 Build 0)  -->
<!DOCTYPE svg PUBLIC "-//W3C//DTD SVG 1.1//EN" "http://www.w3.org/Graphics/SVG/1.1/DTD/svg11.dtd">
<svg version="1.1" id="圖層_1" xmlns="http://www.w3.org/2000/svg" xmlns:xlink="http://www.w3.org/1999/xlink" x="0px" y="0px"
	 width="1011.949px" height="455.477px" viewBox="0 0 1011.949 455.477" enable-background="new 0 0 1011.949 455.477"
	 xml:space="preserve">
<g>
	<path fill="none" stroke="#24B1DA" stroke-width="3" stroke-miterlimit="10" d="M419.471,434.398c0,0,394.141-19,574.07-412"/>
	<circle fill="#24B1DA" stroke="#FFFFFF" stroke-miterlimit="10" cx="613.971" cy="383.898" r="16.5"/>
	<circle fill="#24B1DA" stroke="#FFFFFF" stroke-miterlimit="10" cx="780.971" cy="291.898" r="16.5"/>
	<circle fill="#24B1DA" stroke="#FFFFFF" stroke-miterlimit="10" cx="922.971" cy="142.898" r="16.5"/>
	<g>
		<g>
			<path fill="#040000" d="M587.871,333.945h-6.795v-1.156h2.954c-0.21-0.742-0.524-1.461-0.943-2.156l1.078-0.416
				c0.457,0.756,0.839,1.613,1.146,2.572h2.56V333.945z M587.389,337.302h-5.807v-1.201h5.807V337.302z M587.389,340.571h-5.807
				v-1.157h5.807V340.571z M587.018,349.904h-1.18v-1.247h-2.941v1.797h-1.147v-7.704h5.268V349.904z M585.838,347.534v-3.604
				h-2.941v3.604H585.838z M601.022,346.041c-0.149,1.407-0.385,2.502-0.707,3.284c-0.322,0.782-0.786,1.174-1.393,1.174
				c-1.086,0-1.913-1.325-2.482-3.976c-0.905,1.183-2.032,2.324-3.38,3.426l-0.798-0.922c1.715-1.377,3.01-2.717,3.887-4.02
				c-0.42-3.033-0.697-6.293-0.832-9.782h-5.087v2.897h3.706c0.022,2.193,0.021,3.947-0.006,5.262
				c-0.026,1.314-0.084,2.118-0.174,2.414c-0.09,0.296-0.281,0.537-0.572,0.725c-0.293,0.188-0.771,0.281-1.438,0.281
				c-0.248,0-0.498-0.02-0.753-0.057l-0.28-1.168c0.225,0.015,0.692,0.023,1.403,0.023c0.374,0,0.586-0.304,0.635-0.909
				c0.049-0.607,0.061-2.419,0.039-5.435h-2.561c-0.015,4.844-0.472,8.538-1.37,11.084l-1.135-0.527
				c0.906-2.74,1.359-6.192,1.359-10.355v-5.379h6.211c-0.03-0.629-0.045-1.815-0.045-3.56h1.145l0.068,3.56h4.559v1.146h-4.503
				c0.053,2.755,0.266,5.44,0.64,8.052c0.951-1.812,1.711-3.788,2.28-5.93l1.078,0.618c-0.778,2.62-1.823,5.027-3.134,7.222
				c0.18,1.115,0.398,2.01,0.652,2.684c0.254,0.674,0.421,1.058,0.499,1.151c0.079,0.094,0.182,0.14,0.31,0.14
				c0.135,0,0.241-0.046,0.319-0.14c0.079-0.094,0.202-0.534,0.371-1.319c0.168-0.787,0.29-1.531,0.364-2.235L601.022,346.041z
				 M600.405,333.047l-1.066,0.641c-0.33-0.734-0.813-1.494-1.449-2.28l0.876-0.595
				C599.461,331.531,600.008,332.275,600.405,333.047z"/>
			<path fill="#040000" d="M609.85,330.879c-0.218,0.697-0.539,1.554-0.967,2.572l-0.64,1.482v15.734h-1.168v-13.455
				c-0.988,1.558-1.85,2.752-2.583,3.583l-0.617-1.101c2.118-2.561,3.735-5.638,4.852-9.232L609.85,330.879z M624,334.316h-14.174
				v-1.18h6.447c-0.12-0.539-0.465-1.291-1.033-2.258l1.123-0.438c0.486,0.839,0.868,1.737,1.144,2.695H624V334.316z
				 M622.922,337.674h-12.197v-1.135h12.197V337.674z M622.922,341.144h-12.197v-1.135h12.197V341.144z M622.551,350.689h-1.146
				V349.6h-9.232v1.089h-1.19v-7.198h11.567V350.689z M621.406,348.432v-3.796h-9.232v3.796H621.406z"/>
		</g>
	</g>
	<g>
		<g>
			<path fill="#040000" d="M872.489,109.126c-1.438,1.872-3.568,3.519-6.391,4.941h5.289v4.717h-4.603l-0.304,2.526h4.907
				c0,1.842-0.07,3.138-0.213,3.887c-0.143,0.748-0.347,1.276-0.612,1.583c-0.266,0.307-0.561,0.507-0.887,0.601
				c-0.326,0.094-1.241,0.141-2.746,0.141c-0.606,0-1.213-0.015-1.819-0.045l-0.281-1.19l3.863,0.067
				c0.569,0.022,0.965-0.241,1.186-0.792c0.221-0.55,0.323-1.589,0.309-3.116H865.2l0.483-4.784h4.549v-2.437h-4.414v-1.033
				c-0.756,0.359-1.482,0.662-2.178,0.909l-0.697-1.033c1.243-0.359,2.523-0.925,3.842-1.696c-0.502-0.501-1.206-0.999-2.111-1.493
				l0.64-0.876c1.011,0.584,1.846,1.172,2.505,1.764c1.407-0.906,2.451-1.786,3.133-2.64h-5.772v-1.146h7.312V109.126z
				 M882.821,126.746l-0.809,0.898c-1.303-1.055-2.677-2.04-4.122-2.953c-1.58,1.28-3.257,2.265-5.031,2.953l-0.831-0.898
				c1.43-0.464,3.063-1.362,4.896-2.695l-3.773-2.257l0.674-0.819h-1.011v-1.18h8.39c-0.539,1.595-1.359,2.977-2.46,4.145
				C879.926,124.605,881.286,125.541,882.821,126.746z M882.192,118.672h-2.505c-0.345,0-0.642-0.112-0.892-0.337
				c-0.251-0.225-0.376-0.528-0.376-0.909v-2.201h-2.854c-0.111,1.691-0.823,3.002-2.133,3.93l-0.988-0.809
				c1.369-0.898,2.051-2.324,2.043-4.278h5.088v3.044c0,0.27,0.168,0.404,0.506,0.404h2.111V118.672z M882.977,114l-0.55,1.033
				c-3.953-1.37-6.892-3.785-8.815-7.244l1.089-0.46c0.464,0.809,0.977,1.538,1.538,2.19c0.712-0.6,1.363-1.251,1.955-1.955
				l1.055,0.483c-0.621,0.801-1.366,1.576-2.234,2.325c0.614,0.644,1.131,1.093,1.55,1.348c0.943-0.689,1.763-1.4,2.46-2.135
				l0.943,0.618c-0.794,0.868-1.592,1.599-2.393,2.19C880.608,113.03,881.743,113.565,882.977,114z M879.485,120.974h-5.503
				c1.445,0.801,2.718,1.564,3.818,2.291C878.429,122.674,878.991,121.91,879.485,120.974z"/>
			<path fill="#040000" d="M905.405,120.142h-12.151v5.908c1.46-0.24,2.942-0.614,4.447-1.123l0.067,1.078
				c-1.819,0.621-3.736,1.142-5.75,1.561l-0.371-1.146c0.277-0.217,0.416-0.438,0.416-0.663v-5.615h-3.066
				c-0.546,3.303-1.373,5.811-2.481,7.525l-0.943-0.832c1.677-2.732,2.516-6.435,2.516-11.106v-7.749h16.093v4.964h-14.902v2.415
				h4.301v-1.584h1.247v1.584h4.941v-1.584h1.247v1.584h3.425v1.123h-3.425v2.537h4.391V120.142z M893.578,119.019v-2.537h-4.323
				c0,0.815-0.053,1.662-0.157,2.537H893.578z M902.911,111.765v-2.64h-13.634v2.64H902.911z M899.767,119.019v-2.537h-4.941v2.537
				H899.767z M906.573,126.51L906,127.644c-3.085-0.801-5.277-1.763-6.576-2.886c-1.299-1.123-2.229-2.265-2.791-3.425l1.18-0.314
				c0.711,1.168,1.501,2.111,2.369,2.83c1.102-0.697,2.111-1.603,3.033-2.719l0.965,0.742c-0.86,1.04-1.834,1.935-2.92,2.684
				C902.601,125.38,904.372,126.031,906.573,126.51z"/>
		</g>
	</g>
	<g>
		<g>
			<path fill="#040000" d="M729.817,252.336c-0.105,1.962-0.704,3.725-1.797,5.289l-0.876-0.83c0.659-0.996,1.119-2.101,1.382-3.313
				h-2.146v10.097c0,0.299-0.122,0.611-0.365,0.938c-0.243,0.325-0.862,0.488-1.858,0.488c-0.382,0-0.733-0.023-1.056-0.067
				l-0.674-1.235c0.974,0.075,1.733,0.112,2.28,0.112c0.111,0,0.232-0.056,0.359-0.169c0.127-0.111,0.19-0.225,0.19-0.336v-8.3
				c-1.115,2.815-2.28,5.013-3.493,6.593l-0.785-0.922c1.348-1.752,2.567-4.151,3.66-7.198h-3.57v-1.146h5.087
				c-0.958-1.101-2.138-2.134-3.538-3.1l0.843-0.764c0.547,0.374,1.239,0.91,2.077,1.605c1.064-1.213,1.906-2.369,2.527-3.47h-6.188
				v-1.145h7.502v1.145c-0.757,1.393-1.741,2.804-2.954,4.233l0.786,0.877l-0.707,0.617H729.817z M739.7,257.603
				c-0.045,1.564-0.168,2.976-0.371,4.233c-0.201,1.258-0.405,2.018-0.611,2.28c-0.206,0.262-0.465,0.488-0.775,0.679
				c-0.311,0.191-1.297,0.261-2.959,0.208l-0.551-1.235c0.473,0.037,0.985,0.056,1.539,0.056c0.839,0,1.338-0.041,1.499-0.123
				c0.161-0.082,0.286-0.204,0.376-0.365c0.09-0.161,0.195-0.668,0.314-1.522c0.12-0.853,0.229-1.875,0.326-3.066h-3.841
				c-0.644,2.958-2.546,5.069-5.705,6.334l-0.876-0.943c1.266-0.389,2.411-1.087,3.437-2.094c1.025-1.007,1.681-2.105,1.966-3.297
				h-3.65v-1.145h3.931c0.112-0.607,0.18-1.374,0.202-2.303l1.156,0.045c0,0.561-0.063,1.314-0.19,2.258H739.7z M741.059,254.818
				l-0.663,1.033c-1.767-0.524-3.418-1.345-4.952-2.46c-1.438,1.063-2.909,1.868-4.414,2.415l-0.809-0.988
				c1.445-0.434,2.871-1.161,4.279-2.18c-0.943-0.943-1.633-1.797-2.066-2.561l1.01-0.572c0.524,0.906,1.176,1.703,1.955,2.393
				c1.048-0.898,1.86-2.135,2.437-3.707h-4.919c-0.98,1.243-1.879,2.186-2.695,2.83l-0.887-0.819
				c1.707-1.348,3.148-3.152,4.323-5.413l1.146,0.438c-0.277,0.569-0.637,1.176-1.078,1.82h6.985v1.145h-1.628
				c-0.6,1.782-1.506,3.258-2.719,4.426C737.78,253.612,739.344,254.345,741.059,254.818z"/>
			<path fill="#040000" d="M764.104,251.505h-3.662l-0.201,2.325h-12.837l0.214-2.325h-3.527v-0.876h3.639l0.248-2.224h12.791
				l-0.225,2.224h3.56V251.505z M761.184,261.926h-9.31l0.506,0.719c-2.509,1.333-4.986,2.145-7.436,2.436l-0.685-1.066
				c2.538-0.27,4.945-0.966,7.222-2.089h-4.436v-6.918h14.14V261.926z M763.25,249.348h-1.168v-2.167h-15.959v2.077h-1.18v-3.066
				h8.514c-0.188-0.39-0.386-0.719-0.596-0.988l1.101-0.394c0.194,0.284,0.464,0.745,0.809,1.382h8.479V249.348z M760.016,257.008
				v-1.056h-11.871v1.056H760.016z M760.016,259.007v-1.078h-11.871v1.078H760.016z M760.016,261.006v-1.078h-11.871v1.078H760.016z
				 M753.412,251.505h-4.605l-0.135,1.382h4.627L753.412,251.505z M753.637,249.326h-4.616l-0.146,1.303h4.648L753.637,249.326z
				 M759.252,251.505h-4.65l-0.111,1.382h4.648L759.252,251.505z M759.51,249.326h-4.672l-0.112,1.303h4.661L759.51,249.326z
				 M763.8,264.06l-0.449,1c-1.991-0.742-4.537-1.31-7.637-1.707l0.483-0.922C759.312,262.829,761.846,263.372,763.8,264.06z"/>
		</g>
	</g>
</g>
<g>
	<path fill="#24B1DA" d="M51.879,143.119c0,2.559-0.334,4.871-1.003,6.936c-0.669,2.065-1.618,3.825-2.847,5.279
		c-1.229,1.455-2.722,2.58-4.477,3.374c-1.756,0.794-3.712,1.191-5.87,1.191c-2.141,0-4.084-0.398-5.832-1.191
		c-1.747-0.794-3.248-1.919-4.502-3.374c-1.254-1.454-2.224-3.214-2.91-5.279c-0.686-2.064-1.028-4.377-1.028-6.936v-3.912
		c0-2.559,0.343-4.875,1.028-6.949c0.685-2.072,1.647-3.841,2.885-5.305c1.237-1.463,2.729-2.592,4.477-3.386
		c1.747-0.794,3.691-1.191,5.832-1.191c2.157,0,4.113,0.397,5.869,1.191c1.756,0.794,3.256,1.923,4.502,3.386
		c1.245,1.464,2.203,3.232,2.872,5.305c0.669,2.074,1.003,4.391,1.003,6.949V143.119z M48.794,139.156
		c0-2.157-0.251-4.105-0.752-5.844c-0.502-1.739-1.229-3.215-2.182-4.428c-0.953-1.212-2.124-2.148-3.512-2.809
		c-1.388-0.66-2.96-0.991-4.715-0.991c-1.723,0-3.273,0.331-4.653,0.991c-1.38,0.66-2.55,1.597-3.512,2.809
		c-0.962,1.213-1.697,2.688-2.207,4.428c-0.51,1.738-0.765,3.686-0.765,5.844v3.963c0,2.174,0.259,4.131,0.777,5.869
		c0.518,1.74,1.262,3.22,2.232,4.439c0.97,1.221,2.144,2.158,3.524,2.81c1.38,0.652,2.931,0.979,4.653,0.979
		c1.772,0,3.349-0.326,4.728-0.979c1.38-0.651,2.542-1.589,3.487-2.81c0.944-1.22,1.664-2.699,2.157-4.439
		c0.493-1.738,0.74-3.695,0.74-5.869V139.156z"/>
	<path fill="#24B1DA" d="M84.812,122.877v24.758c0,2.057-0.338,3.85-1.016,5.38s-1.597,2.806-2.759,3.825s-2.525,1.785-4.088,2.295
		c-1.564,0.51-3.232,0.765-5.004,0.765c-1.823,0-3.516-0.255-5.079-0.765c-1.564-0.51-2.922-1.275-4.076-2.295
		c-1.154-1.02-2.057-2.295-2.709-3.825c-0.652-1.53-0.978-3.323-0.978-5.38v-24.758h3.06v24.758c0,1.604,0.242,3.01,0.727,4.213
		c0.484,1.205,1.162,2.207,2.031,3.01c0.87,0.803,1.902,1.41,3.098,1.818c1.195,0.41,2.504,0.615,3.925,0.615
		c1.421,0,2.729-0.205,3.925-0.615c1.195-0.408,2.224-1.016,3.085-1.818c0.861-0.803,1.534-1.805,2.019-3.01
		c0.485-1.203,0.727-2.608,0.727-4.213v-24.758H84.812z"/>
	<path fill="#24B1DA" d="M107.061,144.197h-10.61v15.201h-3.11v-36.521h11.864c1.907,0,3.624,0.234,5.155,0.703
		c1.53,0.469,2.834,1.158,3.913,2.069c1.079,0.911,1.907,2.036,2.483,3.374c0.577,1.338,0.865,2.875,0.865,4.615
		c0,1.203-0.184,2.336-0.552,3.398c-0.368,1.063-0.886,2.02-1.555,2.871c-0.669,0.854-1.467,1.59-2.396,2.208
		c-0.928,0.618-1.952,1.095-3.072,1.43l9.13,15.526v0.326h-3.286L107.061,144.197z M96.451,141.564h9.456
		c1.421,0,2.671-0.217,3.75-0.652c1.078-0.435,1.977-1.016,2.696-1.743c0.719-0.727,1.258-1.571,1.618-2.534
		c0.359-0.961,0.539-1.959,0.539-2.996c0-1.255-0.2-2.383-0.602-3.387c-0.401-1.004-0.999-1.855-1.793-2.559
		c-0.795-0.702-1.769-1.241-2.922-1.617c-1.154-0.377-2.483-0.564-3.988-0.564h-8.753V141.564z"/>
	<path fill="#24B1DA" d="M35.901,206.252l0.201,0.777l0.226-0.777l11.488-32.006h3.386l-13.595,36.521h-2.96l-13.595-36.521h3.361
		L35.901,206.252z"/>
	<path fill="#24B1DA" d="M60.331,210.767h-3.085v-36.521h3.085V210.767z"/>
	<path fill="#24B1DA" d="M90.908,201.787c0-1.003-0.163-1.894-0.489-2.671c-0.326-0.777-0.878-1.488-1.655-2.132
		c-0.777-0.643-1.802-1.233-3.073-1.768c-1.271-0.535-2.859-1.069-4.766-1.605c-1.839-0.519-3.495-1.082-4.966-1.692
		c-1.472-0.611-2.721-1.326-3.75-2.145c-1.028-0.82-1.823-1.765-2.383-2.835c-0.56-1.069-0.84-2.323-0.84-3.763
		c0-1.404,0.301-2.684,0.903-3.838c0.602-1.153,1.446-2.145,2.533-2.972c1.087-0.827,2.383-1.472,3.888-1.931
		c1.505-0.461,3.152-0.69,4.941-0.69c1.923,0,3.658,0.284,5.205,0.852c1.546,0.568,2.863,1.347,3.951,2.333
		c1.087,0.987,1.923,2.141,2.508,3.462c0.585,1.32,0.878,2.742,0.878,4.264h-3.11c0-1.188-0.21-2.287-0.627-3.299
		c-0.419-1.012-1.029-1.885-1.831-2.621c-0.803-0.735-1.79-1.313-2.96-1.73c-1.17-0.418-2.508-0.627-4.013-0.627
		c-1.505,0-2.831,0.18-3.976,0.539c-1.146,0.359-2.099,0.845-2.859,1.455c-0.761,0.61-1.338,1.325-1.731,2.145
		c-0.393,0.819-0.589,1.689-0.589,2.608c0,0.87,0.163,1.673,0.489,2.408c0.326,0.735,0.873,1.417,1.643,2.044
		c0.769,0.627,1.781,1.213,3.035,1.756c1.254,0.543,2.801,1.058,4.641,1.543c1.922,0.535,3.637,1.12,5.142,1.756
		c1.505,0.635,2.776,1.383,3.813,2.244c1.037,0.861,1.823,1.853,2.358,2.973c0.535,1.121,0.803,2.416,0.803,3.888
		c0,1.489-0.313,2.821-0.94,4.001c-0.628,1.179-1.497,2.178-2.609,2.997c-1.112,0.819-2.437,1.446-3.976,1.882
		c-1.539,0.434-3.211,0.651-5.017,0.651c-1.087,0-2.178-0.092-3.273-0.276c-1.096-0.184-2.149-0.463-3.161-0.84
		c-1.012-0.376-1.957-0.856-2.835-1.441c-0.878-0.586-1.639-1.283-2.282-2.096c-0.644-0.811-1.154-1.738-1.53-2.783
		c-0.376-1.045-0.564-2.211-0.564-3.5h3.085c0,1.539,0.317,2.84,0.953,3.9c0.635,1.063,1.455,1.92,2.458,2.572
		c1.004,0.651,2.132,1.124,3.386,1.416c1.254,0.293,2.508,0.439,3.762,0.439c1.421,0,2.713-0.163,3.876-0.489
		c1.162-0.326,2.157-0.79,2.985-1.392c0.828-0.603,1.463-1.325,1.906-2.17C90.686,203.765,90.908,202.824,90.908,201.787z"/>
	<path fill="#24B1DA" d="M104.427,210.767h-3.085v-36.521h3.085V210.767z"/>
	<path fill="#24B1DA" d="M141.324,194.488c0,2.559-0.334,4.871-1.003,6.936c-0.669,2.065-1.618,3.825-2.847,5.279
		c-1.229,1.455-2.722,2.58-4.477,3.374c-1.756,0.794-3.712,1.191-5.87,1.191c-2.141,0-4.084-0.397-5.832-1.191
		c-1.747-0.794-3.248-1.919-4.502-3.374c-1.254-1.454-2.224-3.214-2.91-5.279c-0.686-2.064-1.028-4.377-1.028-6.936v-3.912
		c0-2.559,0.343-4.875,1.028-6.949c0.686-2.072,1.647-3.841,2.885-5.305c1.237-1.463,2.729-2.592,4.477-3.386
		c1.747-0.794,3.691-1.191,5.832-1.191c2.157,0,4.113,0.397,5.869,1.191c1.756,0.794,3.256,1.923,4.502,3.386
		c1.245,1.464,2.203,3.232,2.872,5.305c0.669,2.074,1.003,4.391,1.003,6.949V194.488z M138.239,190.525
		c0-2.157-0.251-4.105-0.752-5.844c-0.502-1.739-1.229-3.215-2.182-4.428c-0.953-1.212-2.124-2.149-3.512-2.809
		c-1.388-0.66-2.96-0.991-4.715-0.991c-1.723,0-3.273,0.331-4.653,0.991c-1.38,0.66-2.55,1.597-3.512,2.809
		c-0.962,1.213-1.697,2.688-2.208,4.428c-0.51,1.738-0.765,3.687-0.765,5.844v3.963c0,2.174,0.259,4.131,0.777,5.869
		c0.518,1.74,1.262,3.22,2.232,4.439c0.97,1.221,2.145,2.158,3.524,2.81c1.38,0.652,2.931,0.979,4.653,0.979
		c1.772,0,3.349-0.326,4.728-0.979c1.38-0.651,2.542-1.589,3.487-2.81c0.944-1.22,1.664-2.699,2.157-4.439
		c0.493-1.738,0.74-3.695,0.74-5.869V190.525z"/>
	<path fill="#24B1DA" d="M176.288,210.767h-3.085l-20.994-31.254v31.254h-3.11v-36.521h3.11l21.019,31.279v-31.279h3.06V210.767z"/>
	<path fill="#24B1DA" d="M198.061,210.767v-36.521h10.208c2.274,0,4.368,0.394,6.283,1.18c1.914,0.786,3.562,1.906,4.941,3.361
		c1.379,1.455,2.454,3.202,3.223,5.242c0.769,2.04,1.154,4.314,1.154,6.822v3.336c0,2.508-0.385,4.783-1.154,6.822
		c-0.769,2.041-1.848,3.783-3.236,5.23c-1.388,1.445-3.052,2.563-4.991,3.348c-1.94,0.787-4.081,1.18-6.421,1.18H198.061z
		 M201.145,176.881v31.277h6.923c1.956,0,3.721-0.338,5.292-1.016c1.572-0.678,2.91-1.631,4.013-2.859
		c1.104-1.229,1.952-2.7,2.546-4.414c0.593-1.715,0.891-3.607,0.891-5.682v-3.411c0-2.106-0.301-4.017-0.903-5.731
		c-0.602-1.714-1.451-3.173-2.546-4.377c-1.096-1.204-2.413-2.136-3.951-2.797c-1.539-0.66-3.252-0.99-5.142-0.99H201.145z"/>
	<path fill="#24B1DA" d="M235.458,210.767h-3.085v-36.521h3.085V210.767z"/>
	<path fill="#24B1DA" d="M265.533,200.533h-16.58l-3.762,10.234h-3.236l13.821-36.521h2.935l13.82,36.521h-3.21L265.533,200.533z
		 M249.906,197.9h14.648l-7.324-19.891L249.906,197.9z"/>
	<path fill="#24B1DA" d="M303.984,206.427c-0.318,0.451-0.799,0.962-1.442,1.53c-0.644,0.568-1.48,1.095-2.508,1.58
		c-1.028,0.485-2.266,0.895-3.712,1.23c-1.447,0.334-3.123,0.501-5.029,0.501c-2.157,0-4.13-0.389-5.919-1.166
		c-1.79-0.778-3.332-1.89-4.628-3.336s-2.304-3.198-3.022-5.255c-0.719-2.057-1.078-4.364-1.078-6.923v-4.44
		c0-2.508,0.326-4.773,0.978-6.797c0.652-2.023,1.593-3.745,2.822-5.167c1.229-1.421,2.713-2.517,4.452-3.286
		c1.739-0.769,3.704-1.153,5.895-1.153c2.023,0,3.813,0.272,5.368,0.815s2.876,1.301,3.963,2.27
		c1.087,0.971,1.948,2.111,2.583,3.424c0.635,1.313,1.054,2.738,1.254,4.277h-3.085c-0.184-1.088-0.501-2.124-0.953-3.111
		c-0.451-0.986-1.079-1.852-1.881-2.596c-0.802-0.744-1.793-1.338-2.972-1.781c-1.179-0.442-2.596-0.664-4.251-0.664
		c-1.789,0-3.37,0.33-4.741,0.99c-1.371,0.661-2.529,1.59-3.474,2.785c-0.945,1.195-1.66,2.637-2.145,4.326
		c-0.485,1.69-0.728,3.562-0.728,5.619v4.489c0,2.141,0.276,4.075,0.828,5.807c0.552,1.73,1.333,3.206,2.345,4.427
		c1.012,1.221,2.228,2.166,3.649,2.834c1.421,0.67,3.001,1.004,4.741,1.004c1.405,0,2.642-0.104,3.712-0.313
		c1.07-0.209,1.998-0.472,2.784-0.79c0.786-0.317,1.434-0.66,1.944-1.028c0.51-0.368,0.898-0.719,1.167-1.054v-9.432h-9.808v-2.607
		h12.893V206.427z"/>
	<path fill="#24B1DA" d="M326.383,195.566h-10.61v15.201h-3.11v-36.521h11.864c1.907,0,3.624,0.234,5.155,0.703
		c1.53,0.469,2.834,1.158,3.913,2.069c1.079,0.911,1.907,2.036,2.483,3.374c0.577,1.338,0.865,2.875,0.865,4.615
		c0,1.203-0.184,2.336-0.552,3.398c-0.368,1.063-0.886,2.02-1.555,2.871c-0.669,0.854-1.467,1.59-2.395,2.208
		c-0.928,0.618-1.952,1.095-3.072,1.43l9.13,15.526v0.326h-3.286L326.383,195.566z M315.773,192.933h9.456
		c1.421,0,2.671-0.217,3.75-0.652c1.078-0.435,1.977-1.016,2.696-1.743c0.719-0.727,1.258-1.571,1.618-2.534
		c0.359-0.961,0.539-1.959,0.539-2.996c0-1.255-0.2-2.383-0.602-3.387c-0.401-1.004-1-1.855-1.794-2.559
		c-0.794-0.702-1.768-1.241-2.922-1.617c-1.154-0.377-2.483-0.564-3.988-0.564h-8.753V192.933z"/>
	<path fill="#24B1DA" d="M365.06,200.533h-16.579l-3.762,10.234h-3.236l13.821-36.521h2.935l13.82,36.521h-3.21L365.06,200.533z
		 M349.434,197.9h14.648l-7.324-19.891L349.434,197.9z"/>
	<path fill="#24B1DA" d="M381.515,174.246l13.469,32.232l13.52-32.232h4.113v36.521h-3.084v-15.953l0.25-16.254l-13.595,32.207
		h-2.383l-13.544-32.081l0.25,16.128v15.953h-3.085v-36.521H381.515z"/>
</g>
<g>
	<g>
		<path fill="#191919" d="M572.822,315.899h-1.081v-12.797h1.081V315.899z"/>
		<path fill="#191919" d="M577.049,306.389l0.035,1.626c0.164-0.27,0.352-0.516,0.566-0.738c0.214-0.223,0.453-0.413,0.717-0.571
			c0.264-0.158,0.548-0.279,0.853-0.365c0.305-0.084,0.627-0.127,0.967-0.127c0.475,0,0.899,0.064,1.274,0.193
			s0.692,0.334,0.953,0.615c0.261,0.281,0.46,0.644,0.598,1.086c0.138,0.442,0.207,0.977,0.207,1.604v6.188h-1.046v-6.196
			c0-0.492-0.053-0.902-0.158-1.23c-0.105-0.328-0.255-0.592-0.448-0.791c-0.193-0.199-0.43-0.341-0.707-0.427
			c-0.279-0.084-0.588-0.127-0.928-0.127c-0.375,0-0.715,0.064-1.02,0.189c-0.305,0.126-0.574,0.294-0.809,0.505
			c-0.234,0.211-0.437,0.452-0.606,0.726c-0.17,0.272-0.305,0.552-0.404,0.839v6.513h-1.046v-9.51H577.049z"/>
		<path fill="#191919" d="M587.57,303.955v2.435h1.969v0.861h-1.969v6.337c0,0.334,0.033,0.603,0.102,0.804
			c0.066,0.203,0.158,0.361,0.272,0.475c0.115,0.115,0.246,0.191,0.396,0.228c0.148,0.039,0.306,0.058,0.47,0.058
			c0.158,0,0.311-0.01,0.457-0.03c0.146-0.021,0.278-0.04,0.396-0.058l0.044,0.861c-0.129,0.047-0.298,0.083-0.505,0.11
			c-0.209,0.025-0.415,0.039-0.62,0.039c-0.299,0-0.575-0.039-0.831-0.119c-0.254-0.078-0.473-0.215-0.654-0.408
			c-0.182-0.193-0.324-0.449-0.426-0.77c-0.104-0.318-0.154-0.716-0.154-1.19v-6.337h-1.749v-0.861h1.749v-2.435H587.57z"/>
		<path fill="#191919" d="M595.401,316.075c-0.621,0-1.192-0.116-1.714-0.348c-0.521-0.23-0.971-0.553-1.35-0.967
			c-0.377-0.412-0.672-0.903-0.883-1.472c-0.211-0.568-0.316-1.192-0.316-1.872v-0.378c0-0.732,0.109-1.396,0.33-1.991
			c0.219-0.594,0.517-1.101,0.892-1.52c0.375-0.419,0.807-0.743,1.296-0.972c0.489-0.229,1.007-0.343,1.552-0.343
			c0.604,0,1.14,0.108,1.608,0.325c0.469,0.217,0.862,0.519,1.182,0.905c0.319,0.387,0.561,0.847,0.726,1.38
			c0.164,0.533,0.246,1.116,0.246,1.749v0.642h-6.785v0.202c0,0.521,0.079,1.013,0.237,1.473c0.158,0.46,0.381,0.859,0.668,1.199
			c0.287,0.34,0.63,0.608,1.028,0.805c0.398,0.196,0.841,0.294,1.327,0.294c0.563,0,1.059-0.103,1.49-0.308
			c0.43-0.205,0.821-0.533,1.173-0.984l0.659,0.501c-0.158,0.229-0.342,0.445-0.549,0.65c-0.209,0.205-0.45,0.384-0.726,0.536
			c-0.275,0.152-0.586,0.272-0.932,0.36S595.828,316.075,595.401,316.075z M595.207,307.11c-0.398,0-0.768,0.076-1.107,0.229
			c-0.34,0.152-0.641,0.369-0.901,0.65c-0.261,0.281-0.475,0.619-0.641,1.016c-0.168,0.395-0.28,0.833-0.339,1.314h5.704v-0.114
			c-0.012-0.398-0.076-0.783-0.193-1.156c-0.117-0.371-0.289-0.701-0.514-0.988c-0.227-0.287-0.506-0.517-0.84-0.689
			C596.042,307.197,595.653,307.11,595.207,307.11z"/>
		<path fill="#191919" d="M600.595,311.056c0-0.738,0.084-1.404,0.25-1.999c0.168-0.595,0.409-1.103,0.726-1.525
			s0.701-0.747,1.155-0.976c0.454-0.229,0.969-0.343,1.543-0.343c0.68,0,1.263,0.137,1.749,0.408
			c0.486,0.273,0.888,0.652,1.204,1.139l0.053-1.371h0.984v9.343c0,0.615-0.091,1.167-0.273,1.657
			c-0.182,0.488-0.438,0.903-0.768,1.243c-0.332,0.34-0.732,0.601-1.2,0.782c-0.469,0.182-0.993,0.272-1.573,0.272
			c-0.299,0-0.604-0.034-0.914-0.101c-0.311-0.068-0.611-0.169-0.9-0.304c-0.291-0.135-0.565-0.304-0.822-0.505
			c-0.258-0.203-0.483-0.441-0.677-0.717l0.589-0.633c0.387,0.475,0.797,0.822,1.23,1.041c0.434,0.221,0.908,0.33,1.424,0.33
			c0.451,0,0.851-0.069,1.199-0.207c0.349-0.138,0.644-0.337,0.884-0.598c0.24-0.261,0.423-0.577,0.55-0.949
			c0.125-0.372,0.188-0.795,0.188-1.27v-1.107c-0.316,0.44-0.718,0.784-1.204,1.033c-0.486,0.248-1.066,0.373-1.74,0.373
			c-0.568,0-1.078-0.119-1.529-0.355c-0.451-0.238-0.835-0.568-1.151-0.994c-0.316-0.424-0.558-0.933-0.726-1.524
			c-0.166-0.592-0.25-1.245-0.25-1.96V311.056z M601.659,311.241c0,0.557,0.056,1.074,0.167,1.551
			c0.111,0.479,0.281,0.893,0.51,1.244s0.517,0.627,0.865,0.826c0.349,0.199,0.764,0.299,1.244,0.299
			c0.363,0,0.69-0.044,0.981-0.132c0.289-0.088,0.546-0.209,0.769-0.364c0.223-0.155,0.416-0.339,0.58-0.55
			c0.164-0.211,0.305-0.442,0.422-0.694V309c-0.1-0.246-0.227-0.482-0.382-0.708c-0.156-0.225-0.344-0.424-0.563-0.598
			c-0.221-0.172-0.477-0.31-0.77-0.412c-0.293-0.103-0.633-0.154-1.02-0.154c-0.486,0-0.905,0.102-1.257,0.303
			c-0.352,0.203-0.642,0.479-0.87,0.831c-0.229,0.352-0.398,0.768-0.51,1.248c-0.111,0.48-0.167,0.996-0.167,1.547V311.241z"/>
		<path fill="#191919" d="M615.396,307.286c-0.223-0.041-0.46-0.061-0.712-0.061c-0.357,0-0.68,0.053-0.967,0.158
			c-0.287,0.105-0.54,0.254-0.761,0.444c-0.219,0.19-0.404,0.416-0.553,0.676c-0.15,0.262-0.268,0.55-0.356,0.866v6.53h-1.046v-9.51
			h1.028l0.018,1.512c0.258-0.522,0.607-0.933,1.05-1.234c0.442-0.302,0.986-0.453,1.631-0.453c0.129,0,0.261,0.012,0.396,0.035
			c0.135,0.023,0.234,0.05,0.299,0.079L615.396,307.286z"/>
		<path fill="#191919" d="M616.995,303.638c0-0.199,0.065-0.367,0.193-0.505c0.129-0.138,0.305-0.207,0.527-0.207
			c0.223,0,0.399,0.069,0.532,0.207c0.131,0.138,0.197,0.306,0.197,0.505c0,0.199-0.066,0.366-0.197,0.501
			c-0.133,0.135-0.31,0.202-0.532,0.202c-0.223,0-0.398-0.067-0.527-0.202C617.06,304.005,616.995,303.838,616.995,303.638z
			 M618.235,315.899h-1.055v-9.51h1.055V315.899z"/>
		<path fill="#191919" d="M622.726,303.955v2.435h1.969v0.861h-1.969v6.337c0,0.334,0.033,0.603,0.102,0.804
			c0.066,0.203,0.158,0.361,0.271,0.475c0.115,0.115,0.246,0.191,0.396,0.228c0.148,0.039,0.306,0.058,0.47,0.058
			c0.158,0,0.31-0.01,0.457-0.03c0.146-0.021,0.278-0.04,0.396-0.058l0.044,0.861c-0.129,0.047-0.298,0.083-0.505,0.11
			c-0.209,0.025-0.415,0.039-0.62,0.039c-0.299,0-0.575-0.039-0.831-0.119c-0.254-0.078-0.473-0.215-0.654-0.408
			c-0.182-0.193-0.324-0.449-0.426-0.77c-0.103-0.318-0.154-0.716-0.154-1.19v-6.337h-1.749v-0.861h1.749v-2.435H622.726z"/>
		<path fill="#191919" d="M629.889,314.387l2.777-7.998h1.134l-4.025,11.03c-0.082,0.217-0.187,0.46-0.313,0.73
			c-0.126,0.269-0.289,0.521-0.492,0.756c-0.201,0.234-0.454,0.432-0.756,0.594c-0.302,0.16-0.669,0.241-1.103,0.241
			c-0.059,0-0.126-0.005-0.202-0.013c-0.076-0.01-0.152-0.02-0.229-0.031c-0.076-0.012-0.148-0.025-0.215-0.039
			c-0.068-0.016-0.122-0.028-0.163-0.04l-0.009-0.87c0.07,0.012,0.165,0.023,0.285,0.035c0.12,0.012,0.207,0.018,0.26,0.018
			c0.281,0,0.53-0.037,0.747-0.109c0.217-0.074,0.405-0.183,0.567-0.326c0.16-0.143,0.303-0.323,0.426-0.54
			c0.123-0.217,0.234-0.466,0.334-0.747l0.457-1.257l-3.586-9.431h1.151L629.889,314.387z"/>
	</g>
</g>
<g>
	<g>
		<path fill="#191919" d="M712.038,223.74c0,0.715-0.081,1.368-0.242,1.96c-0.161,0.592-0.396,1.101-0.707,1.524
			c-0.311,0.426-0.69,0.756-1.139,0.994c-0.447,0.236-0.959,0.355-1.533,0.355c-0.68,0-1.268-0.122-1.762-0.365
			c-0.496-0.242-0.904-0.578-1.227-1.006v4.852h-1.046v-13.166h0.976l0.053,1.345c0.322-0.475,0.729-0.847,1.222-1.116
			c0.492-0.27,1.078-0.404,1.758-0.404c0.58,0,1.097,0.114,1.552,0.343c0.453,0.229,0.836,0.554,1.146,0.976
			c0.31,0.422,0.546,0.931,0.707,1.525c0.161,0.595,0.242,1.261,0.242,1.999V223.74z M710.984,223.555
			c0-0.551-0.057-1.066-0.172-1.547c-0.113-0.48-0.287-0.896-0.518-1.248c-0.232-0.352-0.526-0.628-0.884-0.831
			c-0.357-0.201-0.776-0.303-1.257-0.303c-0.381,0-0.718,0.05-1.011,0.149c-0.293,0.1-0.55,0.233-0.769,0.399
			c-0.221,0.168-0.408,0.361-0.563,0.58c-0.156,0.221-0.283,0.45-0.383,0.691v4.561c0.111,0.24,0.25,0.463,0.418,0.668
			c0.166,0.205,0.362,0.383,0.588,0.531c0.226,0.15,0.482,0.268,0.769,0.352c0.287,0.086,0.609,0.128,0.967,0.128
			c0.481,0,0.897-0.101,1.248-0.304c0.352-0.201,0.643-0.479,0.875-0.834c0.23-0.354,0.404-0.772,0.518-1.253
			c0.115-0.48,0.172-0.999,0.172-1.556V223.555z"/>
		<path fill="#191919" d="M718.762,219.785c-0.223-0.041-0.46-0.061-0.712-0.061c-0.357,0-0.68,0.053-0.967,0.158
			s-0.54,0.254-0.761,0.444c-0.219,0.191-0.404,0.416-0.553,0.676c-0.15,0.262-0.268,0.55-0.356,0.866v6.53h-1.046v-9.51h1.028
			l0.018,1.512c0.258-0.521,0.607-0.933,1.05-1.234c0.442-0.302,0.986-0.453,1.631-0.453c0.129,0,0.261,0.012,0.396,0.035
			c0.135,0.023,0.234,0.05,0.299,0.079L718.762,219.785z"/>
		<path fill="#191919" d="M726.075,228.398c-0.059-0.164-0.104-0.365-0.136-0.602c-0.033-0.238-0.055-0.479-0.066-0.725
			c-0.158,0.205-0.346,0.398-0.563,0.58c-0.217,0.182-0.46,0.34-0.729,0.475c-0.269,0.135-0.565,0.243-0.888,0.325
			c-0.322,0.082-0.671,0.123-1.046,0.123c-0.463,0-0.884-0.067-1.261-0.202c-0.379-0.135-0.701-0.323-0.967-0.567
			c-0.268-0.242-0.474-0.528-0.62-0.857c-0.146-0.328-0.22-0.686-0.22-1.072c0-0.463,0.1-0.88,0.299-1.253
			c0.199-0.371,0.486-0.688,0.861-0.949c0.375-0.26,0.83-0.459,1.367-0.598c0.535-0.137,1.138-0.206,1.806-0.206h1.951v-1.081
			c0-0.68-0.21-1.214-0.628-1.604c-0.42-0.39-1.03-0.585-1.833-0.585c-0.369,0-0.709,0.05-1.02,0.15
			c-0.31,0.1-0.579,0.237-0.804,0.413c-0.227,0.176-0.402,0.38-0.527,0.61c-0.127,0.232-0.189,0.48-0.189,0.743l-1.055-0.009
			c0-0.357,0.088-0.703,0.264-1.037s0.423-0.631,0.742-0.893c0.319-0.26,0.703-0.47,1.152-0.628
			c0.447-0.158,0.944-0.237,1.489-0.237c0.504,0,0.968,0.064,1.393,0.193c0.424,0.129,0.789,0.322,1.094,0.58
			s0.542,0.58,0.712,0.967c0.17,0.387,0.255,0.838,0.255,1.354v4.605c0,0.164,0.006,0.334,0.018,0.51
			c0.012,0.176,0.031,0.346,0.057,0.51c0.027,0.164,0.058,0.32,0.093,0.471c0.035,0.148,0.076,0.279,0.123,0.391v0.105H726.075z
			 M722.77,227.642c0.381,0,0.733-0.049,1.06-0.145c0.324-0.098,0.619-0.23,0.883-0.4c0.264-0.17,0.492-0.367,0.686-0.594
			c0.193-0.225,0.349-0.47,0.466-0.733v-2.092h-1.802c-0.539,0-1.021,0.048-1.445,0.146c-0.426,0.096-0.784,0.235-1.077,0.417
			c-0.293,0.182-0.518,0.403-0.673,0.663c-0.155,0.262-0.232,0.556-0.232,0.884c0,0.258,0.05,0.5,0.149,0.726
			c0.1,0.226,0.241,0.422,0.427,0.588c0.184,0.168,0.408,0.299,0.672,0.396C722.146,227.593,722.442,227.642,722.77,227.642z"/>
		<path fill="#191919" d="M729.291,223.555c0-0.738,0.084-1.404,0.25-1.999c0.168-0.595,0.409-1.104,0.726-1.525
			c0.316-0.422,0.701-0.747,1.155-0.976s0.969-0.343,1.543-0.343c0.68,0,1.263,0.137,1.749,0.408
			c0.486,0.273,0.888,0.652,1.204,1.139l0.053-1.371h0.984v9.343c0,0.615-0.091,1.167-0.273,1.657
			c-0.182,0.488-0.438,0.903-0.768,1.243c-0.332,0.34-0.732,0.601-1.2,0.782c-0.469,0.182-0.993,0.272-1.573,0.272
			c-0.299,0-0.604-0.034-0.914-0.101c-0.311-0.068-0.611-0.169-0.9-0.304c-0.291-0.135-0.565-0.304-0.822-0.505
			c-0.258-0.203-0.483-0.441-0.677-0.717l0.589-0.633c0.387,0.475,0.797,0.822,1.231,1.041c0.434,0.221,0.908,0.33,1.424,0.33
			c0.451,0,0.851-0.069,1.199-0.207c0.349-0.138,0.644-0.337,0.884-0.598c0.24-0.261,0.423-0.577,0.55-0.949
			c0.125-0.372,0.189-0.795,0.189-1.27v-1.108c-0.316,0.44-0.718,0.784-1.204,1.033c-0.486,0.248-1.066,0.373-1.74,0.373
			c-0.568,0-1.078-0.119-1.529-0.355c-0.451-0.238-0.835-0.568-1.151-0.994c-0.316-0.424-0.558-0.933-0.726-1.524
			c-0.166-0.592-0.25-1.245-0.25-1.96V223.555z M730.355,223.74c0,0.557,0.056,1.074,0.167,1.551
			c0.111,0.479,0.281,0.893,0.51,1.244c0.229,0.352,0.517,0.627,0.865,0.826c0.349,0.199,0.764,0.299,1.244,0.299
			c0.363,0,0.69-0.044,0.981-0.132c0.289-0.088,0.546-0.209,0.769-0.364c0.223-0.155,0.416-0.339,0.58-0.55
			c0.164-0.211,0.305-0.442,0.422-0.694v-4.421c-0.1-0.246-0.228-0.481-0.382-0.708c-0.156-0.225-0.344-0.424-0.563-0.598
			c-0.221-0.172-0.477-0.309-0.77-0.412c-0.293-0.103-0.633-0.154-1.019-0.154c-0.486,0-0.905,0.102-1.257,0.303
			c-0.352,0.203-0.642,0.479-0.87,0.831c-0.229,0.352-0.398,0.768-0.51,1.248c-0.111,0.48-0.167,0.996-0.167,1.547V223.74z"/>
		<path fill="#191919" d="M740.656,218.888l0.035,1.547c0.158-0.258,0.341-0.493,0.55-0.707c0.207-0.214,0.44-0.396,0.698-0.545
			c0.258-0.15,0.539-0.266,0.844-0.348c0.305-0.082,0.633-0.123,0.984-0.123c0.697,0,1.295,0.146,1.793,0.439
			c0.498,0.293,0.852,0.762,1.064,1.406c0.152-0.264,0.335-0.508,0.549-0.734c0.214-0.225,0.457-0.42,0.731-0.584
			c0.271-0.164,0.572-0.293,0.9-0.387c0.328-0.094,0.683-0.141,1.063-0.141c0.492,0,0.932,0.066,1.318,0.197
			c0.387,0.133,0.713,0.341,0.979,0.625c0.267,0.284,0.471,0.646,0.611,1.085c0.141,0.439,0.211,0.967,0.211,1.582v6.196h-1.055
			v-6.205c0-0.504-0.056-0.921-0.167-1.252c-0.111-0.331-0.27-0.595-0.475-0.791c-0.205-0.196-0.45-0.333-0.733-0.409
			c-0.285-0.076-0.597-0.114-0.937-0.114c-0.445,0.006-0.835,0.087-1.169,0.242c-0.334,0.155-0.617,0.352-0.848,0.588
			c-0.232,0.238-0.412,0.503-0.541,0.796s-0.205,0.577-0.229,0.852v6.293h-1.055v-6.284c0-0.475-0.056-0.87-0.167-1.186
			c-0.111-0.316-0.27-0.571-0.475-0.765c-0.205-0.193-0.45-0.331-0.733-0.413c-0.285-0.082-0.6-0.123-0.945-0.123
			c-0.398,0-0.75,0.064-1.055,0.19c-0.305,0.126-0.57,0.294-0.795,0.505c-0.227,0.211-0.412,0.451-0.559,0.721
			c-0.146,0.27-0.264,0.548-0.352,0.835v6.521h-1.055v-9.51H740.656z"/>
		<path fill="#191919" d="M761.653,228.398c-0.059-0.164-0.105-0.365-0.136-0.602c-0.033-0.238-0.055-0.479-0.066-0.725
			c-0.158,0.205-0.346,0.398-0.563,0.58c-0.217,0.182-0.46,0.34-0.729,0.475c-0.27,0.135-0.565,0.243-0.888,0.325
			c-0.322,0.082-0.671,0.123-1.046,0.123c-0.463,0-0.884-0.067-1.261-0.202c-0.379-0.135-0.701-0.323-0.967-0.567
			c-0.268-0.242-0.474-0.528-0.62-0.857c-0.146-0.328-0.22-0.686-0.22-1.072c0-0.463,0.1-0.88,0.299-1.253
			c0.199-0.371,0.486-0.688,0.861-0.949c0.375-0.26,0.83-0.459,1.367-0.598c0.535-0.137,1.138-0.206,1.806-0.206h1.951v-1.081
			c0-0.68-0.21-1.214-0.628-1.604c-0.42-0.39-1.03-0.585-1.833-0.585c-0.369,0-0.709,0.05-1.02,0.15
			c-0.31,0.1-0.579,0.237-0.804,0.413c-0.227,0.176-0.402,0.38-0.527,0.61c-0.127,0.232-0.19,0.48-0.19,0.743l-1.055-0.009
			c0-0.357,0.088-0.703,0.264-1.037c0.176-0.334,0.423-0.631,0.742-0.893c0.319-0.26,0.703-0.47,1.152-0.628
			c0.447-0.158,0.944-0.237,1.489-0.237c0.504,0,0.968,0.064,1.394,0.193c0.424,0.129,0.789,0.322,1.094,0.58
			c0.305,0.258,0.542,0.58,0.712,0.967c0.17,0.387,0.255,0.838,0.255,1.354v4.605c0,0.164,0.006,0.334,0.018,0.51
			c0.012,0.176,0.031,0.346,0.057,0.51c0.027,0.164,0.058,0.32,0.093,0.471c0.035,0.148,0.076,0.279,0.123,0.391v0.105H761.653z
			 M758.348,227.642c0.381,0,0.733-0.049,1.06-0.145c0.324-0.098,0.619-0.23,0.883-0.4c0.264-0.17,0.492-0.367,0.685-0.594
			c0.193-0.225,0.349-0.47,0.466-0.733v-2.092h-1.802c-0.539,0-1.021,0.048-1.445,0.146c-0.426,0.096-0.784,0.235-1.077,0.417
			c-0.293,0.182-0.518,0.403-0.673,0.663c-0.155,0.262-0.232,0.556-0.232,0.884c0,0.258,0.05,0.5,0.149,0.726
			s0.241,0.422,0.427,0.588c0.184,0.168,0.408,0.299,0.672,0.396C757.724,227.593,758.02,227.642,758.348,227.642z"/>
		<path fill="#191919" d="M766.926,216.454v2.434h1.969v0.861h-1.969v6.337c0,0.334,0.033,0.602,0.102,0.804
			c0.066,0.203,0.158,0.361,0.271,0.475c0.115,0.115,0.246,0.191,0.396,0.229c0.148,0.039,0.306,0.058,0.47,0.058
			c0.158,0,0.31-0.01,0.457-0.03c0.146-0.021,0.278-0.04,0.396-0.058l0.044,0.861c-0.129,0.047-0.298,0.083-0.505,0.11
			c-0.209,0.025-0.415,0.039-0.62,0.039c-0.299,0-0.575-0.039-0.831-0.119c-0.254-0.078-0.473-0.215-0.654-0.408
			c-0.182-0.193-0.324-0.449-0.426-0.77c-0.104-0.318-0.154-0.716-0.154-1.19v-6.337h-1.749v-0.861h1.749v-2.434H766.926z"/>
		<path fill="#191919" d="M771.013,216.137c0-0.199,0.064-0.367,0.193-0.505s0.305-0.207,0.527-0.207
			c0.223,0,0.399,0.069,0.532,0.207c0.131,0.138,0.197,0.306,0.197,0.505c0,0.199-0.066,0.366-0.197,0.501
			c-0.133,0.135-0.31,0.202-0.532,0.202c-0.223,0-0.398-0.067-0.527-0.202C771.078,216.504,771.013,216.337,771.013,216.137z
			 M772.252,228.398h-1.055v-9.51h1.055V228.398z"/>
		<path fill="#191919" d="M778.624,227.686c0.334,0,0.654-0.048,0.963-0.145c0.307-0.096,0.581-0.238,0.821-0.426
			c0.24-0.188,0.438-0.419,0.593-0.694s0.245-0.595,0.268-0.958h1.011c-0.023,0.451-0.137,0.867-0.338,1.248
			c-0.203,0.381-0.47,0.709-0.801,0.984c-0.331,0.275-0.713,0.491-1.147,0.646c-0.434,0.154-0.891,0.232-1.371,0.232
			c-0.668,0-1.254-0.122-1.758-0.365c-0.504-0.242-0.928-0.578-1.269-1.006c-0.344-0.428-0.602-0.93-0.773-1.508
			c-0.174-0.576-0.26-1.199-0.26-1.867v-0.369c0-0.668,0.086-1.29,0.26-1.867c0.172-0.577,0.429-1.078,0.768-1.504
			c0.34-0.424,0.763-0.76,1.271-1.006c0.506-0.246,1.091-0.369,1.753-0.369c0.51,0,0.982,0.079,1.419,0.237s0.818,0.384,1.143,0.677
			c0.326,0.293,0.585,0.649,0.778,1.068c0.193,0.419,0.302,0.886,0.325,1.401h-1.011c-0.023-0.387-0.107-0.732-0.251-1.037
			c-0.144-0.305-0.334-0.565-0.57-0.782c-0.238-0.217-0.514-0.383-0.826-0.496c-0.315-0.115-0.649-0.172-1.007-0.172
			c-0.545,0-1.007,0.105-1.384,0.316c-0.379,0.211-0.688,0.495-0.928,0.853c-0.24,0.357-0.415,0.768-0.523,1.23
			c-0.108,0.463-0.162,0.946-0.162,1.45v0.369c0,0.51,0.054,0.998,0.162,1.463c0.108,0.467,0.281,0.877,0.52,1.23
			c0.236,0.355,0.547,0.638,0.932,0.849C777.615,227.581,778.08,227.686,778.624,227.686z"/>
	</g>
</g>
<g>
	<path fill="#040000" d="M853.001,91.389c0-0.738,0.084-1.404,0.25-1.999c0.168-0.595,0.409-1.104,0.726-1.525
		c0.316-0.422,0.701-0.747,1.155-0.976s0.969-0.343,1.543-0.343c0.68,0,1.263,0.137,1.749,0.408
		c0.486,0.273,0.888,0.652,1.204,1.139l0.053-1.371h0.984v9.343c0,0.615-0.091,1.167-0.273,1.657
		c-0.182,0.488-0.438,0.903-0.769,1.243c-0.332,0.34-0.731,0.601-1.2,0.782c-0.469,0.182-0.993,0.272-1.573,0.272
		c-0.299,0-0.604-0.034-0.914-0.101c-0.31-0.068-0.611-0.169-0.9-0.304c-0.291-0.135-0.564-0.304-0.822-0.505
		c-0.258-0.203-0.483-0.441-0.677-0.717l0.589-0.633c0.387,0.475,0.797,0.822,1.231,1.041c0.434,0.221,0.908,0.33,1.424,0.33
		c0.451,0,0.851-0.069,1.199-0.207c0.349-0.138,0.644-0.337,0.884-0.598c0.24-0.261,0.423-0.577,0.55-0.949
		c0.125-0.372,0.188-0.795,0.188-1.27v-1.107c-0.316,0.439-0.718,0.784-1.204,1.033c-0.486,0.248-1.066,0.373-1.74,0.373
		c-0.568,0-1.078-0.119-1.529-0.355c-0.451-0.238-0.835-0.568-1.151-0.994c-0.316-0.424-0.558-0.933-0.726-1.525
		c-0.166-0.592-0.25-1.245-0.25-1.96V91.389z M854.065,91.574c0,0.557,0.056,1.074,0.167,1.551c0.111,0.479,0.281,0.893,0.51,1.244
		c0.229,0.352,0.517,0.627,0.865,0.826c0.349,0.199,0.764,0.299,1.244,0.299c0.363,0,0.69-0.044,0.98-0.132
		c0.289-0.088,0.546-0.209,0.768-0.364c0.223-0.155,0.416-0.339,0.58-0.55c0.164-0.211,0.305-0.442,0.422-0.694v-4.421
		c-0.1-0.246-0.228-0.481-0.382-0.708c-0.156-0.225-0.344-0.424-0.563-0.598c-0.221-0.172-0.477-0.31-0.769-0.412
		c-0.293-0.102-0.633-0.154-1.02-0.154c-0.486,0-0.905,0.102-1.257,0.303c-0.352,0.203-0.642,0.48-0.87,0.831
		c-0.228,0.352-0.398,0.768-0.51,1.248c-0.111,0.48-0.167,0.996-0.167,1.547V91.574z"/>
	<path fill="#040000" d="M867.802,87.619c-0.223-0.041-0.46-0.062-0.712-0.062c-0.358,0-0.68,0.053-0.967,0.158
		c-0.287,0.105-0.54,0.254-0.761,0.444c-0.219,0.19-0.404,0.416-0.553,0.676c-0.15,0.262-0.269,0.55-0.357,0.866v6.53h-1.046v-9.51
		h1.028l0.017,1.512c0.258-0.521,0.608-0.933,1.05-1.234c0.442-0.302,0.986-0.453,1.631-0.453c0.129,0,0.261,0.012,0.396,0.035
		c0.135,0.023,0.234,0.05,0.299,0.079L867.802,87.619z"/>
	<path fill="#040000" d="M868.707,91.337c0-0.691,0.102-1.33,0.303-1.916c0.203-0.586,0.488-1.091,0.857-1.517
		c0.369-0.424,0.815-0.757,1.336-0.997c0.521-0.24,1.102-0.36,1.74-0.36c0.65,0,1.237,0.12,1.762,0.36
		c0.524,0.24,0.972,0.573,1.341,0.997c0.369,0.426,0.653,0.931,0.852,1.517c0.199,0.586,0.299,1.225,0.299,1.916v0.29
		c0,0.691-0.1,1.33-0.299,1.916c-0.199,0.586-0.483,1.092-0.852,1.516c-0.369,0.426-0.814,0.756-1.336,0.994
		c-0.521,0.236-1.104,0.355-1.749,0.355c-0.644,0-1.227-0.119-1.749-0.355c-0.521-0.238-0.969-0.568-1.341-0.994
		c-0.372-0.424-0.658-0.93-0.861-1.516c-0.201-0.586-0.303-1.225-0.303-1.916V91.337z M869.762,91.627
		c0,0.521,0.07,1.019,0.211,1.49c0.141,0.472,0.346,0.885,0.615,1.238c0.269,0.355,0.604,0.638,1.002,0.849
		c0.398,0.211,0.855,0.316,1.371,0.316c0.516,0,0.971-0.105,1.367-0.316c0.395-0.211,0.728-0.493,0.997-0.849
		c0.269-0.354,0.475-0.767,0.615-1.238c0.141-0.472,0.211-0.969,0.211-1.49v-0.29c0-0.51-0.07-1-0.211-1.472
		c-0.141-0.472-0.346-0.887-0.615-1.244c-0.27-0.358-0.606-0.643-1.007-0.858c-0.401-0.213-0.859-0.32-1.375-0.32
		c-0.51,0-0.963,0.107-1.357,0.32c-0.396,0.215-0.729,0.5-0.998,0.858c-0.27,0.357-0.475,0.772-0.615,1.244
		c-0.141,0.472-0.211,0.962-0.211,1.472V91.627z"/>
	<path fill="#040000" d="M881.645,94.044l0.158,0.817L882.014,94l2.285-7.277h0.896l2.259,7.216l0.246,1.002l0.202-0.923
		l1.951-7.295h1.09l-2.769,9.51h-0.897l-2.443-7.541l-0.114-0.519l-0.114,0.527l-2.4,7.532h-0.896l-2.76-9.51h1.081L881.645,94.044z
		"/>
	<path fill="#040000" d="M892.877,83.971c0-0.199,0.064-0.367,0.193-0.505c0.129-0.138,0.305-0.207,0.527-0.207
		c0.223,0,0.399,0.069,0.532,0.207c0.131,0.138,0.197,0.306,0.197,0.505c0,0.199-0.066,0.366-0.197,0.501
		c-0.133,0.135-0.31,0.202-0.532,0.202c-0.223,0-0.398-0.067-0.527-0.202C892.942,84.338,892.877,84.171,892.877,83.971z
		 M894.117,96.232h-1.055v-9.51h1.055V96.232z"/>
	<path fill="#040000" d="M897.975,86.722l0.035,1.626c0.164-0.27,0.353-0.516,0.566-0.738c0.214-0.223,0.453-0.413,0.717-0.571
		c0.264-0.158,0.548-0.279,0.853-0.365c0.305-0.084,0.627-0.127,0.967-0.127c0.475,0,0.899,0.064,1.274,0.193
		c0.375,0.129,0.692,0.334,0.953,0.615c0.261,0.281,0.46,0.644,0.598,1.086s0.207,0.977,0.207,1.604v6.188h-1.046v-6.196
		c0-0.492-0.053-0.902-0.158-1.23c-0.105-0.328-0.255-0.592-0.448-0.791c-0.193-0.199-0.43-0.341-0.707-0.427
		c-0.279-0.084-0.588-0.127-0.928-0.127c-0.375,0-0.715,0.063-1.019,0.189c-0.305,0.126-0.574,0.294-0.809,0.505
		c-0.234,0.211-0.437,0.452-0.606,0.726c-0.17,0.271-0.305,0.552-0.404,0.839v6.513h-1.046v-9.51H897.975z"/>
	<path fill="#040000" d="M906.439,91.389c0-0.738,0.084-1.404,0.25-1.999c0.168-0.595,0.409-1.104,0.726-1.525
		c0.316-0.422,0.701-0.747,1.155-0.976s0.969-0.343,1.543-0.343c0.68,0,1.263,0.137,1.749,0.408
		c0.486,0.273,0.888,0.652,1.204,1.139l0.053-1.371h0.984v9.343c0,0.615-0.091,1.167-0.273,1.657
		c-0.182,0.488-0.438,0.903-0.769,1.243c-0.332,0.34-0.731,0.601-1.2,0.782c-0.469,0.182-0.993,0.272-1.573,0.272
		c-0.299,0-0.604-0.034-0.914-0.101c-0.31-0.068-0.611-0.169-0.9-0.304c-0.291-0.135-0.564-0.304-0.822-0.505
		c-0.258-0.203-0.483-0.441-0.677-0.717l0.589-0.633c0.387,0.475,0.797,0.822,1.231,1.041c0.434,0.221,0.908,0.33,1.424,0.33
		c0.451,0,0.851-0.069,1.199-0.207c0.349-0.138,0.644-0.337,0.884-0.598c0.24-0.261,0.423-0.577,0.55-0.949
		c0.125-0.372,0.188-0.795,0.188-1.27v-1.107c-0.316,0.439-0.718,0.784-1.204,1.033c-0.486,0.248-1.066,0.373-1.74,0.373
		c-0.568,0-1.078-0.119-1.529-0.355c-0.451-0.238-0.835-0.568-1.151-0.994c-0.316-0.424-0.558-0.933-0.726-1.525
		c-0.166-0.592-0.25-1.245-0.25-1.96V91.389z M907.502,91.574c0,0.557,0.056,1.074,0.167,1.551c0.111,0.479,0.281,0.893,0.51,1.244
		c0.229,0.352,0.517,0.627,0.865,0.826c0.349,0.199,0.764,0.299,1.244,0.299c0.363,0,0.69-0.044,0.98-0.132
		c0.289-0.088,0.546-0.209,0.768-0.364c0.223-0.155,0.416-0.339,0.58-0.55c0.164-0.211,0.305-0.442,0.422-0.694v-4.421
		c-0.1-0.246-0.228-0.481-0.382-0.708c-0.156-0.225-0.344-0.424-0.563-0.598c-0.221-0.172-0.477-0.31-0.769-0.412
		c-0.293-0.102-0.633-0.154-1.02-0.154c-0.486,0-0.905,0.102-1.257,0.303c-0.352,0.203-0.642,0.48-0.87,0.831
		c-0.228,0.352-0.398,0.768-0.51,1.248c-0.111,0.48-0.167,0.996-0.167,1.547V91.574z"/>
</g>
</svg>
