<svg width="0" height="0" style="position:absolute"><defs><svg viewBox="0 0 0 0" id="empty"/><svg viewBox="0 0 23.87 23.86" id="fax" xmlns="http://www.w3.org/2000/svg"><title>fax</title><g data-name="圖層 2"><g fill="none" stroke="#0080ef" data-name="圖層 1"><circle cx="11.93" cy="11.93" r="11.43" stroke-miterlimit="10"/><g stroke-linejoin="round"><path d="M7.25 4.89h9.19v3.55H7.25zM7.34 11.77h9.19v7.21H7.34z"/><path d="M16.43 14.45h2.09V8.44H5.35v6.01h1.9"/><path stroke-linecap="round" d="M9.43 13.72h5.06M9.43 15.37h5.06M9.43 17.03h5.06"/></g></g></g></svg><svg viewBox="0 0 23.87 23.87" id="mail" xmlns="http://www.w3.org/2000/svg"><title>mail</title><g data-name="圖層 2"><g fill="none" stroke="#0080ef" stroke-miterlimit="10" data-name="圖層 1"><circle cx="11.93" cy="11.93" r="11.43"/><rect x="4.58" y="7.35" width="14" height="10" rx="1.28" ry="1.28"/><path d="M18.57 7.43l-5.67 5.66a1.28 1.28 0 0 1-1.81 0L5.43 7.43"/></g></g></svg><svg viewBox="0 0 23.87 23.87" id="marker" xmlns="http://www.w3.org/2000/svg"><title>marker</title><g data-name="圖層 2"><g fill="none" stroke="#0080ef" stroke-miterlimit="10" data-name="圖層 1"><circle cx="11.93" cy="11.93" r="11.43"/><path d="M11.93 18.78c-.42-2.06-1.66-3.65-2.72-5.35a12.33 12.33 0 0 1-1.48-3 4.22 4.22 0 0 1 3.39-5.3 4.29 4.29 0 0 1 5.11 3.5A3.92 3.92 0 0 1 16 11a16.09 16.09 0 0 1-.94 1.8c-1.2 1.94-2.67 3.69-3.13 5.98z"/><path d="M11.93 10.94a1.44 1.44 0 0 1-1.5-1.49 1.5 1.5 0 1 1 3 0 1.46 1.46 0 0 1-1.5 1.49z"/></g></g></svg><svg viewBox="0 0 11.13 11.13" id="mobile-btn-deco" xmlns="http://www.w3.org/2000/svg"><title>mobile-btn-deco</title><g data-name="圖層 2"><path class="ecls-1" d="M9 5.67a.15.15 0 0 1 0-.21l2-2a.15.15 0 0 0 0-.21l-.92-.92a.15.15 0 0 0-.21 0L9 3.21a.15.15 0 0 1-.21 0l-.92-.92a.15.15 0 0 1 0-.21l.92-.92a.15.15 0 0 0 0-.21L7.92 0a.15.15 0 0 0-.21 0l-.92 1-.21.21-.92.92a.15.15 0 0 1-.21 0l-.92-.92-.2-.21-.91-1a.15.15 0 0 0-.21 0l-.92 1a.15.15 0 0 0 0 .21l.92.92a.15.15 0 0 1 0 .21l-.92.92a.15.15 0 0 1-.21 0l-.92-.92a.15.15 0 0 0-.21 0L0 3.21a.15.15 0 0 0 0 .21l2 2a.15.15 0 0 1 0 .21l-.92.92L1 6.8l-1 .91a.15.15 0 0 0 0 .21l1 .92a.15.15 0 0 0 .21 0l.92-.91a.15.15 0 0 1 .21 0l.92.92a.15.15 0 0 1 0 .21l-.97.94a.15.15 0 0 0 0 .21l.92.92a.15.15 0 0 0 .21 0l.92-.92.2-.21.64-.63.21-.21.07-.16a.15.15 0 0 1 .21 0l2 2a.15.15 0 0 0 .21 0l.92-.92a.15.15 0 0 0 0-.21L7.92 9a.15.15 0 0 1 0-.21l.92-.91a.15.15 0 0 1 .21 0l.92.92a.15.15 0 0 0 .21 0l.92-.91a.15.15 0 0 0 0-.21l-.92-.92-.18-.17zm-1.33.92a.15.15 0 0 1 0 .21l-.92.92a.15.15 0 0 1-.21 0l-.87-.92a.15.15 0 0 0-.21 0l-.92.92a.15.15 0 0 1-.21 0l-.91-.92a.15.15 0 0 1 0-.21l.92-.92a.15.15 0 0 0 0-.21l-.92-.92a.15.15 0 0 1 0-.21l.92-.91a.15.15 0 0 1 .21 0l.92.92a.15.15 0 0 0 .21 0l.92-.91a.15.15 0 0 1 .21 0l.92.92a.15.15 0 0 1 0 .21l-.92.92a.15.15 0 0 0 0 .21z" data-name="圖層 1"/></g></svg><svg viewBox="0 0 15.48 17.59" id="mobile-topmenu-sock" xmlns="http://www.w3.org/2000/svg"><defs><clipPath id="fa"><path d="M12.91 11.6l-.05-.08a9.17 9.17 0 0 0-1.07-1.07c-.63-.63-2.09-1.78-2.09-1.78a3.63 3.63 0 0 1-1.26-2.55V0H3.08v8.42a2.7 2.7 0 0 0 .52 1.5 5.82 5.82 0 0 0 .89.86c.31.28.62.57.92.87l2.65 2.64a5.71 5.71 0 0 0 1.36 1.18 2.7 2.7 0 0 0 3.77-1.56 2.68 2.68 0 0 0-.29-2.32z" fill="none"/></clipPath></defs><title>mobile-topmenu-sock</title><g data-name="圖層 2"><g data-name="圖層 1"><path d="M12.91 11.6l-.05-.08a9.17 9.17 0 0 0-1.07-1.07c-.63-.63-2.09-1.78-2.09-1.78a3.63 3.63 0 0 1-1.26-2.55V0H3.08v8.42a2.7 2.7 0 0 0 .52 1.5 5.82 5.82 0 0 0 .89.86c.31.28.62.57.92.87l2.65 2.64a5.71 5.71 0 0 0 1.36 1.18 2.7 2.7 0 0 0 3.77-1.56 2.68 2.68 0 0 0-.29-2.32z" fill="#fff"/><g clip-path="url(#fa)" fill="#dcdddd"><circle cx="2.54" cy="8.75" r="2.54"/><circle cx="12.94" cy="15.04" r="2.54"/></g></g></g></svg><svg viewBox="0 0 5.38 10.75" id="news-next" xmlns="http://www.w3.org/2000/svg"><title>news-next</title><g data-name="圖層 2"><path fill="#00bcea" d="M0 0v10.75l5.38-5.37L0 0z" data-name="圖層 1"/></g></svg><svg viewBox="0 0 5.38 10.75" id="news-prev" xmlns="http://www.w3.org/2000/svg"><title>news-prev</title><g data-name="圖層 2"><path fill="#00bcea" d="M0 5.38l5.38 5.37V0L0 5.38z" data-name="圖層 1"/></g></svg><svg viewBox="0 0 23.87 23.87" id="phone" xmlns="http://www.w3.org/2000/svg"><title>phone</title><g data-name="圖層 2"><g fill="none" stroke="#0080ef" stroke-miterlimit="10" data-name="圖層 1"><path d="M10.31 8.09a1 1 0 0 1-.22.91 5.31 5.31 0 0 1-.5.51.69.69 0 0 0-.22 1 4.22 4.22 0 0 0 .55 1c.78.9 1.58 1.79 2.41 2.65a3.94 3.94 0 0 0 1 .64.55.55 0 0 0 .71-.13c.07-.07.14-.12.21-.19a1.34 1.34 0 0 1 2-.08 6 6 0 0 1 1 .93 1.13 1.13 0 0 1-.06 1.66 5.2 5.2 0 0 1-.93.83 1.57 1.57 0 0 1-.82.22 4.7 4.7 0 0 1-2.44-.81 14.31 14.31 0 0 1-6.52-7.8A5.4 5.4 0 0 1 6.31 8a1.41 1.41 0 0 1 .57-1.29c.3-.22.57-.49.88-.69a1 1 0 0 1 1.17 0 3.84 3.84 0 0 1 1.38 2.07z"/><circle cx="11.93" cy="11.93" r="11.43"/></g></g></svg><svg viewBox="0 0 20.4 20.4" id="worldwide-deco" xmlns="http://www.w3.org/2000/svg"><title>worldwide-deco</title><g data-name="圖層 2"><g fill="#00bcea" data-name="圖層 1"><path d="M11.64 7.33L10.2 8.76 8.76 7.33 7.33 8.76l1.43 1.44-1.43 1.44 1.43 1.43 1.44-1.43 1.44 1.43 1.43-1.43-1.43-1.44 1.43-1.44-1.43-1.43z"/><path d="M10.2 0a10.2 10.2 0 1 0 10.2 10.2A10.2 10.2 0 0 0 10.2 0zm5.75 11.64l1.44 1.44-1.44 1.44-1.44-1.44-1.44 1.44 1.44 1.44-1.44 1.44-2.87-2.89-.36.36-1.08 1.08-1.43 1.43-1.44-1.43 1.44-1.44-1.44-1.44-1.43 1.44L3 13.07l1.44-1.44 1.45-1.43L3 7.33l1.46-1.44 1.43 1.44 1.44-1.44-1.44-1.44L7.33 3l1.43 1.45 1.44 1.44 1.44-1.44L13.07 3l1.44 1.44-1.44 1.45 1.44 1.44 1.44-1.44 1.44 1.44-2.88 2.87z"/></g></g></svg><svg viewBox="0 0 22.1 22.1" id="yarn-btn-deco" xmlns="http://www.w3.org/2000/svg"><title>yarn-btn-deco</title><g data-name="圖層 2"><g fill="#fff" data-name="圖層 1"><path d="M12.61 7.94l-1.56 1.55-1.56-1.55-1.55 1.55 1.55 1.56-1.55 1.56 1.55 1.55 1.56-1.55 1.56 1.55 1.55-1.55-1.55-1.56 1.55-1.56-1.55-1.55z"/><path d="M11.05 0A11 11 0 1 0 22.1 11 11.05 11.05 0 0 0 11.05 0zm6.23 12.61l1.55 1.56-1.55 1.56-1.56-1.56-1.56 1.56 1.56 1.56-1.56 1.56-3.11-3.11-.39.39-1.17 1.14-1.55 1.56-1.56-1.56 1.55-1.56-1.55-1.55-1.55 1.56-1.56-1.56 1.56-1.56L6.38 11 3.27 7.94l1.56-1.56 1.55 1.56 1.56-1.56-1.56-1.55 1.56-1.56 1.55 1.56 1.56 1.56 1.56-1.56 1.56-1.56 1.56 1.56-1.57 1.55 1.56 1.56 1.56-1.56 1.55 1.56L15.72 11z"/></g></g></svg></defs></svg>