<svg id="boarding-svg" width="1282" height="803.59" viewBox="0 0 1282 803.59">
    <defs>
        <clipPath id="clip-path">
            <rect x="465" y="331.59" width="13" height="341" fill="none" />
        </clipPath>
        <clipPath id="clip-path-2">
            <rect x="598" y="331.59" width="13" height="341" fill="none" />
        </clipPath>
    </defs>
    <g id="pointer-three">
        <g>
            <path d="M1075.19,343.33a27.14,27.14,0,1,0-54.28,0v44.36h54.28Z" fill="#b3b3b3" />
            <rect x="1035.98" y="373.29" width="24.14" height="6.82" rx="0.44" ry="0.44" fill="#f2f2f2" />
            <circle cx="1048.05" cy="344.39" r="17.6" fill="#f2f2f2" />
        </g>
        <g>
            <circle cx="1048.05" cy="344.39" r="2.46" fill="#ccc" />
            <path d="M1040.5,353.4a.4.4,0,0,1-.3-.66l7.55-8.61a.4.4,0,0,1,.6.53l-7.55,8.61A.4.4,0,0,1,1040.5,353.4Z" fill="#ccc" />
        </g>
    </g>
    <g id="pointer-one">
        <g>
            <circle cx="850.5" cy="256.78" r="25.53" fill="#ccc" />
            <circle cx="850.5" cy="256.78" r="21.12" fill="#f7f7f7" />
            <rect x="848" y="279.96" width="4.99" height="85.08" rx="0.88" ry="0.88" fill="#ccc" />
        </g>
        <g>
            <path d="M856.37,267.34a.8.8,0,0,1-.69-.39l-13.87-23.47a.8.8,0,0,1,1.38-.81l13.87,23.47a.8.8,0,0,1-.69,1.21Z" fill="#ccc" />
            <circle cx="850.5" cy="256.6" r="3.17" fill="#ccc" />
        </g>
    </g>
    <g>
        <rect x="611" y="671.59" width="669" height="60" fill="#fafafa" />
        <rect x="1" y="671.59" width="669" height="60" fill="#fafafa" />
        <rect x="608.62" y="341.74" width="264.86" height="13.86" rx="5.28" ry="5.28" fill="#ccc" />
        <rect x="363.89" y="184.34" width="27.1" height="131.74" rx="3.52" ry="3.52" fill="#f2f2f2" />
        <rect x="382.86" y="184.14" width="41.81" height="182.55" rx="3.52" ry="3.52" fill="#e6e6e6" />
        <rect x="1003" y="577.59" width="150" height="181" fill="#f2f2f2" />
        <path d="M599.79,672.12a1.76,1.76,0,0,1-1.76-1.76V332.51a1.76,1.76,0,1,1,3.52,0V670.36A1.76,1.76,0,0,1,599.79,672.12Z" fill="#ccc" />
        <path d="M609,672.12a1.76,1.76,0,0,1-1.76-1.76V332.51a1.76,1.76,0,1,1,3.52,0V670.36A1.76,1.76,0,0,1,609,672.12Z" fill="#ccc" />
        <rect x="363.89" y="305.49" width="165.04" height="25.53" rx="3.52" ry="3.52" fill="#ccc" />
        <g>
            <path d="M554.23,187.66a3.52,3.52,0,0,0-3.52-3.52H517.27a3.52,3.52,0,0,0-3.52,3.52v73.26h40.49Z" fill="#e6e6e6" />
            <path d="M513.75,260.92V287a3.52,3.52,0,0,0,3.52,3.52h33.45a3.52,3.52,0,0,0,3.52-3.52V260.92Z" fill="#e6e6e6" />
        </g>
        <rect x="525.41" y="184.14" width="17.16" height="117.85" rx="3.52" ry="3.52" fill="#ccc" />
        <rect x="525.41" y="270.22" width="17.16" height="401.71" rx="3.52" ry="3.52" fill="#e6e6e6" />
        <circle cx="548.59" cy="250.21" r="3.08" fill="#ccc" />
        <circle cx="519.69" cy="250.21" r="3.08" fill="#ccc" />
        <path d="M599.79,355a3.71,3.71,0,0,1-3.88,3.52H504.35a3.71,3.71,0,0,1-3.88-3.52V334.27a3.71,3.71,0,0,1,3.88-3.52H595.9a3.71,3.71,0,0,1,3.88,3.52Z" fill="#ccc" />
        <rect x="595.03" y="330.75" width="5.14" height="33.98" rx="0.88" ry="0.88" fill="#e6e6e6" />
        <rect x="608.69" y="330.75" width="5.14" height="33.98" rx="0.88" ry="0.88" fill="#e6e6e6" />
        <path d="M1133.92,4.38s75.08,144.91-40.75,252.4C1021.76,323,889.59,326.2,889.59,326.2" fill="none" stroke="#f2f2f2" stroke-linecap="round" stroke-linejoin="round" stroke-width="8.77" />
        <rect x="1003.54" y="385.61" width="149.19" height="160.27" fill="#f2f2f2" />
        <rect x="1003.54" y="544.13" width="46.47" height="52.15" rx="1.32" ry="1.32" fill="#e6e6e6" />
        <rect x="1106.25" y="544.13" width="46.47" height="52.15" rx="1.32" ry="1.32" fill="#e6e6e6" />
        <path d="M1106.25,582.41a1.31,1.31,0,0,1-1.31,1.32h-53.63a1.31,1.31,0,0,1-1.31-1.32v-37a1.31,1.31,0,0,1,1.31-1.32h53.63a1.32,1.32,0,0,1,1.31,1.32Z" fill="#e6e6e6" />
        <rect x="1012.45" y="561.65" width="8.21" height="13.79" rx="0.88" ry="0.88" fill="#b3b3b3" />
        <rect x="1032.26" y="561.65" width="8.22" height="13.79" rx="0.88" ry="0.88" fill="#b3b3b3" />
        <rect x="1133.92" y="561.65" width="8.21" height="13.79" rx="0.88" ry="0.88" fill="#b3b3b3" />
        <rect x="1056.52" y="553.14" width="43.1" height="26.11" rx="0.88" ry="0.88" fill="#b3b3b3" />
        <rect x="1060.86" y="561.65" width="5.87" height="12.32" fill="#f2f2f2" />
        <rect x="1112.6" y="561.65" width="9.54" height="12.32" fill="#f2f2f2" />
        <text transform="translate(1115.35 570.81)" font-size="8.02" fill="#ccc" font-family="Roboto-Regular, Roboto">3</text>
        <rect x="670.62" y="355.78" width="222.67" height="401.84" rx="3.08" ry="3.08" fill="#ccc" />
        <g>
            <rect x="866.82" y="408.03" width="5.91" height="349.58" rx="0.88" ry="0.88" fill="#e6e6e6" />
            <rect x="860.54" y="427.42" width="20.24" height="7.92" rx="0.88" ry="0.88" fill="#f2f2f2" />
            <rect x="865.78" y="400.69" width="7.81" height="18.48" rx="0.88" ry="0.88" fill="#f2f2f2" />
            <circle cx="864.98" cy="431.38" r="1.76" fill="#b4b4b5" />
            <circle cx="874.99" cy="431.38" r="1.76" fill="#b4b4b5" />
        </g>
        <rect x="878.77" y="355.78" width="124.76" height="401.84" fill="#e6e6e6" />
        <circle cx="344.23" cy="318.25" r="34.63" fill="#ccc" />
        <rect x="670" y="355.59" width="208" height="14" rx="2.4" ry="2.4" fill="#e6e6e6" />
        <g>
            <rect x="375.1" y="355.78" width="74.59" height="315.77" rx="3.08" ry="3.08" fill="#f2f2f2" />
            <rect x="315.03" y="355.78" width="81.19" height="315.77" rx="3.08" ry="3.08" fill="#f2f2f2" />
            <rect x="343.42" y="355.78" width="81.19" height="315.77" rx="3.08" ry="3.08" fill="#e6e6e6" />
        </g>
        <path d="M467.17,671.86a1.76,1.76,0,0,1-1.76-1.76V332.77a1.76,1.76,0,0,1,3.52,0V670.1A1.76,1.76,0,0,1,467.17,671.86Z" fill="#ccc" />
        <path d="M476.41,671.86a1.76,1.76,0,0,1-1.76-1.76V332.77a1.76,1.76,0,0,1,3.52,0V670.1A1.76,1.76,0,0,1,476.41,671.86Z" fill="#ccc" />
        <rect x="462.3" y="331.01" width="5.14" height="33.98" rx="0.88" ry="0.88" fill="#e6e6e6" />
        <rect x="475.96" y="331.01" width="5.14" height="33.98" rx="0.88" ry="0.88" fill="#e6e6e6" />
        <rect y="731.59" width="1281" height="72" fill="#e6e6e6" />
        <line x1="1281" y1="741.59" x2="1" y2="741.59" fill="none" stroke="#fff" stroke-linecap="round" stroke-linejoin="round" stroke-width="2" />
    </g>
    <g id="boarding-conveyor-one">
        <g clip-path="url(#clip-path)">
            <g>
                <path d="M476,335.59a2,2,0,0,1-2,2h-5a2,2,0,0,1-2-2h0a2,2,0,0,1,2-2h5a2,2,0,0,1,2,2Z" fill="#595757" />
                <path d="M476,341.59a2,2,0,0,1-2,2h-5a2,2,0,0,1-2-2h0a2,2,0,0,1,2-2h5a2,2,0,0,1,2,2Z" fill="#595757" />
                <path d="M476,348.59a2,2,0,0,1-2,2h-5a2,2,0,0,1-2-2h0a2,2,0,0,1,2-2h5a2,2,0,0,1,2,2Z" fill="#595757" />
                <path d="M476,354.59a2,2,0,0,1-2,2h-5a2,2,0,0,1-2-2h0a2,2,0,0,1,2-2h5a2,2,0,0,1,2,2Z" fill="#595757" />
                <path d="M476,361.59a2,2,0,0,1-2,2h-5a2,2,0,0,1-2-2h0a2,2,0,0,1,2-2h5a2,2,0,0,1,2,2Z" fill="#595757" />
                <path d="M476,367.59a2,2,0,0,1-2,2h-5a2,2,0,0,1-2-2h0a2,2,0,0,1,2-2h5a2,2,0,0,1,2,2Z" fill="#595757" />
                <path d="M476,373.59a2,2,0,0,1-2,2h-5a2,2,0,0,1-2-2h0a2,2,0,0,1,2-2h5a2,2,0,0,1,2,2Z" fill="#595757" />
                <path d="M476,380.59a2,2,0,0,1-2,2h-5a2,2,0,0,1-2-2h0a2,2,0,0,1,2-2h5a2,2,0,0,1,2,2Z" fill="#595757" />
                <path d="M476,386.59a2,2,0,0,1-2,2h-5a2,2,0,0,1-2-2h0a2,2,0,0,1,2-2h5a2,2,0,0,1,2,2Z" fill="#595757" />
                <path d="M476,393.59a2,2,0,0,1-2,2h-5a2,2,0,0,1-2-2h0a2,2,0,0,1,2-2h5a2,2,0,0,1,2,2Z" fill="#595757" />
                <path d="M476,399.59a2,2,0,0,1-2,2h-5a2,2,0,0,1-2-2h0a2,2,0,0,1,2-2h5a2,2,0,0,1,2,2Z" fill="#595757" />
                <path d="M476,405.59a2,2,0,0,1-2,2h-5a2,2,0,0,1-2-2h0a2,2,0,0,1,2-2h5a2,2,0,0,1,2,2Z" fill="#595757" />
                <path d="M476,412.59a2,2,0,0,1-2,2h-5a2,2,0,0,1-2-2h0a2,2,0,0,1,2-2h5a2,2,0,0,1,2,2Z" fill="#595757" />
                <path d="M476,418.59a2,2,0,0,1-2,2h-5a2,2,0,0,1-2-2h0a2,2,0,0,1,2-2h5a2,2,0,0,1,2,2Z" fill="#595757" />
                <path d="M476,425.59a2,2,0,0,1-2,2h-5a2,2,0,0,1-2-2h0a2,2,0,0,1,2-2h5a2,2,0,0,1,2,2Z" fill="#595757" />
                <path d="M476,431.59a2,2,0,0,1-2,2h-5a2,2,0,0,1-2-2h0a2,2,0,0,1,2-2h5a2,2,0,0,1,2,2Z" fill="#595757" />
                <path d="M476,437.59a2,2,0,0,1-2,2h-5a2,2,0,0,1-2-2h0a2,2,0,0,1,2-2h5a2,2,0,0,1,2,2Z" fill="#595757" />
                <path d="M476,444.59a2,2,0,0,1-2,2h-5a2,2,0,0,1-2-2h0a2,2,0,0,1,2-2h5a2,2,0,0,1,2,2Z" fill="#595757" />
                <path d="M476,450.59a2,2,0,0,1-2,2h-5a2,2,0,0,1-2-2h0a2,2,0,0,1,2-2h5a2,2,0,0,1,2,2Z" fill="#595757" />
                <path d="M476,457.59a2,2,0,0,1-2,2h-5a2,2,0,0,1-2-2h0a2,2,0,0,1,2-2h5a2,2,0,0,1,2,2Z" fill="#595757" />
                <path d="M476,463.59a2,2,0,0,1-2,2h-5a2,2,0,0,1-2-2h0a2,2,0,0,1,2-2h5a2,2,0,0,1,2,2Z" fill="#595757" />
                <path d="M476,469.59a2,2,0,0,1-2,2h-5a2,2,0,0,1-2-2h0a2,2,0,0,1,2-2h5a2,2,0,0,1,2,2Z" fill="#595757" />
                <path d="M476,476.59a2,2,0,0,1-2,2h-5a2,2,0,0,1-2-2h0a2,2,0,0,1,2-2h5a2,2,0,0,1,2,2Z" fill="#595757" />
                <path d="M476,482.59a2,2,0,0,1-2,2h-5a2,2,0,0,1-2-2h0a2,2,0,0,1,2-2h5a2,2,0,0,1,2,2Z" fill="#595757" />
                <path d="M476,489.59a2,2,0,0,1-2,2h-5a2,2,0,0,1-2-2h0a2,2,0,0,1,2-2h5a2,2,0,0,1,2,2Z" fill="#595757" />
                <path d="M476,495.59a2,2,0,0,1-2,2h-5a2,2,0,0,1-2-2h0a2,2,0,0,1,2-2h5a2,2,0,0,1,2,2Z" fill="#595757" />
                <path d="M476,501.59a2,2,0,0,1-2,2h-5a2,2,0,0,1-2-2h0a2,2,0,0,1,2-2h5a2,2,0,0,1,2,2Z" fill="#595757" />
                <path d="M476,508.59a2,2,0,0,1-2,2h-5a2,2,0,0,1-2-2h0a2,2,0,0,1,2-2h5a2,2,0,0,1,2,2Z" fill="#595757" />
                <path d="M476,514.59a2,2,0,0,1-2,2h-5a2,2,0,0,1-2-2h0a2,2,0,0,1,2-2h5a2,2,0,0,1,2,2Z" fill="#595757" />
                <path d="M476,521.59a2,2,0,0,1-2,2h-5a2,2,0,0,1-2-2h0a2,2,0,0,1,2-2h5a2,2,0,0,1,2,2Z" fill="#595757" />
                <path d="M476,527.59a2,2,0,0,1-2,2h-5a2,2,0,0,1-2-2h0a2,2,0,0,1,2-2h5a2,2,0,0,1,2,2Z" fill="#595757" />
                <path d="M476,533.59a2,2,0,0,1-2,2h-5a2,2,0,0,1-2-2h0a2,2,0,0,1,2-2h5a2,2,0,0,1,2,2Z" fill="#595757" />
                <path d="M476,540.59a2,2,0,0,1-2,2h-5a2,2,0,0,1-2-2h0a2,2,0,0,1,2-2h5a2,2,0,0,1,2,2Z" fill="#595757" />
                <path d="M476,546.59a2,2,0,0,1-2,2h-5a2,2,0,0,1-2-2h0a2,2,0,0,1,2-2h5a2,2,0,0,1,2,2Z" fill="#595757" />
                <path d="M476,553.59a2,2,0,0,1-2,2h-5a2,2,0,0,1-2-2h0a2,2,0,0,1,2-2h5a2,2,0,0,1,2,2Z" fill="#595757" />
                <path d="M476,559.59a2,2,0,0,1-2,2h-5a2,2,0,0,1-2-2h0a2,2,0,0,1,2-2h5a2,2,0,0,1,2,2Z" fill="#595757" />
                <path d="M476,565.59a2,2,0,0,1-2,2h-5a2,2,0,0,1-2-2h0a2,2,0,0,1,2-2h5a2,2,0,0,1,2,2Z" fill="#595757" />
                <path d="M476,572.59a2,2,0,0,1-2,2h-5a2,2,0,0,1-2-2h0a2,2,0,0,1,2-2h5a2,2,0,0,1,2,2Z" fill="#595757" />
                <path d="M476,578.59a2,2,0,0,1-2,2h-5a2,2,0,0,1-2-2h0a2,2,0,0,1,2-2h5a2,2,0,0,1,2,2Z" fill="#595757" />
                <path d="M476,585.59a2,2,0,0,1-2,2h-5a2,2,0,0,1-2-2h0a2,2,0,0,1,2-2h5a2,2,0,0,1,2,2Z" fill="#595757" />
                <path d="M476,591.59a2,2,0,0,1-2,2h-5a2,2,0,0,1-2-2h0a2,2,0,0,1,2-2h5a2,2,0,0,1,2,2Z" fill="#595757" />
                <path d="M476,597.59a2,2,0,0,1-2,2h-5a2,2,0,0,1-2-2h0a2,2,0,0,1,2-2h5a2,2,0,0,1,2,2Z" fill="#595757" />
                <path d="M476,604.59a2,2,0,0,1-2,2h-5a2,2,0,0,1-2-2h0a2,2,0,0,1,2-2h5a2,2,0,0,1,2,2Z" fill="#595757" />
                <path d="M476,610.59a2,2,0,0,1-2,2h-5a2,2,0,0,1-2-2h0a2,2,0,0,1,2-2h5a2,2,0,0,1,2,2Z" fill="#595757" />
                <path d="M476,617.59a2,2,0,0,1-2,2h-5a2,2,0,0,1-2-2h0a2,2,0,0,1,2-2h5a2,2,0,0,1,2,2Z" fill="#595757" />
                <path d="M476,623.59a2,2,0,0,1-2,2h-5a2,2,0,0,1-2-2h0a2,2,0,0,1,2-2h5a2,2,0,0,1,2,2Z" fill="#595757" />
                <path d="M476,629.59a2,2,0,0,1-2,2h-5a2,2,0,0,1-2-2h0a2,2,0,0,1,2-2h5a2,2,0,0,1,2,2Z" fill="#595757" />
                <path d="M476,636.59a2,2,0,0,1-2,2h-5a2,2,0,0,1-2-2h0a2,2,0,0,1,2-2h5a2,2,0,0,1,2,2Z" fill="#595757" />
                <path d="M476,642.59a2,2,0,0,1-2,2h-5a2,2,0,0,1-2-2h0a2,2,0,0,1,2-2h5a2,2,0,0,1,2,2Z" fill="#595757" />
                <path d="M476,649.59a2,2,0,0,1-2,2h-5a2,2,0,0,1-2-2h0a2,2,0,0,1,2-2h5a2,2,0,0,1,2,2Z" fill="#595757" />
                <path d="M476,655.59a2,2,0,0,1-2,2h-5a2,2,0,0,1-2-2h0a2,2,0,0,1,2-2h5a2,2,0,0,1,2,2Z" fill="#595757" />
                <path d="M476,661.59a2,2,0,0,1-2,2h-5a2,2,0,0,1-2-2h0a2,2,0,0,1,2-2h5a2,2,0,0,1,2,2Z" fill="#595757" />
                <path d="M476,668.59a2,2,0,0,1-2,2h-5a2,2,0,0,1-2-2h0a2,2,0,0,1,2-2h5a2,2,0,0,1,2,2Z" fill="#595757" />
            </g>
            <g>
                <path d="M476,2.29a2,2,0,0,1-2,2h-5a2,2,0,0,1-2-2h0a2,2,0,0,1,2-2h5a2,2,0,0,1,2,2Z" fill="#595757" />
                <path d="M476,9.29a2,2,0,0,1-2,2h-5a2,2,0,0,1-2-2h0a2,2,0,0,1,2-2h5a2,2,0,0,1,2,2Z" fill="#595757" />
                <path d="M476,15.29a2,2,0,0,1-2,2h-5a2,2,0,0,1-2-2h0a2,2,0,0,1,2-2h5a2,2,0,0,1,2,2Z" fill="#595757" />
                <path d="M476,22.29a2,2,0,0,1-2,2h-5a2,2,0,0,1-2-2h0a2,2,0,0,1,2-2h5a2,2,0,0,1,2,2Z" fill="#595757" />
                <path d="M476,28.29a2,2,0,0,1-2,2h-5a2,2,0,0,1-2-2h0a2,2,0,0,1,2-2h5a2,2,0,0,1,2,2Z" fill="#595757" />
                <path d="M476,34.29a2,2,0,0,1-2,2h-5a2,2,0,0,1-2-2h0a2,2,0,0,1,2-2h5a2,2,0,0,1,2,2Z" fill="#595757" />
                <path d="M476,41.29a2,2,0,0,1-2,2h-5a2,2,0,0,1-2-2h0a2,2,0,0,1,2-2h5a2,2,0,0,1,2,2Z" fill="#595757" />
                <path d="M476,47.29a2,2,0,0,1-2,2h-5a2,2,0,0,1-2-2h0a2,2,0,0,1,2-2h5a2,2,0,0,1,2,2Z" fill="#595757" />
                <path d="M476,54.29a2,2,0,0,1-2,2h-5a2,2,0,0,1-2-2h0a2,2,0,0,1,2-2h5a2,2,0,0,1,2,2Z" fill="#595757" />
                <path d="M476,60.29a2,2,0,0,1-2,2h-5a2,2,0,0,1-2-2h0a2,2,0,0,1,2-2h5a2,2,0,0,1,2,2Z" fill="#595757" />
                <path d="M476,66.29a2,2,0,0,1-2,2h-5a2,2,0,0,1-2-2h0a2,2,0,0,1,2-2h5a2,2,0,0,1,2,2Z" fill="#595757" />
                <path d="M476,73.29a2,2,0,0,1-2,2h-5a2,2,0,0,1-2-2h0a2,2,0,0,1,2-2h5a2,2,0,0,1,2,2Z" fill="#595757" />
                <path d="M476,79.29a2,2,0,0,1-2,2h-5a2,2,0,0,1-2-2h0a2,2,0,0,1,2-2h5a2,2,0,0,1,2,2Z" fill="#595757" />
                <path d="M476,86.29a2,2,0,0,1-2,2h-5a2,2,0,0,1-2-2h0a2,2,0,0,1,2-2h5a2,2,0,0,1,2,2Z" fill="#595757" />
                <path d="M476,92.29a2,2,0,0,1-2,2h-5a2,2,0,0,1-2-2h0a2,2,0,0,1,2-2h5a2,2,0,0,1,2,2Z" fill="#595757" />
                <path d="M476,98.29a2,2,0,0,1-2,2h-5a2,2,0,0,1-2-2h0a2,2,0,0,1,2-2h5a2,2,0,0,1,2,2Z" fill="#595757" />
                <path d="M476,105.29a2,2,0,0,1-2,2h-5a2,2,0,0,1-2-2h0a2,2,0,0,1,2-2h5a2,2,0,0,1,2,2Z" fill="#595757" />
                <path d="M476,111.29a2,2,0,0,1-2,2h-5a2,2,0,0,1-2-2h0a2,2,0,0,1,2-2h5a2,2,0,0,1,2,2Z" fill="#595757" />
                <path d="M476,118.29a2,2,0,0,1-2,2h-5a2,2,0,0,1-2-2h0a2,2,0,0,1,2-2h5a2,2,0,0,1,2,2Z" fill="#595757" />
                <path d="M476,124.29a2,2,0,0,1-2,2h-5a2,2,0,0,1-2-2h0a2,2,0,0,1,2-2h5a2,2,0,0,1,2,2Z" fill="#595757" />
                <path d="M476,130.29a2,2,0,0,1-2,2h-5a2,2,0,0,1-2-2h0a2,2,0,0,1,2-2h5a2,2,0,0,1,2,2Z" fill="#595757" />
                <path d="M476,137.29a2,2,0,0,1-2,2h-5a2,2,0,0,1-2-2h0a2,2,0,0,1,2-2h5a2,2,0,0,1,2,2Z" fill="#595757" />
                <path d="M476,143.29a2,2,0,0,1-2,2h-5a2,2,0,0,1-2-2h0a2,2,0,0,1,2-2h5a2,2,0,0,1,2,2Z" fill="#595757" />
                <path d="M476,150.29a2,2,0,0,1-2,2h-5a2,2,0,0,1-2-2h0a2,2,0,0,1,2-2h5a2,2,0,0,1,2,2Z" fill="#595757" />
                <path d="M476,156.29a2,2,0,0,1-2,2h-5a2,2,0,0,1-2-2h0a2,2,0,0,1,2-2h5a2,2,0,0,1,2,2Z" fill="#595757" />
                <path d="M476,162.29a2,2,0,0,1-2,2h-5a2,2,0,0,1-2-2h0a2,2,0,0,1,2-2h5a2,2,0,0,1,2,2Z" fill="#595757" />
                <path d="M476,169.29a2,2,0,0,1-2,2h-5a2,2,0,0,1-2-2h0a2,2,0,0,1,2-2h5a2,2,0,0,1,2,2Z" fill="#595757" />
                <path d="M476,175.29a2,2,0,0,1-2,2h-5a2,2,0,0,1-2-2h0a2,2,0,0,1,2-2h5a2,2,0,0,1,2,2Z" fill="#595757" />
                <path d="M476,182.29a2,2,0,0,1-2,2h-5a2,2,0,0,1-2-2h0a2,2,0,0,1,2-2h5a2,2,0,0,1,2,2Z" fill="#595757" />
                <path d="M476,188.29a2,2,0,0,1-2,2h-5a2,2,0,0,1-2-2h0a2,2,0,0,1,2-2h5a2,2,0,0,1,2,2Z" fill="#595757" />
                <path d="M476,194.29a2,2,0,0,1-2,2h-5a2,2,0,0,1-2-2h0a2,2,0,0,1,2-2h5a2,2,0,0,1,2,2Z" fill="#595757" />
                <path d="M476,201.29a2,2,0,0,1-2,2h-5a2,2,0,0,1-2-2h0a2,2,0,0,1,2-2h5a2,2,0,0,1,2,2Z" fill="#595757" />
                <path d="M476,207.29a2,2,0,0,1-2,2h-5a2,2,0,0,1-2-2h0a2,2,0,0,1,2-2h5a2,2,0,0,1,2,2Z" fill="#595757" />
                <path d="M476,214.29a2,2,0,0,1-2,2h-5a2,2,0,0,1-2-2h0a2,2,0,0,1,2-2h5a2,2,0,0,1,2,2Z" fill="#595757" />
                <path d="M476,220.29a2,2,0,0,1-2,2h-5a2,2,0,0,1-2-2h0a2,2,0,0,1,2-2h5a2,2,0,0,1,2,2Z" fill="#595757" />
                <path d="M476,226.29a2,2,0,0,1-2,2h-5a2,2,0,0,1-2-2h0a2,2,0,0,1,2-2h5a2,2,0,0,1,2,2Z" fill="#595757" />
                <path d="M476,233.29a2,2,0,0,1-2,2h-5a2,2,0,0,1-2-2h0a2,2,0,0,1,2-2h5a2,2,0,0,1,2,2Z" fill="#595757" />
                <path d="M476,239.29a2,2,0,0,1-2,2h-5a2,2,0,0,1-2-2h0a2,2,0,0,1,2-2h5a2,2,0,0,1,2,2Z" fill="#595757" />
                <path d="M476,246.29a2,2,0,0,1-2,2h-5a2,2,0,0,1-2-2h0a2,2,0,0,1,2-2h5a2,2,0,0,1,2,2Z" fill="#595757" />
                <path d="M476,252.29a2,2,0,0,1-2,2h-5a2,2,0,0,1-2-2h0a2,2,0,0,1,2-2h5a2,2,0,0,1,2,2Z" fill="#595757" />
                <path d="M476,258.29a2,2,0,0,1-2,2h-5a2,2,0,0,1-2-2h0a2,2,0,0,1,2-2h5a2,2,0,0,1,2,2Z" fill="#595757" />
                <path d="M476,265.29a2,2,0,0,1-2,2h-5a2,2,0,0,1-2-2h0a2,2,0,0,1,2-2h5a2,2,0,0,1,2,2Z" fill="#595757" />
                <path d="M476,271.29a2,2,0,0,1-2,2h-5a2,2,0,0,1-2-2h0a2,2,0,0,1,2-2h5a2,2,0,0,1,2,2Z" fill="#595757" />
                <path d="M476,278.29a2,2,0,0,1-2,2h-5a2,2,0,0,1-2-2h0a2,2,0,0,1,2-2h5a2,2,0,0,1,2,2Z" fill="#595757" />
                <path d="M476,284.29a2,2,0,0,1-2,2h-5a2,2,0,0,1-2-2h0a2,2,0,0,1,2-2h5a2,2,0,0,1,2,2Z" fill="#595757" />
                <path d="M476,290.29a2,2,0,0,1-2,2h-5a2,2,0,0,1-2-2h0a2,2,0,0,1,2-2h5a2,2,0,0,1,2,2Z" fill="#595757" />
                <path d="M476,297.29a2,2,0,0,1-2,2h-5a2,2,0,0,1-2-2h0a2,2,0,0,1,2-2h5a2,2,0,0,1,2,2Z" fill="#595757" />
                <path d="M476,303.29a2,2,0,0,1-2,2h-5a2,2,0,0,1-2-2h0a2,2,0,0,1,2-2h5a2,2,0,0,1,2,2Z" fill="#595757" />
                <path d="M476,310.29a2,2,0,0,1-2,2h-5a2,2,0,0,1-2-2h0a2,2,0,0,1,2-2h5a2,2,0,0,1,2,2Z" fill="#595757" />
                <path d="M476,316.29a2,2,0,0,1-2,2h-5a2,2,0,0,1-2-2h0a2,2,0,0,1,2-2h5a2,2,0,0,1,2,2Z" fill="#595757" />
                <path d="M476,322.29a2,2,0,0,1-2,2h-5a2,2,0,0,1-2-2h0a2,2,0,0,1,2-2h5a2,2,0,0,1,2,2Z" fill="#595757" />
                <path d="M476,329.29a2,2,0,0,1-2,2h-5a2,2,0,0,1-2-2h0a2,2,0,0,1,2-2h5a2,2,0,0,1,2,2Z" fill="#595757" />
            </g>
        </g>
    </g>
    <g id="boarding-conveyor-two">
        <g clip-path="url(#clip-path-2)">
            <g>
                <path d="M609,335.59a2,2,0,0,1-2,2h-5a2,2,0,0,1-2-2h0a2,2,0,0,1,2-2h5a2,2,0,0,1,2,2Z" fill="#595757" />
                <path d="M609,341.59a2,2,0,0,1-2,2h-5a2,2,0,0,1-2-2h0a2,2,0,0,1,2-2h5a2,2,0,0,1,2,2Z" fill="#595757" />
                <path d="M609,348.59a2,2,0,0,1-2,2h-5a2,2,0,0,1-2-2h0a2,2,0,0,1,2-2h5a2,2,0,0,1,2,2Z" fill="#595757" />
                <path d="M609,354.59a2,2,0,0,1-2,2h-5a2,2,0,0,1-2-2h0a2,2,0,0,1,2-2h5a2,2,0,0,1,2,2Z" fill="#595757" />
                <path d="M609,361.59a2,2,0,0,1-2,2h-5a2,2,0,0,1-2-2h0a2,2,0,0,1,2-2h5a2,2,0,0,1,2,2Z" fill="#595757" />
                <path d="M609,367.59a2,2,0,0,1-2,2h-5a2,2,0,0,1-2-2h0a2,2,0,0,1,2-2h5a2,2,0,0,1,2,2Z" fill="#595757" />
                <path d="M609,373.59a2,2,0,0,1-2,2h-5a2,2,0,0,1-2-2h0a2,2,0,0,1,2-2h5a2,2,0,0,1,2,2Z" fill="#595757" />
                <path d="M609,380.59a2,2,0,0,1-2,2h-5a2,2,0,0,1-2-2h0a2,2,0,0,1,2-2h5a2,2,0,0,1,2,2Z" fill="#595757" />
                <path d="M609,386.59a2,2,0,0,1-2,2h-5a2,2,0,0,1-2-2h0a2,2,0,0,1,2-2h5a2,2,0,0,1,2,2Z" fill="#595757" />
                <path d="M609,393.59a2,2,0,0,1-2,2h-5a2,2,0,0,1-2-2h0a2,2,0,0,1,2-2h5a2,2,0,0,1,2,2Z" fill="#595757" />
                <path d="M609,399.59a2,2,0,0,1-2,2h-5a2,2,0,0,1-2-2h0a2,2,0,0,1,2-2h5a2,2,0,0,1,2,2Z" fill="#595757" />
                <path d="M609,405.59a2,2,0,0,1-2,2h-5a2,2,0,0,1-2-2h0a2,2,0,0,1,2-2h5a2,2,0,0,1,2,2Z" fill="#595757" />
                <path d="M609,412.59a2,2,0,0,1-2,2h-5a2,2,0,0,1-2-2h0a2,2,0,0,1,2-2h5a2,2,0,0,1,2,2Z" fill="#595757" />
                <path d="M609,418.59a2,2,0,0,1-2,2h-5a2,2,0,0,1-2-2h0a2,2,0,0,1,2-2h5a2,2,0,0,1,2,2Z" fill="#595757" />
                <path d="M609,425.59a2,2,0,0,1-2,2h-5a2,2,0,0,1-2-2h0a2,2,0,0,1,2-2h5a2,2,0,0,1,2,2Z" fill="#595757" />
                <path d="M609,431.59a2,2,0,0,1-2,2h-5a2,2,0,0,1-2-2h0a2,2,0,0,1,2-2h5a2,2,0,0,1,2,2Z" fill="#595757" />
                <path d="M609,437.59a2,2,0,0,1-2,2h-5a2,2,0,0,1-2-2h0a2,2,0,0,1,2-2h5a2,2,0,0,1,2,2Z" fill="#595757" />
                <path d="M609,444.59a2,2,0,0,1-2,2h-5a2,2,0,0,1-2-2h0a2,2,0,0,1,2-2h5a2,2,0,0,1,2,2Z" fill="#595757" />
                <path d="M609,450.59a2,2,0,0,1-2,2h-5a2,2,0,0,1-2-2h0a2,2,0,0,1,2-2h5a2,2,0,0,1,2,2Z" fill="#595757" />
                <path d="M609,457.59a2,2,0,0,1-2,2h-5a2,2,0,0,1-2-2h0a2,2,0,0,1,2-2h5a2,2,0,0,1,2,2Z" fill="#595757" />
                <path d="M609,463.59a2,2,0,0,1-2,2h-5a2,2,0,0,1-2-2h0a2,2,0,0,1,2-2h5a2,2,0,0,1,2,2Z" fill="#595757" />
                <path d="M609,469.59a2,2,0,0,1-2,2h-5a2,2,0,0,1-2-2h0a2,2,0,0,1,2-2h5a2,2,0,0,1,2,2Z" fill="#595757" />
                <path d="M609,476.59a2,2,0,0,1-2,2h-5a2,2,0,0,1-2-2h0a2,2,0,0,1,2-2h5a2,2,0,0,1,2,2Z" fill="#595757" />
                <path d="M609,482.59a2,2,0,0,1-2,2h-5a2,2,0,0,1-2-2h0a2,2,0,0,1,2-2h5a2,2,0,0,1,2,2Z" fill="#595757" />
                <path d="M609,489.59a2,2,0,0,1-2,2h-5a2,2,0,0,1-2-2h0a2,2,0,0,1,2-2h5a2,2,0,0,1,2,2Z" fill="#595757" />
                <path d="M609,495.59a2,2,0,0,1-2,2h-5a2,2,0,0,1-2-2h0a2,2,0,0,1,2-2h5a2,2,0,0,1,2,2Z" fill="#595757" />
                <path d="M609,501.59a2,2,0,0,1-2,2h-5a2,2,0,0,1-2-2h0a2,2,0,0,1,2-2h5a2,2,0,0,1,2,2Z" fill="#595757" />
                <path d="M609,508.59a2,2,0,0,1-2,2h-5a2,2,0,0,1-2-2h0a2,2,0,0,1,2-2h5a2,2,0,0,1,2,2Z" fill="#595757" />
                <path d="M609,514.59a2,2,0,0,1-2,2h-5a2,2,0,0,1-2-2h0a2,2,0,0,1,2-2h5a2,2,0,0,1,2,2Z" fill="#595757" />
                <path d="M609,521.59a2,2,0,0,1-2,2h-5a2,2,0,0,1-2-2h0a2,2,0,0,1,2-2h5a2,2,0,0,1,2,2Z" fill="#595757" />
                <path d="M609,527.59a2,2,0,0,1-2,2h-5a2,2,0,0,1-2-2h0a2,2,0,0,1,2-2h5a2,2,0,0,1,2,2Z" fill="#595757" />
                <path d="M609,533.59a2,2,0,0,1-2,2h-5a2,2,0,0,1-2-2h0a2,2,0,0,1,2-2h5a2,2,0,0,1,2,2Z" fill="#595757" />
                <path d="M609,540.59a2,2,0,0,1-2,2h-5a2,2,0,0,1-2-2h0a2,2,0,0,1,2-2h5a2,2,0,0,1,2,2Z" fill="#595757" />
                <path d="M609,546.59a2,2,0,0,1-2,2h-5a2,2,0,0,1-2-2h0a2,2,0,0,1,2-2h5a2,2,0,0,1,2,2Z" fill="#595757" />
                <path d="M609,553.59a2,2,0,0,1-2,2h-5a2,2,0,0,1-2-2h0a2,2,0,0,1,2-2h5a2,2,0,0,1,2,2Z" fill="#595757" />
                <path d="M609,559.59a2,2,0,0,1-2,2h-5a2,2,0,0,1-2-2h0a2,2,0,0,1,2-2h5a2,2,0,0,1,2,2Z" fill="#595757" />
                <path d="M609,565.59a2,2,0,0,1-2,2h-5a2,2,0,0,1-2-2h0a2,2,0,0,1,2-2h5a2,2,0,0,1,2,2Z" fill="#595757" />
                <path d="M609,572.59a2,2,0,0,1-2,2h-5a2,2,0,0,1-2-2h0a2,2,0,0,1,2-2h5a2,2,0,0,1,2,2Z" fill="#595757" />
                <path d="M609,578.59a2,2,0,0,1-2,2h-5a2,2,0,0,1-2-2h0a2,2,0,0,1,2-2h5a2,2,0,0,1,2,2Z" fill="#595757" />
                <path d="M609,585.59a2,2,0,0,1-2,2h-5a2,2,0,0,1-2-2h0a2,2,0,0,1,2-2h5a2,2,0,0,1,2,2Z" fill="#595757" />
                <path d="M609,591.59a2,2,0,0,1-2,2h-5a2,2,0,0,1-2-2h0a2,2,0,0,1,2-2h5a2,2,0,0,1,2,2Z" fill="#595757" />
                <path d="M609,597.59a2,2,0,0,1-2,2h-5a2,2,0,0,1-2-2h0a2,2,0,0,1,2-2h5a2,2,0,0,1,2,2Z" fill="#595757" />
                <path d="M609,604.59a2,2,0,0,1-2,2h-5a2,2,0,0,1-2-2h0a2,2,0,0,1,2-2h5a2,2,0,0,1,2,2Z" fill="#595757" />
                <path d="M609,610.59a2,2,0,0,1-2,2h-5a2,2,0,0,1-2-2h0a2,2,0,0,1,2-2h5a2,2,0,0,1,2,2Z" fill="#595757" />
                <path d="M609,617.59a2,2,0,0,1-2,2h-5a2,2,0,0,1-2-2h0a2,2,0,0,1,2-2h5a2,2,0,0,1,2,2Z" fill="#595757" />
                <path d="M609,623.59a2,2,0,0,1-2,2h-5a2,2,0,0,1-2-2h0a2,2,0,0,1,2-2h5a2,2,0,0,1,2,2Z" fill="#595757" />
                <path d="M609,629.59a2,2,0,0,1-2,2h-5a2,2,0,0,1-2-2h0a2,2,0,0,1,2-2h5a2,2,0,0,1,2,2Z" fill="#595757" />
                <path d="M609,636.59a2,2,0,0,1-2,2h-5a2,2,0,0,1-2-2h0a2,2,0,0,1,2-2h5a2,2,0,0,1,2,2Z" fill="#595757" />
                <path d="M609,642.59a2,2,0,0,1-2,2h-5a2,2,0,0,1-2-2h0a2,2,0,0,1,2-2h5a2,2,0,0,1,2,2Z" fill="#595757" />
                <path d="M609,649.59a2,2,0,0,1-2,2h-5a2,2,0,0,1-2-2h0a2,2,0,0,1,2-2h5a2,2,0,0,1,2,2Z" fill="#595757" />
                <path d="M609,655.59a2,2,0,0,1-2,2h-5a2,2,0,0,1-2-2h0a2,2,0,0,1,2-2h5a2,2,0,0,1,2,2Z" fill="#595757" />
                <path d="M609,661.59a2,2,0,0,1-2,2h-5a2,2,0,0,1-2-2h0a2,2,0,0,1,2-2h5a2,2,0,0,1,2,2Z" fill="#595757" />
                <path d="M609,668.59a2,2,0,0,1-2,2h-5a2,2,0,0,1-2-2h0a2,2,0,0,1,2-2h5a2,2,0,0,1,2,2Z" fill="#595757" />
            </g>
            <g>
                <path d="M609,1.75a2,2,0,0,1-2,2h-5a2,2,0,0,1-2-2h0a2,2,0,0,1,2-2h5a2,2,0,0,1,2,2Z" fill="#595757" />
                <path d="M609,8.75a2,2,0,0,1-2,2h-5a2,2,0,0,1-2-2h0a2,2,0,0,1,2-2h5a2,2,0,0,1,2,2Z" fill="#595757" />
                <path d="M609,14.75a2,2,0,0,1-2,2h-5a2,2,0,0,1-2-2h0a2,2,0,0,1,2-2h5a2,2,0,0,1,2,2Z" fill="#595757" />
                <path d="M609,21.75a2,2,0,0,1-2,2h-5a2,2,0,0,1-2-2h0a2,2,0,0,1,2-2h5a2,2,0,0,1,2,2Z" fill="#595757" />
                <path d="M609,27.75a2,2,0,0,1-2,2h-5a2,2,0,0,1-2-2h0a2,2,0,0,1,2-2h5a2,2,0,0,1,2,2Z" fill="#595757" />
                <path d="M609,33.75a2,2,0,0,1-2,2h-5a2,2,0,0,1-2-2h0a2,2,0,0,1,2-2h5a2,2,0,0,1,2,2Z" fill="#595757" />
                <path d="M609,40.75a2,2,0,0,1-2,2h-5a2,2,0,0,1-2-2h0a2,2,0,0,1,2-2h5a2,2,0,0,1,2,2Z" fill="#595757" />
                <path d="M609,46.75a2,2,0,0,1-2,2h-5a2,2,0,0,1-2-2h0a2,2,0,0,1,2-2h5a2,2,0,0,1,2,2Z" fill="#595757" />
                <path d="M609,53.75a2,2,0,0,1-2,2h-5a2,2,0,0,1-2-2h0a2,2,0,0,1,2-2h5a2,2,0,0,1,2,2Z" fill="#595757" />
                <path d="M609,59.75a2,2,0,0,1-2,2h-5a2,2,0,0,1-2-2h0a2,2,0,0,1,2-2h5a2,2,0,0,1,2,2Z" fill="#595757" />
                <path d="M609,65.75a2,2,0,0,1-2,2h-5a2,2,0,0,1-2-2h0a2,2,0,0,1,2-2h5a2,2,0,0,1,2,2Z" fill="#595757" />
                <path d="M609,72.75a2,2,0,0,1-2,2h-5a2,2,0,0,1-2-2h0a2,2,0,0,1,2-2h5a2,2,0,0,1,2,2Z" fill="#595757" />
                <path d="M609,78.75a2,2,0,0,1-2,2h-5a2,2,0,0,1-2-2h0a2,2,0,0,1,2-2h5a2,2,0,0,1,2,2Z" fill="#595757" />
                <path d="M609,85.75a2,2,0,0,1-2,2h-5a2,2,0,0,1-2-2h0a2,2,0,0,1,2-2h5a2,2,0,0,1,2,2Z" fill="#595757" />
                <path d="M609,91.75a2,2,0,0,1-2,2h-5a2,2,0,0,1-2-2h0a2,2,0,0,1,2-2h5a2,2,0,0,1,2,2Z" fill="#595757" />
                <path d="M609,97.75a2,2,0,0,1-2,2h-5a2,2,0,0,1-2-2h0a2,2,0,0,1,2-2h5a2,2,0,0,1,2,2Z" fill="#595757" />
                <path d="M609,104.75a2,2,0,0,1-2,2h-5a2,2,0,0,1-2-2h0a2,2,0,0,1,2-2h5a2,2,0,0,1,2,2Z" fill="#595757" />
                <path d="M609,110.75a2,2,0,0,1-2,2h-5a2,2,0,0,1-2-2h0a2,2,0,0,1,2-2h5a2,2,0,0,1,2,2Z" fill="#595757" />
                <path d="M609,117.75a2,2,0,0,1-2,2h-5a2,2,0,0,1-2-2h0a2,2,0,0,1,2-2h5a2,2,0,0,1,2,2Z" fill="#595757" />
                <path d="M609,123.75a2,2,0,0,1-2,2h-5a2,2,0,0,1-2-2h0a2,2,0,0,1,2-2h5a2,2,0,0,1,2,2Z" fill="#595757" />
                <path d="M609,129.75a2,2,0,0,1-2,2h-5a2,2,0,0,1-2-2h0a2,2,0,0,1,2-2h5a2,2,0,0,1,2,2Z" fill="#595757" />
                <path d="M609,136.75a2,2,0,0,1-2,2h-5a2,2,0,0,1-2-2h0a2,2,0,0,1,2-2h5a2,2,0,0,1,2,2Z" fill="#595757" />
                <path d="M609,142.75a2,2,0,0,1-2,2h-5a2,2,0,0,1-2-2h0a2,2,0,0,1,2-2h5a2,2,0,0,1,2,2Z" fill="#595757" />
                <path d="M609,149.75a2,2,0,0,1-2,2h-5a2,2,0,0,1-2-2h0a2,2,0,0,1,2-2h5a2,2,0,0,1,2,2Z" fill="#595757" />
                <path d="M609,155.75a2,2,0,0,1-2,2h-5a2,2,0,0,1-2-2h0a2,2,0,0,1,2-2h5a2,2,0,0,1,2,2Z" fill="#595757" />
                <path d="M609,161.75a2,2,0,0,1-2,2h-5a2,2,0,0,1-2-2h0a2,2,0,0,1,2-2h5a2,2,0,0,1,2,2Z" fill="#595757" />
                <path d="M609,168.75a2,2,0,0,1-2,2h-5a2,2,0,0,1-2-2h0a2,2,0,0,1,2-2h5a2,2,0,0,1,2,2Z" fill="#595757" />
                <path d="M609,174.75a2,2,0,0,1-2,2h-5a2,2,0,0,1-2-2h0a2,2,0,0,1,2-2h5a2,2,0,0,1,2,2Z" fill="#595757" />
                <path d="M609,181.75a2,2,0,0,1-2,2h-5a2,2,0,0,1-2-2h0a2,2,0,0,1,2-2h5a2,2,0,0,1,2,2Z" fill="#595757" />
                <path d="M609,187.75a2,2,0,0,1-2,2h-5a2,2,0,0,1-2-2h0a2,2,0,0,1,2-2h5a2,2,0,0,1,2,2Z" fill="#595757" />
                <path d="M609,193.75a2,2,0,0,1-2,2h-5a2,2,0,0,1-2-2h0a2,2,0,0,1,2-2h5a2,2,0,0,1,2,2Z" fill="#595757" />
                <path d="M609,200.75a2,2,0,0,1-2,2h-5a2,2,0,0,1-2-2h0a2,2,0,0,1,2-2h5a2,2,0,0,1,2,2Z" fill="#595757" />
                <path d="M609,206.75a2,2,0,0,1-2,2h-5a2,2,0,0,1-2-2h0a2,2,0,0,1,2-2h5a2,2,0,0,1,2,2Z" fill="#595757" />
                <path d="M609,213.75a2,2,0,0,1-2,2h-5a2,2,0,0,1-2-2h0a2,2,0,0,1,2-2h5a2,2,0,0,1,2,2Z" fill="#595757" />
                <path d="M609,219.75a2,2,0,0,1-2,2h-5a2,2,0,0,1-2-2h0a2,2,0,0,1,2-2h5a2,2,0,0,1,2,2Z" fill="#595757" />
                <path d="M609,225.75a2,2,0,0,1-2,2h-5a2,2,0,0,1-2-2h0a2,2,0,0,1,2-2h5a2,2,0,0,1,2,2Z" fill="#595757" />
                <path d="M609,232.75a2,2,0,0,1-2,2h-5a2,2,0,0,1-2-2h0a2,2,0,0,1,2-2h5a2,2,0,0,1,2,2Z" fill="#595757" />
                <path d="M609,238.75a2,2,0,0,1-2,2h-5a2,2,0,0,1-2-2h0a2,2,0,0,1,2-2h5a2,2,0,0,1,2,2Z" fill="#595757" />
                <path d="M609,245.75a2,2,0,0,1-2,2h-5a2,2,0,0,1-2-2h0a2,2,0,0,1,2-2h5a2,2,0,0,1,2,2Z" fill="#595757" />
                <path d="M609,251.75a2,2,0,0,1-2,2h-5a2,2,0,0,1-2-2h0a2,2,0,0,1,2-2h5a2,2,0,0,1,2,2Z" fill="#595757" />
                <path d="M609,257.75a2,2,0,0,1-2,2h-5a2,2,0,0,1-2-2h0a2,2,0,0,1,2-2h5a2,2,0,0,1,2,2Z" fill="#595757" />
                <path d="M609,264.75a2,2,0,0,1-2,2h-5a2,2,0,0,1-2-2h0a2,2,0,0,1,2-2h5a2,2,0,0,1,2,2Z" fill="#595757" />
                <path d="M609,270.75a2,2,0,0,1-2,2h-5a2,2,0,0,1-2-2h0a2,2,0,0,1,2-2h5a2,2,0,0,1,2,2Z" fill="#595757" />
                <path d="M609,277.75a2,2,0,0,1-2,2h-5a2,2,0,0,1-2-2h0a2,2,0,0,1,2-2h5a2,2,0,0,1,2,2Z" fill="#595757" />
                <path d="M609,283.75a2,2,0,0,1-2,2h-5a2,2,0,0,1-2-2h0a2,2,0,0,1,2-2h5a2,2,0,0,1,2,2Z" fill="#595757" />
                <path d="M609,289.75a2,2,0,0,1-2,2h-5a2,2,0,0,1-2-2h0a2,2,0,0,1,2-2h5a2,2,0,0,1,2,2Z" fill="#595757" />
                <path d="M609,296.75a2,2,0,0,1-2,2h-5a2,2,0,0,1-2-2h0a2,2,0,0,1,2-2h5a2,2,0,0,1,2,2Z" fill="#595757" />
                <path d="M609,302.75a2,2,0,0,1-2,2h-5a2,2,0,0,1-2-2h0a2,2,0,0,1,2-2h5a2,2,0,0,1,2,2Z" fill="#595757" />
                <path d="M609,309.75a2,2,0,0,1-2,2h-5a2,2,0,0,1-2-2h0a2,2,0,0,1,2-2h5a2,2,0,0,1,2,2Z" fill="#595757" />
                <path d="M609,315.75a2,2,0,0,1-2,2h-5a2,2,0,0,1-2-2h0a2,2,0,0,1,2-2h5a2,2,0,0,1,2,2Z" fill="#595757" />
                <path d="M609,321.75a2,2,0,0,1-2,2h-5a2,2,0,0,1-2-2h0a2,2,0,0,1,2-2h5a2,2,0,0,1,2,2Z" fill="#595757" />
                <path d="M609,328.75a2,2,0,0,1-2,2h-5a2,2,0,0,1-2-2h0a2,2,0,0,1,2-2h5a2,2,0,0,1,2,2Z" fill="#595757" />
            </g>
        </g>
    </g>
    <g id="pointer-four">
        <path d="M1136.71,499.74h-119a3.07,3.07,0,0,1-3.07-3.07V431.53a3.07,3.07,0,0,1,3.07-3.07h119a3.08,3.08,0,0,1,3.07,3.07v65.14A3.08,3.08,0,0,1,1136.71,499.74Zm-118.62-3.5h118.18V432H1018.09Z" fill="#b3b3b3" />
        <path d="M1136.71,426h-119a3.07,3.07,0,0,1-3.07-3.07V402.48a3.07,3.07,0,0,1,3.07-3.07h119a3.08,3.08,0,0,1,3.07,3.07v20.46A3.08,3.08,0,0,1,1136.71,426Zm-118.62-3.5h118.18v-19.6H1018.09Z" fill="#b3b3b3" />
        <circle cx="1030.35" cy="484.78" r="6.01" fill="#b3b3b3" />
        <circle cx="1053.3" cy="484.78" r="6.01" fill="#b3b3b3" />
        <circle cx="1076.24" cy="484.78" r="6.01" fill="#b3b3b3" />
        <circle cx="1099.19" cy="484.78" r="6.01" fill="#b3b3b3" />
        <circle cx="1122.13" cy="484.78" r="6.01" fill="#b3b3b3" />
        <rect x="1028" y="471.03" width="94.92" height="0.8" fill="#b3b3b3" />
        <circle cx="1030.35" cy="471.43" r="2.35" fill="#b3b3b3" />
        <circle cx="1053.3" cy="471.43" r="2.35" fill="#b3b3b3" />
        <circle cx="1076.24" cy="471.43" r="2.35" fill="#b3b3b3" />
        <circle cx="1099.19" cy="471.43" r="2.35" fill="#b3b3b3" />
        <circle cx="1122.13" cy="471.43" r="2.35" fill="#b3b3b3" />
        <circle cx="1122.13" cy="444.29" r="2.79" fill="#b3b3b3" />
        <circle cx="1122.13" cy="461.31" r="2.79" fill="#b3b3b3" />
        <path d="M1122.13,457.45a.4.4,0,0,1-.4-.4v-1.51h-91v1.51a.4.4,0,0,1-.8,0v-1.91a.4.4,0,0,1,.4-.4h91.78a.4.4,0,0,1,.4.4v1.91A.4.4,0,0,1,1122.13,457.45Z" fill="#b3b3b3" />
        <path d="M1122.13,440.88a.4.4,0,0,1-.4-.4V439h-91v1.51a.4.4,0,0,1-.8,0v-1.91a.4.4,0,0,1,.4-.4h91.78a.4.4,0,0,1,.4.4v1.91A.4.4,0,0,1,1122.13,440.88Z" fill="#b3b3b3" />
        <g>
            <circle cx="1030.35" cy="444.29" r="2.79" fill="#b3b3b3" />
            <path d="M1035.76,449.65a1.32,1.32,0,0,1-1.87,0l-4.25-4.25a1.32,1.32,0,0,1,0-1.87h0a1.32,1.32,0,0,1,1.87,0l4.25,4.25a1.32,1.32,0,0,1,0,1.87Z" fill="#b3b3b3" />
        </g>
        <g>
            <circle cx="1053.29" cy="444.29" r="2.79" fill="#b3b3b3" />
            <path d="M1058.7,449.65a1.32,1.32,0,0,1-1.87,0l-4.25-4.25a1.32,1.32,0,0,1,0-1.87h0a1.32,1.32,0,0,1,1.87,0l4.25,4.25a1.32,1.32,0,0,1,0,1.87Z" fill="#b3b3b3" />
        </g>
        <g>
            <circle cx="1076.24" cy="444.29" r="2.79" fill="#b3b3b3" />
            <path d="M1081.65,449.65a1.32,1.32,0,0,1-1.87,0l-4.25-4.25a1.32,1.32,0,0,1,0-1.87h0a1.32,1.32,0,0,1,1.87,0l4.25,4.25a1.32,1.32,0,0,1,0,1.87Z" fill="#b3b3b3" />
        </g>
        <g>
            <circle cx="1099.19" cy="444.29" r="2.79" fill="#b3b3b3" />
            <path d="M1104.59,449.65a1.32,1.32,0,0,1-1.87,0l-4.25-4.25a1.32,1.32,0,0,1,0-1.87h0a1.32,1.32,0,0,1,1.87,0l4.25,4.25a1.32,1.32,0,0,1,0,1.87Z" fill="#b3b3b3" />
        </g>
        <g>
            <circle cx="1030.35" cy="411.24" r="2.79" fill="#b3b3b3" />
            <path d="M1035.76,416.59a1.32,1.32,0,0,1-1.87,0l-4.25-4.25a1.32,1.32,0,0,1,0-1.87h0a1.32,1.32,0,0,1,1.87,0l4.25,4.25a1.32,1.32,0,0,1,0,1.87Z" fill="#b3b3b3" />
        </g>
        <g>
            <circle cx="1053.29" cy="411.24" r="2.79" fill="#b3b3b3" />
            <path d="M1058.7,416.59a1.32,1.32,0,0,1-1.87,0l-4.25-4.25a1.32,1.32,0,0,1,0-1.87h0a1.32,1.32,0,0,1,1.87,0l4.25,4.25a1.32,1.32,0,0,1,0,1.87Z" fill="#b3b3b3" />
        </g>
        <g>
            <circle cx="1076.24" cy="411.24" r="2.79" fill="#b3b3b3" />
            <path d="M1081.65,416.59a1.32,1.32,0,0,1-1.87,0l-4.25-4.25a1.32,1.32,0,0,1,0-1.87h0a1.32,1.32,0,0,1,1.87,0l4.25,4.25a1.32,1.32,0,0,1,0,1.87Z" fill="#b3b3b3" />
        </g>
        <g>
            <circle cx="1099.19" cy="411.24" r="2.79" fill="#b3b3b3" />
            <path d="M1104.59,416.59a1.32,1.32,0,0,1-1.87,0l-4.25-4.25a1.32,1.32,0,0,1,0-1.87h0a1.32,1.32,0,0,1,1.87,0l4.25,4.25a1.32,1.32,0,0,1,0,1.87Z" fill="#b3b3b3" />
        </g>
        <g>
            <circle cx="1122.98" cy="411.24" r="2.79" fill="#b3b3b3" />
            <path d="M1129.6,408a1.32,1.32,0,0,1-.55,1.78l-5.32,2.8a1.32,1.32,0,0,1-1.78-.55h0a1.32,1.32,0,0,1,.55-1.78l5.32-2.8a1.32,1.32,0,0,1,1.78.55Z" fill="#b3b3b3" />
        </g>
        <g>
            <circle cx="1030.35" cy="461.31" r="2.79" fill="#b3b3b3" />
            <path d="M1036,459.48a1,1,0,0,1-.62,1.25l-4.66,1.56a1,1,0,0,1-1.25-.62h0a1,1,0,0,1,.63-1.25l4.66-1.56a1,1,0,0,1,1.25.62Z" fill="#b3b3b3" />
        </g>
        <g>
            <circle cx="1053.29" cy="461.31" r="2.79" fill="#b3b3b3" />
            <path d="M1058.91,459.48a1,1,0,0,1-.62,1.25l-4.66,1.56a1,1,0,0,1-1.25-.62h0a1,1,0,0,1,.62-1.25l4.66-1.56a1,1,0,0,1,1.25.62Z" fill="#b3b3b3" />
        </g>
        <g>
            <circle cx="1076.24" cy="461.31" r="2.79" fill="#b3b3b3" />
            <path d="M1081.86,459.48a1,1,0,0,1-.62,1.25l-4.66,1.56a1,1,0,0,1-1.25-.62h0a1,1,0,0,1,.62-1.25l4.66-1.56a1,1,0,0,1,1.25.62Z" fill="#b3b3b3" />
        </g>
        <g>
            <circle cx="1099.19" cy="461.31" r="2.79" fill="#b3b3b3" />
            <path d="M1104.8,459.48a1,1,0,0,1-.62,1.25l-4.66,1.56a1,1,0,0,1-1.25-.62h0a1,1,0,0,1,.62-1.25l4.66-1.56a1,1,0,0,1,1.25.62Z" fill="#b3b3b3" />
        </g>
    </g>
    <g id="light-group">
        <g>
            <circle cx="183.62" cy="765.5" r="12.27" fill="#fff" stroke="#cbcbcb" stroke-linecap="round" stroke-linejoin="round" stroke-width="2" />
            <circle cx="183.62" cy="765.5" r="2.82" fill="#cbcbcb" />
            <path d="M183.62,772.55a7,7,0,0,1,0-14.1" fill="none" stroke="#cbcbcb" stroke-linecap="round" stroke-linejoin="round" />
        </g>
        <g>
            <circle cx="223.55" cy="765.5" r="12.27" fill="#fff" stroke="#cbcbcb" stroke-linecap="round" stroke-linejoin="round" stroke-width="2" />
            <circle cx="223.55" cy="765.5" r="2.82" fill="#cbcbcb" />
            <path d="M223.55,772.55a7,7,0,1,1,0-14.1" fill="none" stroke="#cbcbcb" stroke-linecap="round" stroke-linejoin="round" />
        </g>
        <g>
            <circle cx="562.62" cy="765.5" r="12.27" fill="#fff" stroke="#cbcbcb" stroke-linecap="round" stroke-linejoin="round" stroke-width="2" />
            <circle cx="562.62" cy="765.5" r="2.82" fill="#cbcbcb" />
            <path d="M562.62,772.55a7,7,0,0,1,0-14.1" fill="none" stroke="#cbcbcb" stroke-linecap="round" stroke-linejoin="round" />
        </g>
        <g>
            <circle cx="602.55" cy="765.5" r="12.27" fill="#fff" stroke="#cbcbcb" stroke-linecap="round" stroke-linejoin="round" stroke-width="2" />
            <circle cx="602.55" cy="765.5" r="2.82" fill="#cbcbcb" />
            <path d="M602.55,772.55a7,7,0,1,1,0-14.1" fill="none" stroke="#cbcbcb" stroke-linecap="round" stroke-linejoin="round" />
        </g>
    </g>
    <g id="pointer-two">
        <g>
            <path d="M868,337c0,.07,0,.15,0,.22v31.47a8.8,8.8,0,0,0,8.8,8.8h4a8.8,8.8,0,0,0,8.8-8.8V337.2c0-.07,0-.15,0-.22Z" fill="#b3b3b3" />
            <g>
                <rect x="871.14" y="278.96" width="15.27" height="16.72" rx="1.32" ry="1.32" fill="#b3b3b3" />
                <rect x="869.08" y="303.61" width="19.38" height="11.15" rx="1.32" ry="1.32" fill="#b3b3b3" />
                <rect x="870.63" y="298.47" width="16.28" height="7.33" rx="1.32" ry="1.32" fill="#b3b3b3" />
                <rect x="873.47" y="294.95" width="10.6" height="5.28" rx="1.32" ry="1.32" fill="#b3b3b3" />
            </g>
            <rect x="865.22" y="311.09" width="27.1" height="27.29" rx="1.32" ry="1.32" fill="#ccc" />
            <circle cx="878.77" cy="324.87" r="10.6" fill="#f2f2f2" />
            <g>
                <circle cx="878.77" cy="324.87" r="1.73" fill="#ccc" />
                <path d="M878.77,325.27a.4.4,0,0,1-.32-.16l-4.27-5.86a.4.4,0,0,1,.65-.47l4.27,5.86a.4.4,0,0,1-.32.64Z" fill="#ccc" />
            </g>
        </g>
    </g>
</svg>