<?xml version="1.0" encoding="utf-8"?>
<!-- Generator: Adobe Illustrator 17.0.0, SVG Export Plug-In . SVG Version: 6.00 Build 0)  -->
<!DOCTYPE svg PUBLIC "-//W3C//DTD SVG 1.1//EN" "http://www.w3.org/Graphics/SVG/1.1/DTD/svg11.dtd">
<svg version="1.1" id="圖層_1" xmlns="http://www.w3.org/2000/svg" xmlns:xlink="http://www.w3.org/1999/xlink" x="0px" y="0px"
	 width="20.4px" height="20.4px" viewBox="0 0 20.4 20.4" enable-background="new 0 0 20.4 20.4" xml:space="preserve">
<g>
	<polygon fill="#24B1DA" points="11.637,7.326 10.201,8.764 8.764,7.326 7.328,8.764 8.764,10.2 7.328,11.637 8.764,13.073 
		10.201,11.637 11.637,13.073 13.074,11.637 11.637,10.2 13.074,8.764 	"/>
	<path fill="#24B1DA" d="M10.201,0C4.568,0,0,4.566,0,10.2c0,5.633,4.568,10.2,10.201,10.2c5.635,0,10.199-4.567,10.199-10.2
		C20.4,4.566,15.836,0,10.201,0z M15.947,11.637l1.435,1.437l-1.435,1.435l-1.436-1.435l-1.438,1.435l1.438,1.437l-1.438,1.436
		l-2.873-2.872l-0.359,0.36l-1.078,1.076l-1.435,1.436l-1.436-1.436l1.436-1.437l-1.436-1.435l-1.436,1.435L3.02,13.073l1.438-1.437
		L5.893,10.2L3.02,7.326l1.438-1.436l1.436,1.436l1.436-1.436L5.893,4.454l1.436-1.436l1.435,1.436l1.438,1.437l1.436-1.437
		l1.438-1.436l1.438,1.436l-1.438,1.437l1.438,1.436l1.436-1.436l1.435,1.436L14.512,10.2L15.947,11.637z"/>
</g>
</svg>
