<svg width="138.67" height="60.65" viewBox="0 0 138.67 60.65">
    <g>
        <g class="gear">
            <path d="M49.28,30.89a.81.81,0,0,1,0-1.14L60.41,18.63a.81.81,0,0,0,0-1.14l-5-5a.81.81,0,0,0-1.14,0l-5,5a.81.81,0,0,1-1.14,0l-5-5a.8.8,0,0,1,0-1.14l5-5a.8.8,0,0,0,0-1.14l-5-5A.81.81,0,0,0,42,.23l-5,5L35.89,6.37l-5,5a.81.81,0,0,1-1.14,0l-5-5L23.62,5.23l-5-5a.81.81,0,0,0-1.14,0l-5,5a.81.81,0,0,0,0,1.14l5,5a.81.81,0,0,1,0,1.14l-5,5a.81.81,0,0,1-1.14,0l-5-5a.81.81,0,0,0-1.14,0l-5,5a.81.81,0,0,0,0,1.14L11.36,29.75a.81.81,0,0,1,0,1.14l-5,5L5.23,37l-5,5a.81.81,0,0,0,0,1.14l5,5a.81.81,0,0,0,1.14,0l5-5a.81.81,0,0,1,1.14,0l5,5a.81.81,0,0,1,0,1.14l-5,5a.81.81,0,0,0,0,1.14l5,5a.81.81,0,0,0,1.14,0l5-5,1.14-1.14,3.46-3.46,1.14-1.14.4-.4a.81.81,0,0,1,1.14,0L42,60.41a.81.81,0,0,0,1.14,0l5-5a.8.8,0,0,0,0-1.14l-5-5a.8.8,0,0,1,0-1.14l5-5a.81.81,0,0,1,1.14,0l5,5a.81.81,0,0,0,1.14,0l5-5a.81.81,0,0,0,0-1.14l-5-5-1.14-1.14Zm-7.27,5A.81.81,0,0,1,42,37l-5,5a.8.8,0,0,1-1.14,0l-5-5a.8.8,0,0,0-1.14,0l-5,5a.8.8,0,0,1-1.14,0l-5-5a.81.81,0,0,1,0-1.14l5-5a.81.81,0,0,0,0-1.14l-5-5a.81.81,0,0,1,0-1.14l5-5a.81.81,0,0,1,1.14,0l5,5a.81.81,0,0,0,1.14,0l5-5a.81.81,0,0,1,1.14,0l5,5a.81.81,0,0,1,0,1.14l-5,5a.81.81,0,0,0,0,1.14Z" fill="#0080ef" />
        </g>
        <g>
            <g>
                <path d="M101.11,10.68a.89.89,0,0,0-.14-.46,6.73,6.73,0,0,0-.7-.85,12.51,12.51,0,0,0-2.55-2,7.64,7.64,0,0,0-1-.52,2.37,2.37,0,0,0-1.91-.1.36.36,0,0,1-.15,0H92.42c-.24,0-.65-.37-.65-.61a1.39,1.39,0,0,0-.3-.81,11.2,11.2,0,0,0-.72-.91,5.58,5.58,0,0,0-1.53-1.32A1.27,1.27,0,0,0,88.68,3c-1.24-.05-2.48.07-3.71-.08a4.53,4.53,0,0,0-1,.08.2.2,0,0,0-.17.3l.17.44a5,5,0,0,0,1,1.83,1,1,0,0,1,.21,1.13A6.49,6.49,0,0,1,84.4,8a2.9,2.9,0,0,1-1.77,1.12,2.55,2.55,0,0,0-.68.25,9.64,9.64,0,0,0-.85.59.52.52,0,0,1-.59,0,3.64,3.64,0,0,1-1.08-1,2,2,0,0,0-.85-.74c-.55-.18-1-.18-1.27.36A3.28,3.28,0,0,0,77,9.4c-.09.38-.15.76-.22,1.14s-.15.69-.21,1c-.1.55-.18,1.1-.31,1.64A6.77,6.77,0,0,0,76,15.07a3.93,3.93,0,0,0,.45,1.58A4.53,4.53,0,0,0,77.59,18a.7.7,0,0,0,.2.13,2.5,2.5,0,0,0,1.68.16c.15,0,.31,0,.38.12.17.37.31.76.47,1.13a2,2,0,0,0,.28.52c.21.25.46.48.7.71a.43.43,0,0,1,.13.45c-.07.22-.13.44-.22.65q-.55,1.33-1.11,2.66c-.3.69-.6,1.38-.91,2.07s-.63,1.27-.9,1.93a4,4,0,0,1-1,1.63,3.39,3.39,0,0,0-.46.46,2.35,2.35,0,0,0-.4.61,2.32,2.32,0,0,0,.15,1.91c.26.53.59.59,1.11.41a5.52,5.52,0,0,0,1.12-.67c.4-.26.77-.55,1.18-.8a5.77,5.77,0,0,0,1.73-1.27,19.12,19.12,0,0,0,1.29-2c.67-1.14,1.29-2.31,1.94-3.47l.94-1.66c.34-.62.69-1.24,1-1.86a1.12,1.12,0,0,1,.24-.22c0,.48.09.89.14,1.31a2.07,2.07,0,0,0,0,.3.88.88,0,0,1-.18.87,2.61,2.61,0,0,0-.34.52c-.38.78-.74,1.57-1.13,2.34-.3.58-.62,1.15-1,1.71s-.63.93-.91,1.42a1.87,1.87,0,0,1-1.44,1c-.18,0-.2.09-.21.24a3.94,3.94,0,0,1-.08,1,1.52,1.52,0,0,0,.34,1.6,3.05,3.05,0,0,0,.66.53,2.58,2.58,0,0,1,.27.17,3.61,3.61,0,0,0,2.77.53,9,9,0,0,0,2.46-.84c1-.44,1.92-.9,2.88-1.34a5.4,5.4,0,0,1,.87-.29.59.59,0,0,1,.77.44c.06.17.1.35.15.52a6.74,6.74,0,0,0,.93,2.07.69.69,0,0,0,.53.33A3.33,3.33,0,0,0,95.9,36a4,4,0,0,0,1.6-.89l.16-.13a2,2,0,0,0,.34-.41l.08-.13.1-.19a5.66,5.66,0,0,1,.3-.57,1.48,1.48,0,0,0-.06-1.84,1.38,1.38,0,0,1-.16-.61c0-.26,0-.52-.1-.77A4.83,4.83,0,0,0,97,28.3,6.76,6.76,0,0,0,95.36,27c-.21-.12-.43-.22-.65-.32A6,6,0,0,0,93,26.25l-.52-.05h-.38a.49.49,0,0,0-.47.74,3.72,3.72,0,0,0,.53.67c.26.29.24.43-.1.61l-.22.09c-.25.08-.5.13-.74.22l-2.48,1a1.73,1.73,0,0,1-1,.15,1.38,1.38,0,0,1,.1-.24c.43-.68.85-1.38,1.32-2a6.31,6.31,0,0,1,.84-.92c.49-.46,1-.88,1.49-1.35a1.41,1.41,0,0,0,.25-1.65,2.2,2.2,0,0,1-.16-.44.35.35,0,0,0-.38-.31.76.76,0,0,1-.34-.1c-.39-.21-.76-.44-1.14-.64a3.76,3.76,0,0,0-2-.6s0,0-.14-.05a1.78,1.78,0,0,1,.25-.16c.18-.08.37-.13.54-.22.37-.19.72-.41,1.09-.6a7,7,0,0,1,1.79-.72,4.66,4.66,0,0,1,.92-.06,2,2,0,0,0,1.26-.48c.14-.11.28-.22.43-.32a2.93,2.93,0,0,0,.92-.8c.23-.35.33-.63,0-.94-.07-.06-.08-.18-.11-.27s0-.14-.06-.21a2.11,2.11,0,0,1-.11-.47A1.38,1.38,0,0,0,93.91,15a3.52,3.52,0,0,0-1.65-.7.93.93,0,0,1-.52-.25c-.23-.24-.21-.32.12-.41l1.39-.38.82-.25a.29.29,0,0,1-.15.35c-.23.16-.47.31-.69.48a1.19,1.19,0,0,0-.19.22l.05.06.28-.09c.56-.19,1.11-.39,1.68-.55a2.89,2.89,0,0,0,1.26-.6,1,1,0,0,1,1-.2,2.08,2.08,0,0,0,.94,0,.84.84,0,0,1,.53,0,2.28,2.28,0,0,0,1.76.06c.45-.14.57-.31.57-.79S101.13,11.13,101.11,10.68Zm-16.7,4.4a6,6,0,0,1-1.22,1.64,3,3,0,0,1-1.37.72,11.13,11.13,0,0,1-1.24.14c.12-.46.22-.84.3-1.21.11-.55.24-1.11.31-1.67a10.22,10.22,0,0,0,.09-1.42c0-.39.19-.49.54-.39a3.91,3.91,0,0,1,.62.28,2.17,2.17,0,0,0,1.78.07,2.15,2.15,0,0,0,.41-.31,2.84,2.84,0,0,1,.29-.15,1.41,1.41,0,0,1,.09.29A3.85,3.85,0,0,1,84.41,15.08ZM95,9.43a.54.54,0,0,1-.06.27,7.48,7.48,0,0,1-.61.84c-.34.38-.71.74-1.08,1.09-.68.63-1.37,1.25-2,1.88-.09.09-.26.17-.11.35,0,0,0,.11-.08.13a1.88,1.88,0,0,1-1.15.35.69.69,0,0,1-.5-.26,3.21,3.21,0,0,0-1.83-1.14,4,4,0,0,1-1.41-.57.61.61,0,0,1-.11-.18.71.71,0,0,1,.19-.1,1.53,1.53,0,0,1,.29,0c.36,0,.73.07,1.1.08a.92.92,0,0,0,.85-.43,4.13,4.13,0,0,0,.36-.66.57.57,0,0,1,.39-.36c.84-.22,1.67-.42,2.5-.64.47-.13.92-.32,1.39-.45s.89-.21,1.34-.32l.34-.07C94.93,9.19,95,9.23,95,9.43Z" fill="#9e9e9f" fill-rule="evenodd" />
                <path d="M138.54,28.27A5,5,0,0,0,137,26.73a12.67,12.67,0,0,1-2-1.42c-.82-.76-1.73-1.43-2.59-2.15-.38-.32-.74-.65-1.12-1s-.88-.74-1.29-1.15-1-1-1.4-1.47-.69-.87-1-1.3c-.16-.2-.17-.31,0-.44a16,16,0,0,1,1.61-.85c.77-.32,1.58-.57,2.37-.85a.75.75,0,0,0,.52-.7c0-.45,0-.91,0-1.36a.65.65,0,0,0-.21-.54c-.53-.51-1-1-1.57-1.55a3.12,3.12,0,0,0-1.49-.91c-.6-.12-.91-.07-1.11.35a4.79,4.79,0,0,0-.26.9,3.05,3.05,0,0,1-.17.69,3.38,3.38,0,0,1-2,1.87l-.11.06c-.34.17-.68.35-1,.5a.37.37,0,0,1-.32,0,2.1,2.1,0,0,0-1-.36.6.6,0,0,1-.43-.89,2.69,2.69,0,0,1,.6-.7,6.67,6.67,0,0,1,.82-.51.35.35,0,0,0,.19-.37c0-.27,0-.35.28-.41a1.57,1.57,0,0,1,.34,0,.55.55,0,0,0,.63-.61,2.49,2.49,0,0,0-.84-2,2.31,2.31,0,0,0-.58-.31A4.14,4.14,0,0,0,122.31,9l-.22,0,0-.07a3.13,3.13,0,0,1,.49-.45c.6-.35,1.2-.7,1.83-1A4.4,4.4,0,0,1,125.88,7a.87.87,0,0,0,.77-.87c0-.36,0-.72,0-1.08a2.55,2.55,0,0,0-.73-1.9c-.09-.09-.17-.19-.27-.28a4.5,4.5,0,0,0-1.82-1,6.4,6.4,0,0,0-1-.22,12.46,12.46,0,0,0-1.68-.08,14.89,14.89,0,0,0-1.64.2c-.45.07-.91.15-1.35.25s-1,.23-1.44.37a10.57,10.57,0,0,0-1.28.43,2.74,2.74,0,0,1-1.41.29,3.14,3.14,0,0,0-.58.05.61.61,0,0,0-.58.45.91.91,0,0,0,.15.93c.54.54,1,1.13,1.6,1.65a7.21,7.21,0,0,0,1.19.88,3.67,3.67,0,0,0,1.39.49,1.58,1.58,0,0,0,1.28-.21c.35-.27.68-.56,1-.83a5.22,5.22,0,0,1,.45-.29c0,.12,0,.16,0,.21a2.48,2.48,0,0,1-.41,1.34,1.09,1.09,0,0,1-1.05.62,5.69,5.69,0,0,0-.63,0,1.62,1.62,0,0,0-.58.12c-.36.18-.4.28-.2.61a1.81,1.81,0,0,1,.34,1,.41.41,0,0,1-.17.27,4.1,4.1,0,0,1-.53.3,4,4,0,0,1-.54.26,3.68,3.68,0,0,1-1.31.19.61.61,0,0,0-.65.33.83.83,0,0,0,.07.81,13.66,13.66,0,0,0,1,1.13,5.24,5.24,0,0,0,2.12,1.37.57.57,0,0,0,.48,0c.18-.09.37-.16.6-.26,0,.44,0,.82,0,1.2s-.07.32-.32.38a1,1,0,0,0-.31.14,6.24,6.24,0,0,1-1.61.86.4.4,0,0,1-.44-.11,12.37,12.37,0,0,0-1-.94,3.53,3.53,0,0,0-1.65-.68.46.46,0,0,0-.25,0l-1.77.93-1.44.73c-.31.16-.63.32-1,.44a6.45,6.45,0,0,1-.89.24,3.16,3.16,0,0,1-.59.07h-.32c-.31,0-.45.12-.37.42a1.52,1.52,0,0,0,.35.6c.53.58,1.08,1.14,1.62,1.71a2.24,2.24,0,0,0,2.26.67c.28-.07.57-.15.85-.23s.23,0,.18.17l-.27,1a6.75,6.75,0,0,1-.26.93c-.33.76-.72,1.5-1.06,2.26a11.93,11.93,0,0,1-1.67,2.77c-.4.48-.44.48-.9,0a1.06,1.06,0,0,0-.19-.12l0,0a1.94,1.94,0,0,1,.15.35,2.66,2.66,0,0,1-.07,1.59.91.91,0,0,0-.05.36c0,.25.11.34.37.35l.81,0h.06c.09-.22.32-.16.48-.23a8.85,8.85,0,0,0,1.85-1,7.81,7.81,0,0,0,1.81-1.88c.4-.59.75-1.22,1.09-1.85.21-.38.39-.79.56-1.18s.21-.56.32-.85.16-.25.33-.16a3.82,3.82,0,0,1,.62.34c.37.28.72.59,1.07.9a1,1,0,0,0,.89.33,5,5,0,0,1,.79,0,.18.18,0,0,1,.14.11c0,.28.06.57.07.86,0,.51,0,1,0,1.55,0,.68,0,1.35,0,2,0,.32,0,.65,0,1a4.75,4.75,0,0,1,0,.81,1.7,1.7,0,0,1-.3.82A1.68,1.68,0,0,1,117,33c-.4-.05-.8-.08-1.2-.11s-.57,0-.91,0a1.12,1.12,0,0,0,.11.3c.21.27.44.53.66.79a2.72,2.72,0,0,0,.84.5.7.7,0,0,1,.3.27c.18.41.19.43.63.45h.24a1,1,0,0,1,.92.59,1,1,0,0,0,1.61.31.88.88,0,0,1,1.1-.17.69.69,0,0,0,.8-.12,3.79,3.79,0,0,0,.86-1.07,8.9,8.9,0,0,0,.83-2,3.44,3.44,0,0,0,.25-1.37c-.06-.53-.16-1.06-.26-1.59a7.14,7.14,0,0,1-.18-.81c0-.61,0-1.22-.06-1.83a13.45,13.45,0,0,1-.14-1.41c0-.5-.07-1-.12-1.5a.5.5,0,0,1,.36-.55,2.3,2.3,0,0,0,.93-.64c.12-.14.21-.28.32-.43s.27-.21.41,0c.37.51.74,1,1.1,1.55s.59.9.9,1.34.64.87.95,1.31a16.08,16.08,0,0,0,1,1.39,13.84,13.84,0,0,0,2.58,2.42,2.41,2.41,0,0,0,1.6.55,5.54,5.54,0,0,0,.66-.07,16.62,16.62,0,0,0,1.64-.41,6.18,6.18,0,0,0,1-.52c.57-.31,1.15-.61,1.72-.93A.63.63,0,0,0,138.54,28.27Zm-20.19-7.47c-.5.27-1,.52-1.52.8-.28.16-.53.38-.81.52a6.13,6.13,0,0,1-.81.29l-.08-.09.3-.8.48-1.32A.8.8,0,0,1,116,20a.48.48,0,0,1,.12-.12,1.11,1.11,0,0,0,.51-1.13.68.68,0,0,1,.06-.23.85.85,0,0,1,.24.08,5.07,5.07,0,0,1,.43.36.3.3,0,0,1,0,.44l-.35.46c0,.05-.06.11-.09.17l0,0,.65-.31a3.05,3.05,0,0,1,.31-.14.42.42,0,0,1,.55.27,2.3,2.3,0,0,1,.07.68C118.56,20.65,118.44,20.76,118.35,20.81Zm5.8-1.14a.37.37,0,0,1-.5.35l-.43-.15c-.33-.12-.37-.19-.36-.54,0,0,0-.1,0-.17a1.68,1.68,0,0,1,.25-1c.14-.21.29-.21.41,0s.28.59.43.88A1,1,0,0,1,124.15,19.66Z" fill="#9e9e9f" fill-rule="evenodd" />
            </g>
            <g>
                <path d="M80.59,50h-.71V47.7H77.34V50h-.71V44.78h.71v2.36h2.54V44.78h.71Z" fill="#9e9e9f" />
                <path d="M84.22,49.43a1.32,1.32,0,0,1-.47.48,1.29,1.29,0,0,1-.66.17,1.25,1.25,0,0,1-1-.41,1.88,1.88,0,0,1-.36-1.27V46.12h.71v2.3a1.45,1.45,0,0,0,.18.86.68.68,0,0,0,.57.23,1.16,1.16,0,0,0,.62-.15,1,1,0,0,0,.37-.43v-2.8h.71V50h-.64Z" fill="#9e9e9f" />
                <path d="M86.56,46.12l0,.58a1.41,1.41,0,0,1,.49-.48,1.3,1.3,0,0,1,.67-.17,1.27,1.27,0,0,1,1,.37,1.62,1.62,0,0,1,.35,1.14V50h-.71V47.57a1.05,1.05,0,0,0-.2-.73.81.81,0,0,0-.62-.22,1,1,0,0,0-.54.15,1.08,1.08,0,0,0-.38.4V50h-.71V46.12Z" fill="#9e9e9f" />
                <path d="M90,48.14a2.56,2.56,0,0,1,.41-1.51A1.32,1.32,0,0,1,91.5,46a1.36,1.36,0,0,1,.65.15,1.28,1.28,0,0,1,.47.43l.09-.51h.56V50a1.48,1.48,0,0,1-.43,1.15,1.79,1.79,0,0,1-1.25.4A2.64,2.64,0,0,1,91,51.5a2.34,2.34,0,0,1-.57-.21l.18-.55a1.82,1.82,0,0,0,.46.17,2.23,2.23,0,0,0,.53.07,1,1,0,0,0,.75-.24,1,1,0,0,0,.24-.72v-.44a1.24,1.24,0,0,1-.46.37,1.43,1.43,0,0,1-.61.12,1.36,1.36,0,0,1-1.12-.52A2.12,2.12,0,0,1,90,48.21Zm.71.08a1.61,1.61,0,0,0,.25.94.86.86,0,0,0,.75.36.94.94,0,0,0,.54-.15,1.1,1.1,0,0,0,.36-.41V47.16a1.09,1.09,0,0,0-.36-.39.93.93,0,0,0-.53-.15.82.82,0,0,0-.76.42,2.1,2.1,0,0,0-.25,1.09Z" fill="#9e9e9f" />
                <path d="M100,48.33v0a1.57,1.57,0,0,1-.52,1.23,2,2,0,0,1-1.41.5,1.85,1.85,0,0,1-1.45-.63,2.31,2.31,0,0,1-.56-1.6v-.93a2.32,2.32,0,0,1,.56-1.6A1.84,1.84,0,0,1,98,44.7a2,2,0,0,1,1.41.47,1.56,1.56,0,0,1,.51,1.25v0h-.68a1.17,1.17,0,0,0-.32-.87,1.24,1.24,0,0,0-.91-.32,1.11,1.11,0,0,0-.95.48,1.94,1.94,0,0,0-.35,1.18v.94a2,2,0,0,0,.35,1.19,1.11,1.11,0,0,0,.95.48,1.25,1.25,0,0,0,.91-.32,1.18,1.18,0,0,0,.32-.88Z" fill="#9e9e9f" />
                <path d="M101.49,46.64a1.44,1.44,0,0,1,.49-.44,1.35,1.35,0,0,1,.65-.16,1.26,1.26,0,0,1,1,.37,1.64,1.64,0,0,1,.35,1.15V50h-.71V47.57a1,1,0,0,0-.21-.71.79.79,0,0,0-.62-.23,1,1,0,0,0-.53.14,1.16,1.16,0,0,0-.39.38V50h-.71V44.4h.71Z" fill="#9e9e9f" />
                <path d="M106.58,50.08a1.64,1.64,0,0,1-1.29-.54,2,2,0,0,1-.48-1.4V48a2,2,0,0,1,.49-1.38,1.52,1.52,0,0,1,1.17-.55,1.47,1.47,0,0,1,1.19.47,1.89,1.89,0,0,1,.4,1.27v.44h-2.52v0a1.53,1.53,0,0,0,.28.92.91.91,0,0,0,.77.36,1.78,1.78,0,0,0,.63-.1,1.44,1.44,0,0,0,.47-.28l.28.46a1.64,1.64,0,0,1-.55.34A2.21,2.21,0,0,1,106.58,50.08Zm-.11-3.48a.77.77,0,0,0-.61.3,1.41,1.41,0,0,0-.31.75v0h1.79v-.09a1.08,1.08,0,0,0-.22-.7A.8.8,0,0,0,106.48,46.61Z" fill="#9e9e9f" />
                <path d="M109.49,46.12l0,.58a1.41,1.41,0,0,1,.49-.48,1.3,1.3,0,0,1,.67-.17,1.27,1.27,0,0,1,1,.37,1.62,1.62,0,0,1,.35,1.14V50h-.71V47.57a1.05,1.05,0,0,0-.2-.73.81.81,0,0,0-.62-.22,1,1,0,0,0-.54.15,1.08,1.08,0,0,0-.38.4V50h-.71V46.12Z" fill="#9e9e9f" />
                <path d="M115.71,49.45h2.48V50H115V44.78h.71Z" fill="#9e9e9f" />
                <path d="M119.61,45.13h-.71V44.4h.71Zm0,4.88h-.71V46.12h.71Z" fill="#9e9e9f" />
                <path d="M121.34,46.12l0,.58a1.41,1.41,0,0,1,.49-.48,1.3,1.3,0,0,1,.67-.17,1.27,1.27,0,0,1,1,.37,1.62,1.62,0,0,1,.35,1.14V50h-.71V47.57a1.05,1.05,0,0,0-.2-.73.81.81,0,0,0-.62-.22,1,1,0,0,0-.54.15,1.08,1.08,0,0,0-.38.4V50h-.71V46.12Z" fill="#9e9e9f" />
                <path d="M77.38,59.51h-.71V54.28h.71Z" fill="#9e9e9f" />
                <path d="M79.21,55.62l0,.58a1.41,1.41,0,0,1,.49-.48,1.3,1.3,0,0,1,.67-.17,1.27,1.27,0,0,1,1,.37,1.62,1.62,0,0,1,.35,1.14v2.45H81V57.07a1.05,1.05,0,0,0-.2-.73.81.81,0,0,0-.62-.22,1,1,0,0,0-.54.15,1.08,1.08,0,0,0-.38.4v2.84h-.71V55.62Z" fill="#9e9e9f" />
                <path d="M82.6,57.64a2.6,2.6,0,0,1,.4-1.51,1.29,1.29,0,0,1,1.12-.57,1.4,1.4,0,0,1,.61.13,1.24,1.24,0,0,1,.45.37V53.91h.71v5.61h-.58L85.23,59a1.26,1.26,0,0,1-.47.41,1.4,1.4,0,0,1-.64.14A1.34,1.34,0,0,1,83,59.07a2.15,2.15,0,0,1-.4-1.36Zm.71.08a1.65,1.65,0,0,0,.24.94.84.84,0,0,0,.75.35.94.94,0,0,0,.53-.14,1.07,1.07,0,0,0,.35-.4V56.65a1.09,1.09,0,0,0-.35-.38.94.94,0,0,0-.52-.14.81.81,0,0,0-.75.42,2.17,2.17,0,0,0-.24,1.09Z" fill="#9e9e9f" />
                <path d="M89.41,58.94a1.32,1.32,0,0,1-.47.48,1.29,1.29,0,0,1-.66.17,1.25,1.25,0,0,1-1-.41,1.88,1.88,0,0,1-.36-1.27V55.62h.71v2.3a1.45,1.45,0,0,0,.18.86.68.68,0,0,0,.57.23,1.16,1.16,0,0,0,.62-.15,1,1,0,0,0,.37-.43v-2.8h.71v3.89h-.64Z" fill="#9e9e9f" />
                <path d="M93.39,58.48a.48.48,0,0,0-.18-.38,1.68,1.68,0,0,0-.67-.26,2.85,2.85,0,0,1-1.07-.42.85.85,0,0,1-.36-.72,1,1,0,0,1,.4-.81,1.83,1.83,0,0,1,2.13,0,1,1,0,0,1,.38.85v0h-.68a.62.62,0,0,0-.21-.46.79.79,0,0,0-.57-.2.82.82,0,0,0-.56.17.52.52,0,0,0-.18.4A.45.45,0,0,0,92,57a1.69,1.69,0,0,0,.66.24,2.83,2.83,0,0,1,1.1.43.87.87,0,0,1,.36.73,1,1,0,0,1-.42.84,1.76,1.76,0,0,1-1.09.32,1.71,1.71,0,0,1-1.17-.38,1.08,1.08,0,0,1-.41-.88v0h.68a.65.65,0,0,0,.28.55,1.09,1.09,0,0,0,.62.17,1,1,0,0,0,.59-.15A.47.47,0,0,0,93.39,58.48Z" fill="#9e9e9f" />
                <path d="M95.91,54.69v.94h.74v.52h-.74v2.36a.53.53,0,0,0,.11.38.41.41,0,0,0,.3.11h.14l.13,0,.09.48a.62.62,0,0,1-.23.11,1.18,1.18,0,0,1-.31,0,.92.92,0,0,1-.69-.26,1.13,1.13,0,0,1-.26-.82V56.15h-.62v-.52h.62v-.94Z" fill="#9e9e9f" />
                <path d="M99.36,56.25l-.36,0a.81.81,0,0,0-.47.13.85.85,0,0,0-.3.37v2.78h-.71V55.62h.63l.07.57a1.35,1.35,0,0,1,.41-.47,1,1,0,0,1,.56-.17h.15l.12,0Z" fill="#9e9e9f" />
                <path d="M100.81,54.63h-.71v-.72h.71Zm0,4.88h-.71V55.62h.71Z" fill="#9e9e9f" />
                <path d="M104.29,59.51c0-.12,0-.22-.06-.31a2.26,2.26,0,0,1,0-.27,1.64,1.64,0,0,1-.52.47,1.32,1.32,0,0,1-.68.19,1.27,1.27,0,0,1-.93-.31,1.14,1.14,0,0,1-.32-.86,1,1,0,0,1,.45-.87,2.11,2.11,0,0,1,1.22-.31h.77v-.38a.71.71,0,0,0-.21-.54.82.82,0,0,0-.59-.2.85.85,0,0,0-.56.17.52.52,0,0,0-.21.42H102v0a.94.94,0,0,1,.4-.78,1.65,1.65,0,0,1,1.09-.35,1.61,1.61,0,0,1,1.06.34,1.19,1.19,0,0,1,.4,1v1.87a3.81,3.81,0,0,0,0,.4,2.07,2.07,0,0,0,.08.38ZM103.11,59a1.26,1.26,0,0,0,.69-.2.94.94,0,0,0,.4-.45v-.63h-.79a1,1,0,0,0-.68.22.64.64,0,0,0-.26.51.53.53,0,0,0,.16.41A.68.68,0,0,0,103.11,59Z" fill="#9e9e9f" />
                <path d="M106.71,59.51H106V53.91h.71Z" fill="#9e9e9f" />
                <path d="M113.46,57.83v0a1.57,1.57,0,0,1-.52,1.23,2,2,0,0,1-1.41.5A1.85,1.85,0,0,1,110.1,59a2.31,2.31,0,0,1-.56-1.6v-.93a2.32,2.32,0,0,1,.56-1.6,1.84,1.84,0,0,1,1.45-.63,2,2,0,0,1,1.41.47,1.56,1.56,0,0,1,.51,1.25v0h-.68a1.17,1.17,0,0,0-.32-.87,1.24,1.24,0,0,0-.91-.32,1.11,1.11,0,0,0-.95.48,1.94,1.94,0,0,0-.35,1.18v.94a2,2,0,0,0,.35,1.19,1.11,1.11,0,0,0,.95.48,1.25,1.25,0,0,0,.91-.32,1.18,1.18,0,0,0,.32-.88Z" fill="#9e9e9f" />
                <path d="M114.12,57.53a2.14,2.14,0,0,1,.47-1.42,1.73,1.73,0,0,1,2.55,0,2.13,2.13,0,0,1,.47,1.42v.08a2.13,2.13,0,0,1-.47,1.42,1.74,1.74,0,0,1-2.55,0,2.13,2.13,0,0,1-.47-1.42Zm.71.08a1.84,1.84,0,0,0,.26,1,.94.94,0,0,0,1.54,0,1.83,1.83,0,0,0,.26-1v-.08a1.83,1.83,0,0,0-.26-1,.87.87,0,0,0-.77-.41.86.86,0,0,0-.77.41,1.85,1.85,0,0,0-.26,1Z" fill="#9e9e9f" />
                <path d="M119.24,59.51h-.71v-.73h.71Z" fill="#9e9e9f" />
                <path d="M121.06,59.34l-.54,1.1h-.42l.25-1.14v-.59h.71Z" fill="#9e9e9f" />
                <path d="M122.73,59h2.48v.56H122V54.28h.71Z" fill="#9e9e9f" />
                <path d="M126.8,54.69v.94h.74v.52h-.74v2.36a.53.53,0,0,0,.11.38.41.41,0,0,0,.3.11h.14l.13,0,.09.48a.62.62,0,0,1-.23.11,1.18,1.18,0,0,1-.31,0,.92.92,0,0,1-.69-.26,1.13,1.13,0,0,1-.26-.82V56.15h-.62v-.52h.62v-.94Z" fill="#9e9e9f" />
                <path d="M128.25,57.64a2.6,2.6,0,0,1,.4-1.51,1.29,1.29,0,0,1,1.12-.57,1.4,1.4,0,0,1,.61.13,1.24,1.24,0,0,1,.45.37V53.91h.71v5.61H131l-.08-.48a1.26,1.26,0,0,1-.47.41,1.4,1.4,0,0,1-.64.14,1.34,1.34,0,0,1-1.11-.52,2.15,2.15,0,0,1-.4-1.36Zm.71.08a1.65,1.65,0,0,0,.24.94.84.84,0,0,0,.75.35.94.94,0,0,0,.53-.14,1.07,1.07,0,0,0,.35-.4V56.65a1.09,1.09,0,0,0-.35-.38.94.94,0,0,0-.52-.14.81.81,0,0,0-.75.42,2.17,2.17,0,0,0-.24,1.09Z" fill="#9e9e9f" />
                <path d="M133.37,59.51h-.71v-.73h.71Z" fill="#9e9e9f" />
            </g>
        </g>
    </g>
</svg>