<svg xmlns="http://www.w3.org/2000/svg" width="139.03" height="58.06" viewBox="0 0 139.03 58.06">
    <defs>
        <style>
        .cls-1,
        .cls-2 {
            fill: #9e9e9f;
        }

        .cls-1 {
            fill-rule: evenodd;
        }

        .cls-3 {
            fill: #0080ef;
        }
        </style>
    </defs>
    <g>
        <g>
            <g>
                <path class="cls-1" d="M96.81,10.23a.85.85,0,0,0-.13-.44A6.44,6.44,0,0,0,96,9a12,12,0,0,0-2.44-1.9,7.31,7.31,0,0,0-1-.49,2.27,2.27,0,0,0-1.83-.1.35.35,0,0,1-.14,0H88.49c-.23,0-.63-.35-.62-.58a1.33,1.33,0,0,0-.29-.78,10.72,10.72,0,0,0-.69-.88A5.35,5.35,0,0,0,85.42,3a1.21,1.21,0,0,0-.51-.14c-1.18-.05-2.37.07-3.56-.08a4.34,4.34,0,0,0-1,.08.19.19,0,0,0-.16.29l.16.42a4.77,4.77,0,0,0,.94,1.75,1,1,0,0,1,.2,1.08,6.21,6.21,0,0,1-.7,1.28,2.77,2.77,0,0,1-1.69,1.07,2.44,2.44,0,0,0-.65.24,9.23,9.23,0,0,0-.82.56.49.49,0,0,1-.56,0,3.49,3.49,0,0,1-1-1,1.94,1.94,0,0,0-.82-.71c-.53-.17-.94-.17-1.22.35a3.14,3.14,0,0,0-.25.74c-.09.36-.15.73-.22,1.09s-.14.66-.2,1c-.1.53-.17,1.06-.3,1.57a6.49,6.49,0,0,0-.3,1.78,3.76,3.76,0,0,0,.43,1.52,4.34,4.34,0,0,0,1.11,1.33.67.67,0,0,0,.19.13,2.4,2.4,0,0,0,1.61.15c.14,0,.3,0,.36.11.16.36.3.72.45,1.08a2,2,0,0,0,.27.5c.2.24.44.46.67.68a.41.41,0,0,1,.13.43c-.07.21-.13.42-.21.63q-.52,1.27-1.06,2.54c-.28.66-.57,1.32-.87,2s-.6,1.22-.86,1.84a3.87,3.87,0,0,1-1,1.56,3.25,3.25,0,0,0-.44.44,2.25,2.25,0,0,0-.38.58,2.22,2.22,0,0,0,.14,1.83c.25.51.56.57,1.06.39a5.28,5.28,0,0,0,1.07-.64c.38-.25.74-.53,1.13-.76a5.52,5.52,0,0,0,1.66-1.21,18.31,18.31,0,0,0,1.24-1.9c.64-1.1,1.24-2.21,1.86-3.32l.9-1.59c.33-.59.66-1.19,1-1.78a1.07,1.07,0,0,1,.23-.21c0,.46.09.86.13,1.25a2,2,0,0,0,0,.28.84.84,0,0,1-.17.83,2.5,2.5,0,0,0-.33.5c-.37.74-.71,1.5-1.09,2.24-.28.55-.6,1.1-.91,1.63s-.6.89-.87,1.36a1.79,1.79,0,0,1-1.38,1c-.17,0-.19.09-.2.23a3.77,3.77,0,0,1-.08.94,1.45,1.45,0,0,0,.33,1.53,2.92,2.92,0,0,0,.63.51,2.47,2.47,0,0,1,.26.16,3.46,3.46,0,0,0,2.65.51,8.57,8.57,0,0,0,2.35-.81c.92-.42,1.83-.87,2.76-1.28a5.17,5.17,0,0,1,.83-.27.56.56,0,0,1,.74.42c.05.16.1.33.15.5a6.45,6.45,0,0,0,.89,2,.66.66,0,0,0,.51.32,3.19,3.19,0,0,0,1.14-.11,3.79,3.79,0,0,0,1.54-.85l.15-.12a1.9,1.9,0,0,0,.33-.39l.08-.13.09-.18a5.42,5.42,0,0,1,.29-.55,1.42,1.42,0,0,0-.05-1.76,1.33,1.33,0,0,1-.16-.58c0-.24,0-.5-.09-.73a4.63,4.63,0,0,0-1.08-2,6.47,6.47,0,0,0-1.6-1.26c-.2-.11-.41-.21-.62-.3a5.77,5.77,0,0,0-1.61-.4l-.5-.05h-.37a.47.47,0,0,0-.45.71,3.56,3.56,0,0,0,.5.65c.25.27.23.42-.1.59l-.21.08c-.24.07-.48.12-.71.21l-2.37,1a1.66,1.66,0,0,1-1,.14,1.32,1.32,0,0,1,.09-.23c.42-.66.82-1.32,1.26-2a6,6,0,0,1,.81-.88c.47-.44,1-.84,1.42-1.29a1.35,1.35,0,0,0,.24-1.58,2.11,2.11,0,0,1-.15-.42.34.34,0,0,0-.36-.3.73.73,0,0,1-.32-.1c-.37-.2-.73-.42-1.1-.61a3.6,3.6,0,0,0-1.89-.57s0,0-.13,0a1.7,1.7,0,0,1,.24-.16c.17-.08.35-.13.51-.21.35-.19.69-.39,1-.58a6.73,6.73,0,0,1,1.72-.69,4.46,4.46,0,0,1,.88-.05,1.91,1.91,0,0,0,1.21-.46c.13-.11.27-.22.41-.31a2.81,2.81,0,0,0,.88-.77c.22-.34.32-.61,0-.9-.06-.05-.07-.17-.11-.26s0-.13-.05-.2a2,2,0,0,1-.11-.45,1.32,1.32,0,0,0-.44-1,3.37,3.37,0,0,0-1.58-.67.89.89,0,0,1-.5-.24c-.22-.23-.2-.3.11-.39l1.34-.36.79-.24a.28.28,0,0,1-.14.33l-.67.46a1.14,1.14,0,0,0-.18.21l0,.06.27-.08c.54-.18,1.07-.37,1.61-.53a2.76,2.76,0,0,0,1.21-.58,1,1,0,0,1,1-.19,2,2,0,0,0,.9,0,.8.8,0,0,1,.5,0,2.19,2.19,0,0,0,1.69.06c.43-.13.55-.29.55-.75S96.83,10.65,96.81,10.23Zm-16,4.21A5.75,5.75,0,0,1,79.65,16a2.86,2.86,0,0,1-1.32.69,10.66,10.66,0,0,1-1.19.13c.11-.44.21-.8.29-1.16.11-.53.23-1.06.3-1.6a9.78,9.78,0,0,0,.08-1.36c0-.37.19-.47.52-.37a3.74,3.74,0,0,1,.6.27,2.08,2.08,0,0,0,1.7.06,2.06,2.06,0,0,0,.39-.29,2.72,2.72,0,0,1,.28-.14,1.35,1.35,0,0,1,.08.28A3.68,3.68,0,0,1,80.82,14.44ZM90.92,9a.52.52,0,0,1-.06.26,7.16,7.16,0,0,1-.58.8c-.33.36-.68.71-1,1-.65.61-1.31,1.2-2,1.8-.09.08-.25.16-.11.34,0,0,0,.11-.08.12a1.8,1.8,0,0,1-1.1.33.66.66,0,0,1-.48-.25,3.07,3.07,0,0,0-1.75-1.09,3.87,3.87,0,0,1-1.35-.54.59.59,0,0,1-.11-.18.68.68,0,0,1,.18-.1,1.47,1.47,0,0,1,.28,0c.34,0,.7.06,1.05.08a.88.88,0,0,0,.81-.41,4,4,0,0,0,.34-.63.54.54,0,0,1,.38-.35c.8-.21,1.6-.4,2.39-.62.45-.12.88-.3,1.33-.43s.85-.2,1.28-.3l.32-.07C90.88,8.8,90.93,8.83,90.92,9Z" />
                <path class="cls-1" d="M132.64,27.07a4.78,4.78,0,0,0-1.48-1.48,12.13,12.13,0,0,1-1.88-1.36c-.78-.73-1.65-1.37-2.48-2.06-.37-.3-.71-.63-1.07-.94s-.84-.71-1.24-1.1-.91-.92-1.34-1.41-.66-.83-1-1.24c-.15-.19-.16-.3,0-.42a15.3,15.3,0,0,1,1.55-.82c.74-.31,1.51-.55,2.26-.82a.72.72,0,0,0,.49-.67c0-.44,0-.87,0-1.31a.62.62,0,0,0-.2-.52c-.5-.49-1-1-1.5-1.48a3,3,0,0,0-1.43-.88c-.57-.11-.87-.06-1.06.33a4.59,4.59,0,0,0-.25.86,2.92,2.92,0,0,1-.16.66A3.24,3.24,0,0,1,120,14.22l-.11.06c-.32.16-.65.33-1,.48a.36.36,0,0,1-.31,0,2,2,0,0,0-.92-.35.57.57,0,0,1-.41-.85,2.57,2.57,0,0,1,.57-.67,6.39,6.39,0,0,1,.79-.49.33.33,0,0,0,.19-.36c0-.26,0-.34.26-.39a1.51,1.51,0,0,1,.33,0A.52.52,0,0,0,120,11a2.38,2.38,0,0,0-.8-1.88,2.21,2.21,0,0,0-.56-.3,4,4,0,0,0-1.59-.21l-.21,0,0-.07a3,3,0,0,1,.47-.43c.57-.34,1.15-.67,1.75-1a4.21,4.21,0,0,1,1.45-.43.83.83,0,0,0,.74-.83c0-.34,0-.69,0-1a2.44,2.44,0,0,0-.7-1.82c-.09-.09-.17-.19-.26-.27a4.31,4.31,0,0,0-1.74-1,6.13,6.13,0,0,0-1-.21A11.93,11.93,0,0,0,116,1.51a14.26,14.26,0,0,0-1.57.19c-.43.06-.87.14-1.29.24s-.92.22-1.37.36a10.12,10.12,0,0,0-1.23.41,2.62,2.62,0,0,1-1.35.28,3,3,0,0,0-.55.05.58.58,0,0,0-.55.43.87.87,0,0,0,.14.89c.52.52,1,1.08,1.53,1.58a6.91,6.91,0,0,0,1.14.85,3.51,3.51,0,0,0,1.33.47,1.51,1.51,0,0,0,1.23-.2c.33-.26.65-.54,1-.8a5,5,0,0,1,.43-.27c0,.11,0,.16,0,.2a2.38,2.38,0,0,1-.39,1.28,1,1,0,0,1-1,.59,5.44,5.44,0,0,0-.6,0,1.55,1.55,0,0,0-.55.12c-.35.17-.38.27-.19.58a1.73,1.73,0,0,1,.33,1,.39.39,0,0,1-.16.26,3.93,3.93,0,0,1-.51.29,3.81,3.81,0,0,1-.52.25,3.52,3.52,0,0,1-1.26.19.58.58,0,0,0-.62.32.8.8,0,0,0,.07.78,13.08,13.08,0,0,0,.92,1.09,5,5,0,0,0,2,1.31.54.54,0,0,0,.46,0c.17-.09.35-.16.57-.25,0,.42,0,.78,0,1.15s-.07.3-.31.36a1,1,0,0,0-.29.13,6,6,0,0,1-1.54.82.38.38,0,0,1-.43-.1,11.85,11.85,0,0,0-.94-.9,3.38,3.38,0,0,0-1.58-.65.44.44,0,0,0-.24,0l-1.7.89-1.38.7c-.3.15-.6.3-.92.42a6.18,6.18,0,0,1-.85.23,3,3,0,0,1-.57.06h-.31c-.29,0-.43.12-.36.4a1.45,1.45,0,0,0,.34.58c.51.56,1,1.1,1.55,1.64a2.14,2.14,0,0,0,2.16.64c.27-.06.54-.15.81-.22s.22,0,.17.16l-.26,1a6.46,6.46,0,0,1-.25.89c-.32.73-.69,1.43-1,2.16a11.42,11.42,0,0,1-1.6,2.65c-.38.46-.42.46-.86,0a1,1,0,0,0-.18-.11l0,0a1.86,1.86,0,0,1,.15.33,2.55,2.55,0,0,1-.07,1.52.87.87,0,0,0-.05.34c0,.24.11.33.35.34H104c.08-.21.31-.16.46-.22a8.48,8.48,0,0,0,1.77-1,7.48,7.48,0,0,0,1.73-1.8c.38-.57.71-1.17,1-1.77.2-.37.37-.75.54-1.13s.2-.54.3-.81.15-.24.32-.15a3.66,3.66,0,0,1,.6.32c.35.27.69.57,1,.86a1,1,0,0,0,.85.31,4.82,4.82,0,0,1,.76,0,.18.18,0,0,1,.13.11c0,.27.06.55.07.82,0,.49,0,1,0,1.48,0,.65,0,1.3,0,1.94,0,.31,0,.62,0,.93a4.55,4.55,0,0,1,0,.78,1.62,1.62,0,0,1-.28.78,1.61,1.61,0,0,1-1.47.67c-.38,0-.76-.08-1.15-.11s-.55,0-.88,0a1.07,1.07,0,0,0,.11.29c.2.26.42.51.64.76a2.61,2.61,0,0,0,.81.48.67.67,0,0,1,.29.26c.17.4.18.42.6.43h.23a1,1,0,0,1,.88.56.92.92,0,0,0,1.54.3.84.84,0,0,1,1.05-.17.66.66,0,0,0,.77-.11,3.63,3.63,0,0,0,.82-1,8.52,8.52,0,0,0,.79-1.9,3.29,3.29,0,0,0,.24-1.31c-.06-.51-.16-1-.25-1.52a6.84,6.84,0,0,1-.17-.78c0-.58,0-1.17-.06-1.75a12.88,12.88,0,0,1-.14-1.35c0-.48-.07-1-.11-1.43a.47.47,0,0,1,.35-.52,2.2,2.2,0,0,0,.89-.61c.11-.13.21-.27.3-.41s.26-.2.39,0c.36.49.71,1,1.05,1.48s.57.86.86,1.28.61.83.91,1.26a15.39,15.39,0,0,0,.93,1.34,13.25,13.25,0,0,0,2.47,2.32,2.3,2.3,0,0,0,1.53.52,5.3,5.3,0,0,0,.63-.07,15.91,15.91,0,0,0,1.57-.4,5.91,5.91,0,0,0,.92-.49c.55-.3,1.1-.58,1.64-.89A.6.6,0,0,0,132.64,27.07Zm-19.33-7.15c-.48.26-1,.5-1.45.77-.27.15-.5.36-.78.5a5.87,5.87,0,0,1-.78.27l-.08-.09.29-.77.46-1.27a.77.77,0,0,1,.1-.18.46.46,0,0,1,.12-.12,1.06,1.06,0,0,0,.49-1.08.65.65,0,0,1,.05-.22.82.82,0,0,1,.23.08,4.85,4.85,0,0,1,.41.35.28.28,0,0,1,0,.42L112,19s-.06.11-.09.16l0,0,.62-.3a2.92,2.92,0,0,1,.3-.13.4.4,0,0,1,.53.26,2.2,2.2,0,0,1,.06.65C113.51,19.77,113.4,19.87,113.31,19.92Zm5.55-1.09a.35.35,0,0,1-.48.33L118,19c-.32-.12-.35-.18-.34-.52,0,0,0-.1,0-.17a1.61,1.61,0,0,1,.23-.92c.13-.2.28-.21.4,0s.27.57.42.85A.93.93,0,0,1,118.86,18.83Z" />
            </g>
            <g>
                <path class="cls-2" d="M77.16,47.88h-.68V45.67H74v2.21h-.68v-5H74v2.26h2.43V42.87h.68Z" />
                <path class="cls-2" d="M80.63,47.33a1.27,1.27,0,0,1-.45.46,1.23,1.23,0,0,1-.64.16,1.2,1.2,0,0,1-.95-.39,1.81,1.81,0,0,1-.34-1.21V44.16h.68v2.2a1.38,1.38,0,0,0,.18.82.65.65,0,0,0,.55.22,1.11,1.11,0,0,0,.6-.15.91.91,0,0,0,.36-.41V44.16h.68v3.72h-.61Z" />
                <path class="cls-2" d="M82.88,44.16l0,.55a1.35,1.35,0,0,1,.47-.46,1.25,1.25,0,0,1,.64-.16,1.21,1.21,0,0,1,.93.35,1.55,1.55,0,0,1,.33,1.09v2.35h-.68V45.54a1,1,0,0,0-.19-.7.78.78,0,0,0-.59-.21,1,1,0,0,0-.52.14,1,1,0,0,0-.36.39v2.71h-.68V44.16Z" />
                <path class="cls-2" d="M86.13,46.09a2.44,2.44,0,0,1,.39-1.45,1.26,1.26,0,0,1,1.08-.55,1.31,1.31,0,0,1,.62.14,1.22,1.22,0,0,1,.45.41l.08-.48h.54V47.9a1.42,1.42,0,0,1-.42,1.1,1.71,1.71,0,0,1-1.2.38,2.52,2.52,0,0,1-.58-.07,2.29,2.29,0,0,1-.55-.2l.17-.53a1.75,1.75,0,0,0,.44.17,2.12,2.12,0,0,0,.51.06,1,1,0,0,0,.72-.23.94.94,0,0,0,.23-.69v-.42a1.18,1.18,0,0,1-.44.35,1.37,1.37,0,0,1-.58.12,1.3,1.3,0,0,1-1.08-.5,2,2,0,0,1-.39-1.3Zm.68.07a1.55,1.55,0,0,0,.24.9.82.82,0,0,0,.72.34.9.9,0,0,0,.51-.14,1.05,1.05,0,0,0,.34-.39V45.16a1.06,1.06,0,0,0-.34-.38.9.9,0,0,0-.51-.14A.79.79,0,0,0,87,45a2,2,0,0,0-.24,1Z" />
                <path class="cls-2" d="M95.7,46.27v0a1.51,1.51,0,0,1-.5,1.18,1.89,1.89,0,0,1-1.35.48,1.77,1.77,0,0,1-1.39-.6,2.22,2.22,0,0,1-.54-1.53v-.89a2.22,2.22,0,0,1,.54-1.53,1.76,1.76,0,0,1,1.39-.6,1.94,1.94,0,0,1,1.35.45,1.5,1.5,0,0,1,.49,1.2v0h-.65a1.12,1.12,0,0,0-.31-.83,1.19,1.19,0,0,0-.87-.31,1.07,1.07,0,0,0-.91.46,1.86,1.86,0,0,0-.34,1.13v.9A1.87,1.87,0,0,0,93,47a1.07,1.07,0,0,0,.91.46,1.19,1.19,0,0,0,.87-.3,1.13,1.13,0,0,0,.31-.84Z" />
                <path class="cls-2" d="M97.17,44.66a1.38,1.38,0,0,1,.47-.42,1.3,1.3,0,0,1,.62-.15,1.2,1.2,0,0,1,.93.36,1.58,1.58,0,0,1,.33,1.1v2.33h-.68V45.54a1,1,0,0,0-.2-.68.75.75,0,0,0-.59-.22,1,1,0,0,0-.51.13,1.11,1.11,0,0,0-.38.36v2.75H96.5V42.51h.68Z" />
                <path class="cls-2" d="M102,48a1.57,1.57,0,0,1-1.24-.52,2,2,0,0,1-.46-1.34v-.15a1.91,1.91,0,0,1,.47-1.32,1.46,1.46,0,0,1,1.12-.53,1.41,1.41,0,0,1,1.14.45,1.81,1.81,0,0,1,.39,1.21v.42h-2.42v0a1.47,1.47,0,0,0,.27.88.87.87,0,0,0,.73.34,1.7,1.7,0,0,0,.6-.1,1.39,1.39,0,0,0,.45-.27l.26.44a1.57,1.57,0,0,1-.53.33A2.11,2.11,0,0,1,102,48Zm-.1-3.33a.74.74,0,0,0-.58.29,1.35,1.35,0,0,0-.3.72v0h1.72v-.09a1,1,0,0,0-.21-.67A.76.76,0,0,0,101.94,44.62Z" />
                <path class="cls-2" d="M104.83,44.16l0,.55a1.35,1.35,0,0,1,.47-.46,1.25,1.25,0,0,1,.64-.16,1.21,1.21,0,0,1,.93.35,1.55,1.55,0,0,1,.33,1.09v2.35h-.68V45.54a1,1,0,0,0-.19-.7.78.78,0,0,0-.59-.21,1,1,0,0,0-.52.14,1,1,0,0,0-.36.39v2.71h-.68V44.16Z" />
                <path class="cls-2" d="M74,56.45h2.37V57h-3V52H74Z" />
                <path class="cls-2" d="M77.78,52.3H77.1v-.69h.68Zm0,4.68H77.1V53.26h.68Z" />
                <path class="cls-2" d="M79.43,53.26l0,.55a1.35,1.35,0,0,1,.47-.46,1.25,1.25,0,0,1,.64-.16,1.21,1.21,0,0,1,.93.35,1.55,1.55,0,0,1,.33,1.09V57h-.68V54.64a1,1,0,0,0-.19-.7.78.78,0,0,0-.59-.21,1,1,0,0,0-.52.14,1,1,0,0,0-.36.39V57h-.68V53.26Z" />
                <path class="cls-2" d="M85.42,57h-.68V52h.68Z" />
                <path class="cls-2" d="M87.18,53.26l0,.55a1.35,1.35,0,0,1,.47-.46,1.25,1.25,0,0,1,.64-.16,1.21,1.21,0,0,1,.93.35,1.55,1.55,0,0,1,.33,1.09V57h-.68V54.64a1,1,0,0,0-.19-.7.78.78,0,0,0-.59-.21,1,1,0,0,0-.52.14,1,1,0,0,0-.36.39V57h-.68V53.26Z" />
                <path class="cls-2" d="M90.42,55.19a2.48,2.48,0,0,1,.38-1.45,1.24,1.24,0,0,1,1.08-.55,1.34,1.34,0,0,1,.58.12,1.19,1.19,0,0,1,.43.35v-2h.68V57H93l-.08-.46a1.21,1.21,0,0,1-.45.4,1.35,1.35,0,0,1-.62.13,1.28,1.28,0,0,1-1.07-.49,2.05,2.05,0,0,1-.39-1.3Zm.68.07a1.58,1.58,0,0,0,.23.9.81.81,0,0,0,.72.34.9.9,0,0,0,.51-.14,1,1,0,0,0,.34-.39V54.24a1,1,0,0,0-.34-.37.9.9,0,0,0-.5-.14.78.78,0,0,0-.72.4,2.08,2.08,0,0,0-.23,1Z" />
                <path class="cls-2" d="M96.94,56.43a1.27,1.27,0,0,1-.45.46,1.23,1.23,0,0,1-.64.16,1.2,1.2,0,0,1-.95-.39,1.81,1.81,0,0,1-.34-1.21V53.26h.68v2.2a1.38,1.38,0,0,0,.18.82.65.65,0,0,0,.55.22,1.11,1.11,0,0,0,.6-.15.91.91,0,0,0,.36-.41V53.26h.68V57H97Z" />
                <path class="cls-2" d="M100.75,56a.46.46,0,0,0-.17-.37,1.6,1.6,0,0,0-.65-.25,2.72,2.72,0,0,1-1-.4.81.81,0,0,1-.34-.69,1,1,0,0,1,.39-.77,1.75,1.75,0,0,1,2,0,1,1,0,0,1,.37.81v0h-.65a.59.59,0,0,0-.2-.44.75.75,0,0,0-.54-.19.78.78,0,0,0-.54.16.5.5,0,0,0-.18.38.43.43,0,0,0,.15.35,1.6,1.6,0,0,0,.63.23,2.71,2.71,0,0,1,1,.41.83.83,0,0,1,.34.7,1,1,0,0,1-.4.8,1.68,1.68,0,0,1-1,.31,1.64,1.64,0,0,1-1.12-.36,1,1,0,0,1-.39-.84v0h.65a.62.62,0,0,0,.27.53,1,1,0,0,0,.59.17,1,1,0,0,0,.57-.15A.45.45,0,0,0,100.75,56Z" />
                <path class="cls-2" d="M103.16,52.36v.9h.71v.5h-.71V56a.51.51,0,0,0,.11.37.39.39,0,0,0,.29.11h.13l.13,0,.09.46a.6.6,0,0,1-.22.1,1.12,1.12,0,0,1-.29,0,.88.88,0,0,1-.66-.25,1.08,1.08,0,0,1-.24-.78V53.76h-.59v-.5h.59v-.9Z" />
                <path class="cls-2" d="M106.47,53.85l-.35,0a.78.78,0,0,0-.45.13.82.82,0,0,0-.28.36V57h-.68V53.26h.61l.07.54a1.29,1.29,0,0,1,.39-.45.91.91,0,0,1,.53-.16h.14l.11,0Z" />
                <path class="cls-2" d="M107.85,52.3h-.68v-.69h.68Zm0,4.68h-.68V53.26h.68Z" />
                <path class="cls-2" d="M111.19,57q0-.17-.05-.3a2.19,2.19,0,0,1,0-.26,1.58,1.58,0,0,1-.49.45,1.26,1.26,0,0,1-.66.18,1.21,1.21,0,0,1-.89-.3,1.09,1.09,0,0,1-.3-.82,1,1,0,0,1,.43-.83,2,2,0,0,1,1.17-.3h.74v-.37a.68.68,0,0,0-.2-.52.78.78,0,0,0-.56-.19.81.81,0,0,0-.53.17.5.5,0,0,0-.21.4H109v0a.9.9,0,0,1,.38-.74,1.58,1.58,0,0,1,1-.34,1.54,1.54,0,0,1,1,.32,1.14,1.14,0,0,1,.39.93v1.79a3.52,3.52,0,0,0,0,.39,2,2,0,0,0,.08.36Zm-1.13-.5a1.21,1.21,0,0,0,.66-.19.9.9,0,0,0,.39-.43v-.6h-.76a1,1,0,0,0-.66.21.62.62,0,0,0-.25.48.51.51,0,0,0,.15.39A.65.65,0,0,0,110.06,56.48Z" />
                <path class="cls-2" d="M113.5,57h-.68V51.61h.68Z" />
                <path class="cls-2" d="M120,55.37v0a1.51,1.51,0,0,1-.5,1.18,1.89,1.89,0,0,1-1.35.48,1.77,1.77,0,0,1-1.39-.6,2.22,2.22,0,0,1-.54-1.53V54a2.22,2.22,0,0,1,.54-1.53,1.76,1.76,0,0,1,1.39-.6,1.94,1.94,0,0,1,1.35.45,1.5,1.5,0,0,1,.49,1.2v0h-.65a1.12,1.12,0,0,0-.31-.83,1.19,1.19,0,0,0-.87-.31,1.07,1.07,0,0,0-.91.46,1.86,1.86,0,0,0-.34,1.13v.9a1.87,1.87,0,0,0,.34,1.14,1.07,1.07,0,0,0,.91.46,1.19,1.19,0,0,0,.87-.3,1.13,1.13,0,0,0,.31-.84Z" />
                <path class="cls-2" d="M120.6,55.08a2,2,0,0,1,.45-1.36,1.5,1.5,0,0,1,1.21-.53,1.51,1.51,0,0,1,1.22.53,2,2,0,0,1,.45,1.36v.08a2,2,0,0,1-.45,1.36,1.67,1.67,0,0,1-2.44,0,2,2,0,0,1-.45-1.36Zm.68.07a1.76,1.76,0,0,0,.25,1,.9.9,0,0,0,1.48,0,1.75,1.75,0,0,0,.25-1v-.08a1.75,1.75,0,0,0-.25-1,.83.83,0,0,0-.74-.39.82.82,0,0,0-.73.39,1.76,1.76,0,0,0-.25,1Z" />
                <path class="cls-2" d="M125.51,57h-.68v-.7h.68Z" />
                <path class="cls-2" d="M127.24,56.81l-.52,1.05h-.4l.24-1.09v-.56h.68Z" />
                <path class="cls-2" d="M128.85,56.45h2.37V57h-3V52h.68Z" />
                <path class="cls-2" d="M132.74,52.36v.9h.71v.5h-.71V56a.51.51,0,0,0,.11.37.39.39,0,0,0,.29.11h.13l.13,0,.09.46a.6.6,0,0,1-.22.1,1.12,1.12,0,0,1-.29,0,.88.88,0,0,1-.66-.25,1.08,1.08,0,0,1-.24-.78V53.76h-.59v-.5h.59v-.9Z" />
                <path class="cls-2" d="M134.13,55.19a2.48,2.48,0,0,1,.38-1.45,1.24,1.24,0,0,1,1.08-.55,1.34,1.34,0,0,1,.58.12,1.19,1.19,0,0,1,.43.35v-2h.68V57h-.55l-.08-.46a1.21,1.21,0,0,1-.45.4,1.35,1.35,0,0,1-.62.13,1.28,1.28,0,0,1-1.07-.49,2.05,2.05,0,0,1-.39-1.3Zm.68.07a1.58,1.58,0,0,0,.23.9.81.81,0,0,0,.72.34.9.9,0,0,0,.51-.14,1,1,0,0,0,.34-.39V54.24a1,1,0,0,0-.34-.37.9.9,0,0,0-.5-.14.78.78,0,0,0-.72.4,2.08,2.08,0,0,0-.23,1Z" />
                <path class="cls-2" d="M139,57h-.68v-.7H139Z" />
            </g>
        </g>
        <path class="cls-3" d="M47.19,29.57a.77.77,0,0,1,0-1.09L57.84,17.83a.77.77,0,0,0,0-1.09L53.06,12A.77.77,0,0,0,52,12l-4.78,4.78a.77.77,0,0,1-1.09,0L41.31,12a.77.77,0,0,1,0-1.09L46.1,6.09A.77.77,0,0,0,46.1,5L41.31.22a.77.77,0,0,0-1.09,0L35.44,5,34.36,6.09l-4.78,4.78a.77.77,0,0,1-1.09,0L23.7,6.09,22.62,5,17.83.22a.77.77,0,0,0-1.09,0L12,5a.77.77,0,0,0,0,1.09l4.78,4.78a.77.77,0,0,1,0,1.09L12,16.75a.77.77,0,0,1-1.09,0L6.09,12A.77.77,0,0,0,5,12L.22,16.75a.77.77,0,0,0,0,1.09L10.88,28.49a.77.77,0,0,1,0,1.09L6.09,34.36,5,35.44.22,40.23a.77.77,0,0,0,0,1.09L5,46.1a.77.77,0,0,0,1.09,0l4.78-4.78a.77.77,0,0,1,1.09,0l4.78,4.78a.77.77,0,0,1,0,1.09L12,52a.77.77,0,0,0,0,1.09l4.78,4.78a.77.77,0,0,0,1.09,0l4.78-4.78L23.7,52,27,48.65l1.09-1.09.38-.38a.77.77,0,0,1,1.09,0L40.23,57.84a.77.77,0,0,0,1.09,0l4.78-4.78a.77.77,0,0,0,0-1.09l-4.78-4.78a.77.77,0,0,1,0-1.09l4.78-4.78a.77.77,0,0,1,1.09,0L52,46.1a.77.77,0,0,0,1.09,0l4.78-4.78a.77.77,0,0,0,0-1.09l-4.78-4.79L52,34.36Zm-7,4.78a.77.77,0,0,1,0,1.09l-4.78,4.79a.77.77,0,0,1-1.09,0l-4.78-4.79a.77.77,0,0,0-1.09,0L23.7,40.23a.77.77,0,0,1-1.09,0l-4.78-4.79a.77.77,0,0,1,0-1.09l4.78-4.78a.77.77,0,0,0,0-1.09L17.83,23.7a.77.77,0,0,1,0-1.09l4.78-4.78a.77.77,0,0,1,1.09,0l4.78,4.78a.77.77,0,0,0,1.09,0l4.78-4.78a.77.77,0,0,1,1.09,0l4.78,4.78a.77.77,0,0,1,0,1.09l-4.78,4.78a.77.77,0,0,0,0,1.09Z" />
    </g>
</svg>