<svg width="197.08" height="182.11" viewBox="0 0 197.08 182.11">
    <defs>
        <clipPath id="clip-path">
            <path d="M146.87,152.74l-9-81.22h0c0,6.68-9.85,12.08-22,12.08S94,78.2,94,71.52h-.08l-9,81.58a9.82,9.82,0,0,0-.3,2.38c0,9.55,14,17.29,31.32,17.29s31.32-7.74,31.32-17.29A9.85,9.85,0,0,0,146.87,152.74Z" fill="none" />
        </clipPath>
    </defs>
    <g>
        <g>
            <g>
                <ellipse cx="115.93" cy="175.49" rx="11.98" ry="6.61" fill="#e6e6e6" />
                <polygon points="125.91 158.52 105.91 158.52 103.91 175.52 127.91 175.52 125.91 158.52" fill="#e6e6e6" />
            </g>
            <path d="M146.87,152.74l-9-81.22h0c0,6.68-9.85,12.08-22,12.08S94,78.2,94,71.52h-.08l-9,81.58a9.82,9.82,0,0,0-.3,2.38c0,9.55,14,17.29,31.32,17.29s31.32-7.74,31.32-17.29A9.85,9.85,0,0,0,146.87,152.74Z" fill="#00bcff" />
            <path d="M115.95,59.35c-12.13,0-22,5.43-22,12.13,0,0,0,0,0,0,0,6.68,9.85,12.08,22,12.08s21.92-5.41,22-12.08c0,0,0,0,0,0C137.91,64.78,128.07,59.35,115.95,59.35Z" fill="#00ceff" stroke="#fff" stroke-miterlimit="10" />
            <g>
                <g>
                    <ellipse cx="115.93" cy="65.49" rx="11.65" ry="6.43" fill="#fff" />
                    <polygon points="127.47 64.62 104.39 64.6 106.02 58.67 125.91 59.06 127.47 64.62" fill="#fff" />
                </g>
                <g>
                    <path d="M124.34,62.49a4,4,0,0,0,1.61-3c0-3.05-4.48-5.53-10-5.53s-10,2.48-10,5.53a4,4,0,0,0,1.61,3C109.3,61,112.4,60,115.93,60S122.55,61,124.34,62.49Z" fill="#ccc" />
                    <path d="M124.34,62.49C122.55,61,119.45,60,115.93,60s-6.62,1-8.41,2.53C109.3,64,112.4,65,115.93,65S122.55,64,124.34,62.49Z" fill="gray" />
                </g>
            </g>
        </g>
        <g clip-path="url(#clip-path)">
            <g>
                <g>
                    <path d="M161.59,139.94A89.9,89.9,0,0,1,6,116.46" fill="none" stroke="#fff" stroke-linecap="round" stroke-linejoin="round" />
                    <path d="M150.39,143.21A89.87,89.87,0,0,1,20,142" fill="none" stroke="#fff" stroke-linecap="round" stroke-linejoin="round" />
                    <path d="M140.09,144.2a89.88,89.88,0,0,1-116.45,1" fill="none" stroke="#fff" stroke-linecap="round" stroke-linejoin="round" />
                    <path d="M130.83,143.55A89.89,89.89,0,0,1,20.32,141.7" fill="none" stroke="#fff" stroke-linecap="round" stroke-linejoin="round" />
                    <path d="M122.62,141.71a89.91,89.91,0,0,1-104.26-2.53" fill="none" stroke="#fff" stroke-linecap="round" stroke-linejoin="round" />
                    <path d="M115.15,139.14a89.93,89.93,0,0,1-98.69-2.58" fill="none" stroke="#fff" stroke-linecap="round" stroke-linejoin="round" />
                    <path d="M109,135.62a90,90,0,0,1-94.37-1.75" fill="none" stroke="#fff" stroke-linecap="round" stroke-linejoin="round" />
                    <path d="M103.27,131.85a90,90,0,0,1-90.33-.76" fill="none" stroke="#fff" stroke-linecap="round" stroke-linejoin="round" />
                    <path d="M98.43,127.55a90,90,0,0,1-87,.74" fill="none" stroke="#fff" stroke-linecap="round" stroke-linejoin="round" />
                    <path d="M94.32,122.83a90,90,0,0,1-84.55,2.44" fill="none" stroke="#fff" stroke-linecap="round" stroke-linejoin="round" />
                    <path d="M90.46,118a90,90,0,0,1-82.15,4.25" fill="none" stroke="#fff" stroke-linecap="round" stroke-linejoin="round" />
                    <path d="M87.87,112.33a90.06,90.06,0,0,1-80.23,7" fill="none" stroke="#fff" stroke-linecap="round" stroke-linejoin="round" />
                    <path d="M75.8,112a90.16,90.16,0,0,1-70.07,3.8" fill="none" stroke="#fff" stroke-linecap="round" stroke-linejoin="round" />
                    <path d="M66.16,109.87a90.27,90.27,0,0,1-61.57,2.61" fill="none" stroke="#fff" stroke-linecap="round" stroke-linejoin="round" />
                    <path d="M58.33,106.69a89.69,89.69,0,0,1-31,5.5,90,90,0,0,1-22.89-2.94" fill="none" stroke="#fff" stroke-linecap="round" stroke-linejoin="round" />
                    <path d="M51.86,102.91a89.76,89.76,0,0,1-29,4.79,90.15,90.15,0,0,1-20.16-2.27" fill="none" stroke="#fff" stroke-linecap="round" stroke-linejoin="round" />
                    <path d="M46.44,98.73a89.78,89.78,0,0,1-28.1,4.48,90.39,90.39,0,0,1-16.45-1.5" fill="none" stroke="#fff" stroke-linecap="round" stroke-linejoin="round" />
                    <path d="M41.87,94.27a89.82,89.82,0,0,1-28,4.45,90.66,90.66,0,0,1-12.59-.87" fill="none" stroke="#fff" stroke-linecap="round" stroke-linejoin="round" />
                    <path d="M37.6,89.72A89.79,89.79,0,0,1,9.37,94.24Q5,94.24.8,93.83" fill="none" stroke="#fff" stroke-linecap="round" stroke-linejoin="round" />
                    <path d="M33.44,85.12A89.77,89.77,0,0,1,4.88,89.75q-2.2,0-4.38-.11" fill="none" stroke="#fff" stroke-linecap="round" stroke-linejoin="round" />
                </g>
                <g>
                    <path d="M126.45,20.9A56,56,0,0,1,42.81,95.27" fill="none" stroke="#fff" stroke-linecap="round" stroke-linejoin="round" />
                    <path d="M121.75,16.26A56,56,0,0,1,40.57,93" fill="none" stroke="#fff" stroke-linecap="round" stroke-linejoin="round" />
                    <path d="M117.52,12.24A56,56,0,0,1,39,90.8" fill="none" stroke="#fff" stroke-linecap="round" stroke-linejoin="round" />
                    <path d="M114.63,10.14A56,56,0,0,1,36.93,88" fill="none" stroke="#fff" stroke-linecap="round" stroke-linejoin="round" />
                    <path d="M111.56,8.2A56,56,0,0,1,34.92,84.84" fill="none" stroke="#fff" stroke-linecap="round" stroke-linejoin="round" />
                    <path d="M108.91,7.14a56,56,0,0,1-75.6,74.78" fill="none" stroke="#fff" stroke-linecap="round" stroke-linejoin="round" />
                    <path d="M105.57,5.15a56,56,0,0,1-73.7,73.7" fill="none" stroke="#fff" stroke-linecap="round" stroke-linejoin="round" />
                    <path d="M102.34,3.86A56,56,0,0,1,30.58,75.62" fill="none" stroke="#fff" stroke-linecap="round" stroke-linejoin="round" />
                    <path d="M98.94,2.75A56,56,0,0,1,29.47,72.22" fill="none" stroke="#fff" stroke-linecap="round" stroke-linejoin="round" />
                    <path d="M94.8,1.71A56.05,56.05,0,0,1,40.14,70a56.23,56.23,0,0,1-11.56-1.19" fill="none" stroke="#fff" stroke-linecap="round" stroke-linejoin="round" />
                    <path d="M90.48,1a56.44,56.44,0,0,1,.64,8.49,56,56,0,0,1-56,56A56.51,56.51,0,0,1,27.88,65" fill="none" stroke="#fff" stroke-linecap="round" stroke-linejoin="round" />
                    <path d="M85.93.59q.17,2.18.17,4.4a56,56,0,0,1-56,56q-1.35,0-2.69-.06" fill="none" stroke="#fff" stroke-linecap="round" stroke-linejoin="round" />
                    <path d="M81.07.5a56,56,0,0,1-53.83,56" fill="none" stroke="#fff" stroke-linecap="round" stroke-linejoin="round" />
                </g>
                <g>
                    <path d="M175.93,131.6a58.66,58.66,0,0,1-88.41-19" fill="none" stroke="#fff" stroke-linecap="round" stroke-linejoin="round" />
                    <path d="M176.92,129.86a58.66,58.66,0,0,1-83.81-18.2" fill="none" stroke="#fff" stroke-linecap="round" stroke-linejoin="round" />
                    <path d="M179.68,126.72a58.66,58.66,0,0,1-81-16.36" fill="none" stroke="#fff" stroke-linecap="round" stroke-linejoin="round" />
                    <path d="M182.68,123.4A58.66,58.66,0,0,1,104,108.53" fill="none" stroke="#fff" stroke-linecap="round" stroke-linejoin="round" />
                    <path d="M185.14,120.38a58.67,58.67,0,0,1-75.75-13.88" fill="none" stroke="#fff" stroke-linecap="round" stroke-linejoin="round" />
                    <path d="M187.4,117.42a58.67,58.67,0,0,1-73.47-14.06" fill="none" stroke="#fff" stroke-linecap="round" stroke-linejoin="round" />
                    <path d="M189.07,114.68a58.68,58.68,0,0,1-70.67-14.56" fill="none" stroke="#fff" stroke-linecap="round" stroke-linejoin="round" />
                    <path d="M190.35,112a58.7,58.7,0,0,1-67.84-15.55" fill="none" stroke="#fff" stroke-linecap="round" stroke-linejoin="round" />
                    <path d="M191.74,109.11a58.71,58.71,0,0,1-65.47-16.74" fill="none" stroke="#fff" stroke-linecap="round" stroke-linejoin="round" />
                    <path d="M192.83,106.19a58.72,58.72,0,0,1-63.16-18.35" fill="none" stroke="#fff" stroke-linecap="round" stroke-linejoin="round" />
                    <path d="M193.75,103.16a58.74,58.74,0,0,1-61.08-20.33" fill="none" stroke="#fff" stroke-linecap="round" stroke-linejoin="round" />
                    <path d="M194.58,100a58.74,58.74,0,0,1-59.27-22.74" fill="none" stroke="#fff" stroke-linecap="round" stroke-linejoin="round" />
                    <path d="M194.89,97.16a59,59,0,0,1-8.93.68,58.58,58.58,0,0,1-48.81-26.13" fill="none" stroke="#fff" stroke-linecap="round" stroke-linejoin="round" />
                    <path d="M195,94.2q-2.82.27-5.72.28a58.62,58.62,0,0,1-50.76-29.26" fill="none" stroke="#fff" stroke-linecap="round" stroke-linejoin="round" />
                    <path d="M195.65,91q-1.47.07-3,.07a58.65,58.65,0,0,1-53.45-34.49" fill="none" stroke="#fff" stroke-linecap="round" stroke-linejoin="round" />
                    <path d="M196.06,87.75A58.64,58.64,0,0,1,137.43,30" fill="none" stroke="#fff" stroke-linecap="round" stroke-linejoin="round" />
                    <path d="M196.4,84.3a58.65,58.65,0,0,1-55.56-56" fill="none" stroke="#fff" stroke-linecap="round" stroke-linejoin="round" />
                    <path d="M196.4,80.67A58.67,58.67,0,0,1,144.52,29" fill="none" stroke="#fff" stroke-linecap="round" stroke-linejoin="round" />
                    <path d="M196.58,76.87A58.69,58.69,0,0,1,148.37,29" fill="none" stroke="#fff" stroke-linecap="round" stroke-linejoin="round" />
                    <path d="M195.19,72.52a58.74,58.74,0,0,1-42.47-42.24" fill="none" stroke="#fff" stroke-linecap="round" stroke-linejoin="round" />
                    <path d="M193.35,67.59a58.8,58.8,0,0,1-36-36.38" fill="none" stroke="#fff" stroke-linecap="round" stroke-linejoin="round" />
                    <path d="M191.64,62.16A58.87,58.87,0,0,1,163.2,33.94" fill="none" stroke="#fff" stroke-linecap="round" stroke-linejoin="round" />
                    <path d="M188.89,55.5a59,59,0,0,1-19.24-19.26" fill="none" stroke="#fff" stroke-linecap="round" stroke-linejoin="round" />
                </g>
            </g>
        </g>
    </g>
</svg>